<svg xmlns="http://www.w3.org/2000/svg" width="22" height="32" viewBox="0 0 22 32">
  <defs>
    <style>
      .cls-1, .cls-6 {
        fill: #fff;
      }

      .cls-1 {
        opacity: 0;
      }

      .cls-2, .cls-5 {
        fill: #2565d6;
      }

      .cls-2 {
        font-size: 8px;
        letter-spacing: -0.06em;
      }

      .cls-2, .cls-6 {
        font-family: Pretendard-Bold, Pretendard;
        font-weight: 700;
      }

      .cls-3 {
        fill: none;
        stroke: #333;
        stroke-width: 1.6px;
      }

      .cls-3, .cls-5 {
        stroke-linecap: round;
        stroke-linejoin: round;
      }

      .cls-4 {
        fill: #333;
      }

      .cls-6 {
        font-size: 7px;
      }

      .cls-7, .cls-8 {
        stroke: none;
      }

      .cls-8 {
        fill: #333;
      }
    </style>
  </defs>
  <g id="btn_Press_NEGA01" transform="translate(-189 -1082)">
    <rect id="BG_Icon" class="cls-1" width="22" height="32" transform="translate(189 1082)"/>
    <text id="NEGA" class="cls-2" transform="translate(200 1090)"><tspan x="-10.184" y="0">NEGA</tspan></text>
    <g id="Ic_Press_NEGA01" transform="translate(189.5 1094.213)">
      <path id="패스_203220" data-name="패스 203220" class="cls-3" d="M20,5.939H18.695a1.974,1.974,0,0,0-1.811,1.153L16.4,8.22a2.874,2.874,0,0,1-2.929,1.719H7.531A2.874,2.874,0,0,1,4.6,8.22L4.116,7.092A1.974,1.974,0,0,0,2.305,5.939H1" transform="translate(0 3.048)"/>
      <rect id="사각형_150958" data-name="사각형 150958" class="cls-4" width="9" height="9" transform="translate(6 -2.213)"/>
      <g id="패스_203223" data-name="패스 203223" class="cls-5" transform="translate(0 0.711)">
        <path class="cls-7" d="M 19 16.57600021362305 L 2 16.57600021362305 C 1.448600053787231 16.57600021362305 1 16.12739944458008 1 15.57600021362305 C 1 15.0246000289917 1.448600053787231 14.57600021362305 2 14.57600021362305 L 19 14.57600021362305 C 19.55139923095703 14.57600021362305 20 15.0246000289917 20 15.57600021362305 C 20 16.12739944458008 19.55139923095703 16.57600021362305 19 16.57600021362305 Z"/>
        <path class="cls-8" d="M 19 16.07600021362305 C 19.27569961547852 16.07600021362305 19.5 15.85169982910156 19.5 15.57600021362305 C 19.5 15.30030059814453 19.27569961547852 15.07600021362305 19 15.07600021362305 L 2 15.07600021362305 C 1.724300026893616 15.07600021362305 1.5 15.30030059814453 1.5 15.57600021362305 C 1.5 15.85169982910156 1.724300026893616 16.07600021362305 2 16.07600021362305 L 19 16.07600021362305 M 19 17.07600021362305 L 2 17.07600021362305 C 1.172000050544739 17.07600021362305 0.5 16.40399932861328 0.5 15.57600021362305 C 0.5 14.7480001449585 1.172000050544739 14.07600021362305 2 14.07600021362305 L 19 14.07600021362305 C 19.82799911499023 14.07600021362305 20.5 14.7480001449585 20.5 15.57600021362305 C 20.5 16.40399932861328 19.82799911499023 17.07600021362305 19 17.07600021362305 Z"/>
      </g>
      <rect id="사각형_150959" data-name="사각형 150959" class="cls-4" width="13" height="3" rx="1.5" transform="translate(4 4.787)"/>
      <text id="P" class="cls-6" transform="translate(8.5 5.028)"><tspan x="0" y="0">P</tspan></text>
    </g>
  </g>
</svg>
