<svg xmlns="http://www.w3.org/2000/svg" width="20" height="20" viewBox="0 0 20 20">
  <defs>
    <style>
      .cls-1 {
        fill: red;
        opacity: 0;
      }

      .cls-2 {
        fill: #2d73d3;
      }

      .cls-2, .cls-3 {
        stroke: #333;
      }

      .cls-3, .cls-4 {
        fill: #fff;
      }

      .cls-5 {
        fill: #333;
      }

      .cls-6 {
        fill: #ffeb3b;
        stroke: rgba(0,0,0,0);
        stroke-miterlimit: 10;
      }

      .cls-7 {
        stroke: none;
      }

      .cls-8 {
        fill: none;
      }
    </style>
  </defs>
  <g id="ic_전송내역" transform="translate(-422 -588)">
    <rect id="사각형_150909" data-name="사각형 150909" class="cls-1" width="20" height="20" transform="translate(422 588)"/>
    <g id="사각형_150910" data-name="사각형 150910" class="cls-2" transform="translate(424 592)">
      <rect class="cls-7" width="16" height="11" rx="2"/>
      <rect class="cls-8" x="0.5" y="0.5" width="15" height="10" rx="1.5"/>
    </g>
    <g id="사각형_150911" data-name="사각형 150911" class="cls-3" transform="translate(426 605)">
      <rect class="cls-7" width="12" height="1"/>
      <rect class="cls-8" x="0.5" y="0.5" width="11"/>
    </g>
    <g id="사각형_150912" data-name="사각형 150912" class="cls-3" transform="translate(431.5 603)">
      <rect class="cls-7" width="1" height="3"/>
      <rect class="cls-8" x="0.5" y="0.5" height="2"/>
    </g>
    <rect id="사각형_150913" data-name="사각형 150913" class="cls-4" width="1" height="1" transform="translate(427 595)"/>
    <rect id="사각형_150914" data-name="사각형 150914" class="cls-4" width="8" height="1" transform="translate(429 595)"/>
    <rect id="사각형_150915" data-name="사각형 150915" class="cls-4" width="1" height="1" transform="translate(427 597)"/>
    <rect id="사각형_150916" data-name="사각형 150916" class="cls-4" width="8" height="1" transform="translate(429 597)"/>
    <rect id="사각형_150917" data-name="사각형 150917" class="cls-4" width="1" height="1" transform="translate(427 599)"/>
    <rect id="사각형_150918" data-name="사각형 150918" class="cls-4" width="8" height="1" transform="translate(429 599)"/>
    <g id="down" transform="translate(-5702.957 5332.5) rotate(-90)">
      <circle id="타원_2826" data-name="타원 2826" class="cls-5" cx="4" cy="4" r="4" transform="translate(4735 6136.457)"/>
      <g id="그룹_123997" data-name="그룹 123997" transform="translate(4736.171 6136.086)">
        <rect id="사각형_149854" data-name="사각형 149854" class="cls-6" width="1" height="4" transform="translate(2.316 2)"/>
        <rect id="사각형_149855" data-name="사각형 149855" class="cls-6" width="1" height="3.415" transform="translate(2.829 6.742) rotate(-135)"/>
        <rect id="사각형_149856" data-name="사각형 149856" class="cls-6" width="1" height="3.438" transform="translate(3.536 6.035) rotate(135)"/>
      </g>
    </g>
  </g>
</svg>
