<svg id="ic_좋아요" xmlns="http://www.w3.org/2000/svg" width="16" height="16" viewBox="0 0 16 16">
  <defs>
    <style>
      .cls-1, .cls-3 {
        fill: #fff;
      }

      .cls-1, .cls-2 {
        opacity: 0;
      }

      .cls-2 {
        fill: red;
      }

      .cls-4, .cls-5 {
        stroke: none;
      }

      .cls-5 {
        fill: #333;
      }
    </style>
  </defs>
  <rect id="사각형_150761" data-name="사각형 150761" class="cls-1" width="16" height="16"/>
  <rect id="사각형_150760" data-name="사각형 150760" class="cls-2" width="14" height="14" transform="translate(1 1)"/>
  <g id="다각형_27" data-name="다각형 27" class="cls-3" transform="translate(2 3)">
    <path class="cls-4" d="M 8.152125358581543 9.002891540527344 L 5.746200084686279 7.64178991317749 L 5.5 7.502510070800781 L 5.253799915313721 7.64178991317749 L 2.847875118255615 9.002891540527344 L 3.450560092926025 6.429599761962891 L 3.520529985427856 6.130809783935547 L 3.285809993743896 5.933129787445068 L 1.239786148071289 4.210060596466064 L 3.97733998298645 3.963579893112183 L 4.267859935760498 3.937419891357422 L 4.388070106506348 3.671639919281006 L 5.499998569488525 1.213274478912354 L 6.611929893493652 3.671639919281006 L 6.732140064239502 3.937410116195679 L 7.022659778594971 3.963570117950439 L 9.76021671295166 4.210058212280273 L 7.714190006256104 5.933129787445068 L 7.479469776153564 6.130809783935547 L 7.549439907073975 6.429599761962891 L 8.152125358581543 9.002891540527344 Z"/>
    <path class="cls-5" d="M 5.5 2.42652416229248 L 4.603209972381592 4.40923023223877 L 2.479544639587402 4.600448131561279 L 4.077340126037598 5.946040153503418 L 3.594924449920654 8.005806922912598 L 5.5 6.92805004119873 L 7.405075550079346 8.005806922912598 L 6.922659873962402 5.946040153503418 L 8.520456314086914 4.600448131561279 L 6.396790027618408 4.40923023223877 L 5.5 2.42652416229248 M 5.5 0 L 7.067500114440918 3.465579986572266 L 11 3.819660186767578 L 8.036270141601562 6.315579891204834 L 8.899189949035645 10 L 5.5 8.076979637145996 L 2.100810050964355 10 L 2.963729858398438 6.315579891204834 L 0 3.819660186767578 L 3.932499885559082 3.465579986572266 L 5.5 0 Z"/>
  </g>
</svg>
