<svg xmlns="http://www.w3.org/2000/svg" width="24" height="24" viewBox="0 0 24 24">
    <g transform="translate(12301.076 1266.076)">
        <circle data-name="타원 2935" cx="12" cy="12" r="12" transform="translate(-12301.076 -1266.076)" style="fill:#f0f0f0"/>
        <g data-name="패스 203460" style="fill:#fff">
            <path d="M2.928 9.5c-3.137 0-4.599-.969-4.599-3.049 0-1.645.592-3.177 1.668-4.313C.982 1.097 2.263.5 3.51.5c1.217 0 2.465.612 3.423 1.68 1.029 1.147 1.595 2.664 1.595 4.271 0 1.268-.567 2.117-1.732 2.596-1.095.45-2.464.45-2.98.45l-.163-.001h-.127c-.07 0-.15 0-.24.002l-.359.002z" style="stroke:none" transform="translate(-12292.506 -1256.376)"/>
            <path d="M3.51 1C2.4 1 1.252 1.54.36 2.482c-.987 1.043-1.53 2.452-1.53 3.97C-1.17 7.637-.706 9 2.927 9l.354-.002.245-.002H3.817c3.733 0 4.212-1.36 4.212-2.545C8.03 3.24 5.648 1 3.511 1m0-1c2.763 0 5.518 2.773 5.518 6.451 0 3.679-4.27 3.545-5.502 3.545-1.232 0-5.698.272-5.698-3.545S.748 0 3.511 0z" style="fill:#333;stroke:none" transform="translate(-12292.506 -1256.376)"/>
        </g>
        <g data-name="사각형 151050" style="stroke:#333;fill:#fff">
            <path style="stroke:none" d="M0 0h8.064v8.6H0z" transform="translate(-12289.076 -1254.976)"/>
            <path style="fill:none" d="M.5.5h7.064v7.6H.5z" transform="translate(-12289.076 -1254.976)"/>
        </g>
        <path data-name="사각형 151051" transform="rotate(-45 -7652.977 14206.529)" style="fill:#333" d="M0 0h1v2H0z"/>
        <path data-name="사각형 151052" transform="rotate(45 -4630.2 -15453.964)" style="fill:#333" d="M0 0h1v3.6H0z"/>
        <g data-name="패스 203461" style="fill:#fff">
            <path d="M3.2 5.9A2.703 2.703 0 0 1 .5 3.2C.5 1.711 1.711.5 3.2.5s2.7 1.211 2.7 2.7-1.211 2.7-2.7 2.7z" style="stroke:none" transform="translate(-12292.276 -1261.776)"/>
            <path d="M3.2 1C1.987 1 1 1.987 1 3.2s.987 2.2 2.2 2.2 2.2-.987 2.2-2.2S4.413 1 3.2 1m0-1a3.2 3.2 0 1 1 0 6.4 3.2 3.2 0 0 1 0-6.4z" style="fill:#333;stroke:none" transform="translate(-12292.276 -1261.776)"/>
        </g>
    </g>
</svg>
