<svg id="Btn_담당자" xmlns="http://www.w3.org/2000/svg" xmlns:xlink="http://www.w3.org/1999/xlink" width="36" height="36" viewBox="0 0 36 36">
  <defs>
    <style>
      .cls-1, .cls-2 {
        fill: #fff;
      }

      .cls-1 {
        opacity: 0;
      }

      .cls-3 {
        fill: #a2bbd9;
      }

      .cls-4 {
        fill: none;
        stroke: #88a1be;
        stroke-linecap: round;
        stroke-linejoin: round;
        stroke-width: 1.6px;
      }

      .cls-5 {
        filter: url(#합치기_7);
      }
    </style>
    <filter id="합치기_7" x="12.75" y="12.125" width="10.5" height="12.75" filterUnits="userSpaceOnUse">
      <feOffset dy="0.5" input="SourceAlpha"/>
      <feGaussianBlur stdDeviation="0.25" result="blur"/>
      <feFlood flood-opacity="0.161"/>
      <feComposite operator="in" in2="blur"/>
      <feComposite in="SourceGraphic"/>
    </filter>
  </defs>
  <rect id="Area_Btn" class="cls-1" width="36" height="36"/>
  <rect id="사각형_150669" data-name="사각형 150669" class="cls-2" width="22" height="22" rx="4" transform="translate(7 7)"/>
  <g class="cls-5" transform="matrix(1, 0, 0, 1, 0, 0)">
    <path id="합치기_7-2" data-name="합치기 7" class="cls-3" d="M-520-215.764c.009-.013-.023-5.012,2.872-6.382A2.7,2.7,0,0,1-518.2-224.3a2.7,2.7,0,0,1,2.7-2.7,2.7,2.7,0,0,1,2.7,2.7,2.7,2.7,0,0,1-1.084,2.163c2.882,1.382,2.879,6.355,2.884,6.372s-1.986.014-4.094.014C-517.474-215.75-520.005-215.756-520-215.764Z" transform="translate(533.5 239.38)"/>
  </g>
  <path id="패스_203165" data-name="패스 203165" class="cls-4" d="M-8106.475-14356.586l1.864,1.671,3.234-3.249" transform="translate(8125.926 14375.067)"/>
</svg>
