<svg xmlns="http://www.w3.org/2000/svg" width="20" height="20" viewBox="0 0 20 20">
  <defs>
    <style>
      .cls-1 {
        fill: red;
        opacity: 0;
      }

      .cls-2 {
        fill: #2565d6;
      }

      .cls-3 {
        fill: none;
        stroke: #333;
        stroke-linecap: round;
      }

      .cls-4 {
        fill: #fff;
      }

      .cls-5 {
        fill: #333;
      }

      .cls-6 {
        fill: #ffeb3b;
      }

      .cls-7, .cls-8 {
        stroke: none;
      }

      .cls-8 {
        fill: #333;
      }
    </style>
  </defs>
  <g id="ic_소싱" transform="translate(-422 -590)">
    <rect id="사각형_150909" data-name="사각형 150909" class="cls-1" width="20" height="20" transform="translate(422 590)"/>
    <g id="그룹_124506" data-name="그룹 124506" transform="translate(-272.5 40.687)">
      <g id="다각형_37" data-name="다각형 37" class="cls-2" transform="translate(699.737 551.92) rotate(30)">
        <path class="cls-7" d="M 7.067460060119629 9.5 L 3.932539939880371 9.5 C 3.385479927062988 9.5 2.881860017776489 9.202230453491211 2.618220090866089 8.722880363464355 L 0.9682199954986572 5.722879886627197 C 0.7192699909210205 5.27023983001709 0.7192699909210205 4.72976016998291 0.9682199954986572 4.277120113372803 L 2.618220090866089 1.277119994163513 C 2.881860017776489 0.7977700233459473 3.385479927062988 0.5 3.932539939880371 0.5 L 7.067460060119629 0.5 C 7.614520072937012 0.5 8.11814022064209 0.7977700233459473 8.381779670715332 1.277119994163513 L 10.03178024291992 4.277120113372803 C 10.28073024749756 4.72976016998291 10.28073024749756 5.27023983001709 10.03178024291992 5.722879886627197 L 8.381779670715332 8.722880363464355 C 8.11814022064209 9.202230453491211 7.614520072937012 9.5 7.067460060119629 9.5 Z"/>
        <path class="cls-8" d="M 3.932539939880371 1 C 3.567830085754395 1 3.232089996337891 1.198519706726074 3.05633020401001 1.51807975769043 L 1.406330108642578 4.518070220947266 C 1.240360260009766 4.819839954376221 1.240360260009766 5.180160045623779 1.406330108642578 5.481919765472412 L 3.05633020401001 8.48192024230957 C 3.232089996337891 8.801480293273926 3.567830085754395 9 3.932539939880371 9 L 7.067460060119629 9 C 7.432169914245605 9 7.767910003662109 8.801480293273926 7.943670272827148 8.48192024230957 L 9.593669891357422 5.481929779052734 C 9.759639739990234 5.180160045623779 9.759639739990234 4.819839954376221 9.593669891357422 4.518080234527588 L 7.943670272827148 1.51807975769043 C 7.767910003662109 1.198519706726074 7.432169914245605 1 7.067460060119629 1 L 3.932539939880371 1 M 3.932539939880371 0 L 7.067460060119629 0 C 7.796839714050293 0 8.468389511108398 0.3970699310302734 8.819890022277832 1.036160469055176 L 10.46988964080811 4.036159992218018 C 10.79998016357422 4.636330127716064 10.79998016357422 5.363669872283936 10.46988964080811 5.963840007781982 L 8.819890022277832 8.963840484619141 C 8.468389511108398 9.602930068969727 7.796839714050293 10 7.067460060119629 10 L 3.932539939880371 10 C 3.203159809112549 10 2.531609535217285 9.602930068969727 2.180109977722168 8.963840484619141 L 0.5301103591918945 5.963840007781982 C 0.2000198364257812 5.363669872283936 0.2000198364257812 4.636330127716064 0.5301103591918945 4.036159992218018 L 2.180109977722168 1.036160469055176 C 2.531609535217285 0.3970699310302734 3.203159809112549 0 3.932539939880371 0 Z"/>
      </g>
      <path id="패스_203215" data-name="패스 203215" class="cls-3" d="M-2666.673-10383.128l2.786,1.672a2.615,2.615,0,0,0,1.873.072,25.18,25.18,0,0,0,2.834-1.744" transform="translate(3365 10940)"/>
    </g>
    <g id="그룹_124507" data-name="그룹 124507" transform="translate(-267.737 41.46)">
      <g id="다각형_37-2" data-name="다각형 37" class="cls-4" transform="translate(699.974 554.146) rotate(30)">
        <path class="cls-7" d="M 7.067460060119629 9.5 L 3.932539939880371 9.5 C 3.385479927062988 9.5 2.881860017776489 9.202230453491211 2.618220090866089 8.722880363464355 L 0.9682199954986572 5.722879886627197 C 0.7192699909210205 5.27023983001709 0.7192699909210205 4.72976016998291 0.9682199954986572 4.277120113372803 L 2.618220090866089 1.277119994163513 C 2.881860017776489 0.7977700233459473 3.385479927062988 0.5 3.932539939880371 0.5 L 7.067460060119629 0.5 C 7.614520072937012 0.5 8.11814022064209 0.7977700233459473 8.381779670715332 1.277119994163513 L 10.03178024291992 4.277120113372803 C 10.28073024749756 4.72976016998291 10.28073024749756 5.27023983001709 10.03178024291992 5.722879886627197 L 8.381779670715332 8.722880363464355 C 8.11814022064209 9.202230453491211 7.614520072937012 9.5 7.067460060119629 9.5 Z"/>
        <path class="cls-8" d="M 3.932539939880371 1 C 3.567830085754395 1 3.232089996337891 1.198519706726074 3.05633020401001 1.51807975769043 L 1.406330108642578 4.518070220947266 C 1.240360260009766 4.819839954376221 1.240360260009766 5.180160045623779 1.406330108642578 5.481919765472412 L 3.05633020401001 8.48192024230957 C 3.232089996337891 8.801480293273926 3.567830085754395 9 3.932539939880371 9 L 7.067460060119629 9 C 7.432169914245605 9 7.767910003662109 8.801480293273926 7.943670272827148 8.48192024230957 L 9.593669891357422 5.481929779052734 C 9.759639739990234 5.180160045623779 9.759639739990234 4.819839954376221 9.593669891357422 4.518080234527588 L 7.943670272827148 1.51807975769043 C 7.767910003662109 1.198519706726074 7.432169914245605 1 7.067460060119629 1 L 3.932539939880371 1 M 3.932539939880371 0 L 7.067460060119629 0 C 7.796839714050293 0 8.468389511108398 0.3970699310302734 8.819890022277832 1.036160469055176 L 10.46988964080811 4.036159992218018 C 10.79998016357422 4.636330127716064 10.79998016357422 5.363669872283936 10.46988964080811 5.963840007781982 L 8.819890022277832 8.963840484619141 C 8.468389511108398 9.602930068969727 7.796839714050293 10 7.067460060119629 10 L 3.932539939880371 10 C 3.203159809112549 10 2.531609535217285 9.602930068969727 2.180109977722168 8.963840484619141 L 0.5301103591918945 5.963840007781982 C 0.2000198364257812 5.363669872283936 0.2000198364257812 4.636330127716064 0.5301103591918945 4.036159992218018 L 2.180109977722168 1.036160469055176 C 2.531609535217285 0.3970699310302734 3.203159809112549 0 3.932539939880371 0 Z"/>
      </g>
      <path id="패스_203215-2" data-name="패스 203215" class="cls-3" d="M-2666.673-10383.128l2.786,1.672a2.615,2.615,0,0,0,1.873.072,25.18,25.18,0,0,0,2.834-1.744" transform="translate(3365 10942)"/>
    </g>
    <g id="그룹_124508" data-name="그룹 124508" transform="translate(0.5 4.687)">
      <rect id="사각형_150935" data-name="사각형 150935" class="cls-5" width="10" height="8" rx="2" transform="translate(430 587)"/>
      <rect id="사각형_150936" data-name="사각형 150936" class="cls-6" width="4" height="1" transform="translate(434.5 593) rotate(-90)"/>
      <rect id="사각형_150937" data-name="사각형 150937" class="cls-6" width="2" height="1" transform="translate(432.5 593) rotate(-90)"/>
      <rect id="사각형_150938" data-name="사각형 150938" class="cls-6" width="3" height="1" transform="translate(436.5 593) rotate(-90)"/>
    </g>
  </g>
</svg>
