<svg xmlns="http://www.w3.org/2000/svg" xmlns:xlink="http://www.w3.org/1999/xlink" width="24" height="24" viewBox="0 0 24 24">
  <defs>
    <style>
      .cls-1 {
        fill: none;
      }

      .cls-2 {
        fill: #fff;
        opacity: 0;
      }

      .cls-3 {
        clip-path: url(#clip-path);
      }

      .cls-4 {
        fill: #1a1a1a;
      }
    </style>
    <clipPath id="clip-path">
      <rect id="사각형_151005" data-name="사각형 151005" class="cls-1" width="22" height="21.807" transform="translate(0 0)"/>
    </clipPath>
  </defs>
  <g id="Icon_Weather_Small_눈" transform="translate(-36 -1)">
    <rect id="사각형_150998" data-name="사각형 150998" class="cls-2" width="24" height="24" transform="translate(36 1)"/>
    <g id="그룹_124540" data-name="그룹 124540" transform="translate(37 2)">
      <g id="그룹_124539" data-name="그룹 124539" class="cls-3">
        <path id="패스_203335" data-name="패스 203335" class="cls-4" d="M12.035,17.7l-.995-.479.5-.932a.371.371,0,0,0-.652-.354v0l-.613,1.139-1.741.516V15.9l.951-.9a.372.372,0,0,0-.509-.542l-.813.769-.813-.769A.371.371,0,1,0,6.842,15l.95.9v1.692L6.051,17.06l-.613-1.14a.371.371,0,0,0-.5-.149h0a.371.371,0,0,0-.149.5l.5.932-.995.5a.371.371,0,0,0,.16.7.345.345,0,0,0,.16-.037l1.214-.583,1.718.528L6.5,19.677l-1.343.2a.372.372,0,0,0-.312.423h0a.371.371,0,0,0,.371.315h.056l1.113-.167L6.56,21.5a.371.371,0,0,0,.371.308h.063a.372.372,0,0,0,.3-.428v0L7.09,20.126l1.073-1.418L9.232,20.1l-.208,1.251a.372.372,0,0,0,.3.433h.071a.37.37,0,0,0,.371-.308l.178-1.05,1.114.167h.078a.36.36,0,0,0,.06-.717h0l-1.343-.2L8.783,18.3l1.719-.527,1.214.583a.364.364,0,0,0,.159.037.372.372,0,0,0,.16-.706Z"/>
        <path id="패스_203336" data-name="패스 203336" class="cls-4" d="M21.8,14.4l-.587-.316.305-.627a.371.371,0,0,0-.668-.323l-.372.809-1.061.372V13.1l.612-.642a.371.371,0,1,0-.538-.512l-.464.468-.445-.468a.372.372,0,0,0-.539.512l.613.642v1.21l-1.062-.371-.371-.809a.371.371,0,0,0-.668.323l.3.627-.586.316a.371.371,0,1,0,.3.677.492.492,0,0,0,.045-.024l.742-.4,1.084.371L17.761,16l-.843.141a.373.373,0,0,0,.06.743h.063l.623-.1.1.675a.372.372,0,0,0,.372.316h.055a.371.371,0,0,0,.312-.422h0l-.137-.9.653-.965.661.957-.138.9a.371.371,0,0,0,.307.426h.061a.371.371,0,0,0,.371-.315l.1-.676.624.1h.063a.372.372,0,1,0,.059-.742L20.293,16l-.687-.977,1.084-.371.742.405a.372.372,0,1,0,.394-.63.321.321,0,0,0-.045-.024Z"/>
        <path id="패스_203337" data-name="패스 203337" class="cls-4" d="M13.247,5.565l-1.657-.8.835-1.552a.618.618,0,0,0-1.087-.589l0,0-1.02,1.9-2.9.86V2.566L9,1.07a.619.619,0,1,0-.847-.9L6.8,1.447,5.444.167a.619.619,0,1,0-.847.9l1.583,1.5v2.82l-2.9-.891L2.26,2.6a.619.619,0,0,0-.838-.249l0,0a.619.619,0,0,0-.247.835l.834,1.551L.349,5.565A.618.618,0,0,0,.615,6.74a.581.581,0,0,0,.266-.062L2.9,5.707l2.863.878L4.022,8.854l-2.238.334a.619.619,0,0,0-.52.7v0a.62.62,0,0,0,.619.526h.093L3.83,10.14l.3,1.75a.618.618,0,0,0,.618.513h.106a.619.619,0,0,0,.508-.711v-.006L5.011,9.6,6.8,7.241,8.579,9.559l-.346,2.084a.617.617,0,0,0,.494.721l.013,0h.105a.618.618,0,0,0,.618-.513l.3-1.75,1.855.279h.13a.6.6,0,0,0,.1-1.194h0L9.6,8.854l-1.774-2.3,2.862-.878,2.022.971a.587.587,0,0,0,.266.062.618.618,0,0,0,.266-1.175Z"/>
      </g>
    </g>
  </g>
</svg>
