<svg xmlns="http://www.w3.org/2000/svg" xmlns:xlink="http://www.w3.org/1999/xlink" width="24" height="24" viewBox="0 0 24 24">
  <defs>
    <style>
      .cls-1 {
        fill: none;
      }

      .cls-2 {
        fill: #fff;
        opacity: 0;
      }

      .cls-3 {
        clip-path: url(#clip-path);
      }

      .cls-4 {
        fill: #fbb03b;
      }

      .cls-5 {
        fill: #f7931e;
      }

      .cls-6 {
        fill: #92d7ef;
      }

      .cls-7 {
        fill: #54c4e2;
      }

      .cls-8 {
        fill: #1a1a1a;
      }
    </style>
    <clipPath id="clip-path">
      <rect id="사각형_150999" data-name="사각형 150999" class="cls-1" width="24" height="19.817"/>
    </clipPath>
  </defs>
  <g id="Icon_Weather_Small_주간_구름조금" transform="translate(-36 -1)">
    <rect id="사각형_150998" data-name="사각형 150998" class="cls-2" width="24" height="24" transform="translate(36 1)"/>
    <g id="그룹_124528" data-name="그룹 124528" transform="translate(36 3)">
      <g id="그룹_124527" data-name="그룹 124527" class="cls-3">
        <path id="패스_203294" data-name="패스 203294" class="cls-4" d="M31.1,7a5.549,5.549,0,1,1-5.549,5.549A5.549,5.549,0,0,1,31.1,7" transform="translate(-15.427 -4.226)"/>
        <path id="패스_203295" data-name="패스 203295" class="cls-5" d="M33.472,16.667a5.549,5.549,0,0,1-4.926-8.1,5.549,5.549,0,1,0,7.475,7.475,5.517,5.517,0,0,1-2.548.622" transform="translate(-15.417 -5.173)"/>
        <path id="패스_203296" data-name="패스 203296" class="cls-6" d="M16.832,20.165h.27a4.756,4.756,0,1,1,0,9.512H6.4a5.552,5.552,0,0,1,.4-11.1,5.414,5.414,0,0,1,1.764.289,4.756,4.756,0,0,1,8.271,1.3" transform="translate(-0.631 -10.257)"/>
        <path id="패스_203297" data-name="패스 203297" class="cls-7" d="M19.754,30.667H9.053a5.549,5.549,0,0,1-4.53-8.1A5.549,5.549,0,0,0,6.675,33.045h10.7a4.756,4.756,0,0,0,4.332-2.8,4.727,4.727,0,0,1-1.954.424" transform="translate(-0.906 -13.625)"/>
        <path id="패스_203298" data-name="패스 203298" class="cls-8" d="M31.973,6a5.946,5.946,0,0,0-4.895,2.576.4.4,0,1,0,.65.452,5.152,5.152,0,0,1,9.4,2.917,5.076,5.076,0,0,1-.285,1.7.395.395,0,1,0,.745.262,5.79,5.79,0,0,0,.333-1.958A5.945,5.945,0,0,0,31.973,6" transform="translate(-16.296 -3.622)"/>
        <path id="패스_203299" data-name="패스 203299" class="cls-8" d="M38.951,1.585a.4.4,0,0,0,.4-.4V.4a.4.4,0,1,0-.793,0v.793a.4.4,0,0,0,.4.4" transform="translate(-23.274)"/>
        <path id="패스_203300" data-name="패스 203300" class="cls-8" d="M29,3.958a.4.4,0,1,0,.69-.4l-.4-.686a.4.4,0,1,0-.69.4Z" transform="translate(-17.236 -1.616)"/>
        <path id="패스_203301" data-name="패스 203301" class="cls-8" d="M21.431,10.739l.686.4a.4.4,0,1,0,.4-.69l-.686-.4a.4.4,0,0,0-.4.69" transform="translate(-12.817 -6.035)"/>
        <path id="패스_203302" data-name="패스 203302" class="cls-8" d="M56.081,29.826l-.254-.147a.4.4,0,1,0-.4.69l.254.147a.4.4,0,0,0,.4-.69" transform="translate(-33.341 -17.885)"/>
        <path id="패스_203303" data-name="패스 203303" class="cls-8" d="M57.744,20h-.793a.4.4,0,0,0,0,.793h.793a.4.4,0,1,0,0-.793" transform="translate(-34.14 -12.073)"/>
        <path id="패스_203304" data-name="패스 203304" class="cls-8" d="M55.423,10.739a.4.4,0,0,0-.4-.69l-.686.4a.4.4,0,1,0,.4.69Z" transform="translate(-32.683 -6.035)"/>
        <path id="패스_203305" data-name="패스 203305" class="cls-8" d="M47.75,4.1a.4.4,0,0,0,.542-.144v0l.4-.686a.4.4,0,0,0-.69-.4l-.4.686a.4.4,0,0,0,.144.542h0" transform="translate(-28.704 -1.616)"/>
        <path id="패스_203306" data-name="패스 203306" class="cls-8" d="M16.47,19.167a5.153,5.153,0,0,0-8.68-1.359,5.837,5.837,0,0,0-1.625-.226,5.949,5.949,0,0,0-.432,11.89h.828a.4.4,0,1,0,0-.793H5.8a5.156,5.156,0,1,1,.369-10.3,5.02,5.02,0,0,1,1.637.27.4.4,0,0,0,.444-.135A4.36,4.36,0,0,1,15.828,19.7a.4.4,0,0,0,.4.266l.246,0a4.36,4.36,0,0,1,0,8.719H8.147a.4.4,0,1,0,0,.793H16.47a5.152,5.152,0,0,0,0-10.3" transform="translate(0 -9.655)"/>
      </g>
    </g>
  </g>
</svg>
