<svg xmlns="http://www.w3.org/2000/svg" width="44.918" height="16" viewBox="0 0 44.918 16">
  <defs>
    <style>
      .cls-1 {
        fill: #333;
        font-size: 13px;
        font-family: Pretendard-Bold, Pretendard;
        font-weight: 700;
      }

      .cls-2 {
        fill: #fff;
      }

      .cls-3 {
        fill: #cecece;
      }

      .cls-4 {
        fill: #e6e6e6;
      }

      .cls-5, .cls-6 {
        stroke: none;
      }

      .cls-6 {
        fill: #707070;
      }
    </style>
  </defs>
  <g id="그룹_124467" data-name="그룹 124467" transform="translate(-231.191 -16)">
    <text id="제품" class="cls-1" transform="translate(253.109 29)"><tspan x="0" y="0">제품</tspan></text>
    <g id="ic_product" transform="translate(171.082 -145.565)">
      <g id="패스_203199" data-name="패스 203199" class="cls-2" transform="translate(60.109 155)">
        <path class="cls-5" d="M 8.459212303161621 22.02642250061035 L 0.4999975264072418 18.84274482727051 L 0.4999975264072418 10.71679019927979 L 8.114482879638672 7.538573265075684 L 16.41841697692871 10.72727870941162 L 16.41841697692871 18.84274101257324 L 8.459212303161621 22.02642250061035 Z"/>
        <path class="cls-6" d="M 8.122228622436523 8.077144622802734 L 0.9999971389770508 11.04990005493164 L 0.9999971389770508 18.50422286987305 L 8.459217071533203 21.4879035949707 L 15.91841793060303 18.50422477722168 L 15.91841793060303 11.07087707519531 L 8.122228622436523 8.077144622802734 M 8.10673713684082 7 L 16.91841697692871 10.38368034362793 L 16.91841697692871 19.18126106262207 L 8.459217071533203 22.56494140625 L -1.9073486328125e-06 19.18126106262207 L -1.9073486328125e-06 10.38368034362793 L 8.10673713684082 7 Z"/>
      </g>
      <path id="패스_203200" data-name="패스 203200" class="cls-3" d="M1.474-.457l7.5-2.831V4.122L1.474,7.2Z" transform="translate(67.077 169.373)"/>
      <path id="패스_203201" data-name="패스 203201" class="cls-4" d="M8.949-.494,1.474-3.288V4.267l7.475,2.98Z" transform="translate(59.62 169.373)"/>
    </g>
  </g>
</svg>
