<svg xmlns="http://www.w3.org/2000/svg" width="20" height="20" viewBox="0 0 20 20">
    <g data-name="ic_배">
        <g data-name="패스 203349" style="fill:#fff">
            <path d="M13.814 4.5H1c-.186 0-.375-.052-.5-.411V-.167c0-.053.005-.23.065-.27C.61-.466.721-.5 1-.5h11.028l.124-.316.271-.684H15c.25 0 .436.127.487.262l-1.711 3.984-.09.207.097.204.48 1.013c-.16.301-.304.33-.449.33z" style="stroke:none" transform="translate(2 13)"/>
            <path d="m12.763-1-.396 1H1v3.991A.377.377 0 0 0 1.005 4h12.624l-.49-1.037L14.84-1h-2.077m-.68-1H15c.552 0 1 .373 1 .833l-1.765 4.11.58 1.224c-.183.446-.449.833-1 .833H1c-.552 0-.855-.346-1-.833V-.167C0-.894.448-1 1-1h10.688l.396-1z" style="fill:#333;stroke:none" transform="translate(2 13)"/>
        </g>
        <g data-name="패스 203350" style="fill:#fff">
            <path d="M.51 7.5a.43.43 0 0 1-.018-.001 1.11 1.11 0 0 1 .004-.218l.005-.033V1.7c0-.111.043-.179.065-.2h2.15c.022.021.065.089.065.2v.016l.19 5.78H.548L.529 7.5a.36.36 0 0 1-.02 0z" style="stroke:none" transform="translate(10.647 5.003)"/>
            <path d="M1.001 2v4.996h1.454L2.29 2H1.001M.548 1h2.186c.302 0 .547.313.547.7l.207 6.296H.581s-.35.039-.496-.157c-.145-.196-.084-.626-.084-.626V1.7c0-.387.245-.7.547-.7z" style="fill:#333;stroke:none" transform="translate(10.647 5.003)"/>
        </g>
        <path data-name="패스 203351" d="M0 .3h2.41l.209-.373H0z" transform="translate(11.685 8.073)" style="stroke:#333;fill:#333"/>
        <path data-name="합치기 65" d="M3375.609 10942h-11v-2h12.635l-.334.6.7 1.4z" transform="translate(-3361.609 -10925)" style="fill:#2565d6"/>
        <g data-name="사각형 151008" transform="translate(3 10)" style="fill:#ffe32d;stroke:#333">
            <rect width="4" height="3" rx=".5" style="stroke:none"/>
            <path style="fill:none" d="M.5.5h3v2h-3z"/>
        </g>
        <g data-name="사각형 151009" transform="translate(6 10)" style="stroke:#333;fill:#fff">
            <rect width="4" height="3" rx=".5" style="stroke:none"/>
            <path style="fill:none" d="M.5.5h3v2h-3z"/>
        </g>
        <g data-name="사각형 151010" transform="translate(6 8)" style="fill:#ffe32d;stroke:#333">
            <rect width="4" height="3" rx=".5" style="stroke:none"/>
            <path style="fill:none" d="M.5.5h3v2h-3z"/>
        </g>
    </g>
</svg>
