<svg xmlns="http://www.w3.org/2000/svg" xmlns:xlink="http://www.w3.org/1999/xlink" width="24" height="24" viewBox="0 0 24 24">
  <defs>
    <style>
      .cls-1 {
        fill: none;
      }

      .cls-2 {
        fill: #fff;
        opacity: 0;
      }

      .cls-3 {
        clip-path: url(#clip-path);
      }

      .cls-4 {
        fill: #f9d53d;
      }

      .cls-5 {
        fill: #f7b43e;
      }

      .cls-6 {
        fill: #1a1a1a;
      }

      .cls-7 {
        fill: gray;
      }

      .cls-8 {
        fill: #666;
      }
    </style>
    <clipPath id="clip-path">
      <rect id="사각형_151002" data-name="사각형 151002" class="cls-1" width="24" height="21.406" transform="translate(0 0)"/>
    </clipPath>
  </defs>
  <g id="Icon_Weather_Small_야간_구름조금" transform="translate(-36 -1)">
    <rect id="사각형_150998" data-name="사각형 150998" class="cls-2" width="24" height="24" transform="translate(36 1)"/>
    <g id="그룹_124534" data-name="그룹 124534" transform="translate(36 1.41)">
      <g id="그룹_124533" data-name="그룹 124533" class="cls-3" transform="translate(0 0)">
        <path id="패스_203314" data-name="패스 203314" class="cls-4" d="M37.572,8.286A6.815,6.815,0,0,1,30.757,1.47,6.725,6.725,0,0,1,30.916.024a6.815,6.815,0,1,0,8.1,8.1,6.725,6.725,0,0,1-1.446.158" transform="translate(-15.421 -0.014)"/>
        <path id="패스_203315" data-name="패스 203315" class="cls-5" d="M34.784,12.326a6.807,6.807,0,0,1-5.856-10.3,6.811,6.811,0,1,0,9.343,9.343,6.765,6.765,0,0,1-3.487.959" transform="translate(-15.466 -1.222)"/>
        <path id="패스_203316" data-name="패스 203316" class="cls-6" d="M38.7,8.227a.4.4,0,0,0-.368-.107,6.3,6.3,0,0,1-1.359.151,6.427,6.427,0,0,1-6.419-6.419A6.335,6.335,0,0,1,30.709.489.4.4,0,0,0,30.237.01a7.168,7.168,0,0,0-5.682,6.926.4.4,0,1,0,.792,0A6.371,6.371,0,0,1,29.825.945a6.947,6.947,0,0,0-.059.907,7.216,7.216,0,0,0,7.211,7.211A6.891,6.891,0,0,0,37.88,9a6.458,6.458,0,0,1-1.946,2.936.4.4,0,0,0,.507.6A7.274,7.274,0,0,0,38.819,8.58a.4.4,0,0,0-.115-.353" transform="translate(-14.825 0)"/>
        <path id="패스_203317" data-name="패스 203317" class="cls-7" d="M16.828,23.189H17.1a4.755,4.755,0,0,1,0,9.51H6.4a5.551,5.551,0,1,1,.4-11.095,5.413,5.413,0,0,1,1.763.289,4.755,4.755,0,0,1,8.269,1.3" transform="translate(-0.631 -12.084)"/>
        <path id="패스_203318" data-name="패스 203318" class="cls-8" d="M19.749,33.689H9.051a5.547,5.547,0,0,1-4.529-8.1A5.547,5.547,0,0,0,6.674,36.067h10.7a4.755,4.755,0,0,0,4.331-2.8,4.726,4.726,0,0,1-1.953.424" transform="translate(-0.906 -15.453)"/>
        <path id="패스_203319" data-name="패스 203319" class="cls-6" d="M16.466,23.19a5.151,5.151,0,0,0-8.678-1.359,5.835,5.835,0,0,0-1.625-.226,5.947,5.947,0,1,0-.432,11.887H7.352a.4.4,0,1,0,0-.792H5.795a5.154,5.154,0,0,1,.368-10.3,5.019,5.019,0,0,1,1.636.269.4.4,0,0,0,.44-.135,4.359,4.359,0,0,1,7.584,1.189.4.4,0,0,0,.4.265l.246,0a4.359,4.359,0,0,1,0,8.717H8.937a.4.4,0,1,0,0,.792h7.528a5.151,5.151,0,1,0,0-10.3" transform="translate(0 -12.086)"/>
      </g>
    </g>
  </g>
</svg>
