<svg id="ic_info" xmlns="http://www.w3.org/2000/svg" width="20" height="20" viewBox="0 0 20 20">
  <defs>
    <style>
      .cls-1 {
        fill: #ff5964;
        opacity: 0;
      }

      .cls-2 {
        fill: #061237;
      }

      .cls-3 {
        fill: #c0c6d1;
      }
    </style>
  </defs>
  <rect id="area" class="cls-1" width="20" height="20"/>
  <path id="패스_116" data-name="패스 116" class="cls-2" d="M8.948,10.631l-.442-.323a7.913,7.913,0,0,1,1.969-1.283,3.529,3.529,0,0,1,1.482-.336.887.887,0,0,1,.5.15.392.392,0,0,1,.16.345,14.439,14.439,0,0,1-.787,2.136,18.983,18.983,0,0,0-1.295,3.72.3.3,0,0,0,.062.211.208.208,0,0,0,.152.092,5.058,5.058,0,0,0,1.764-1.006l.389.356a13.364,13.364,0,0,1-2.158,1.349,2.623,2.623,0,0,1-1.088.262.831.831,0,0,1-.568-.223.692.692,0,0,1-.185-.55,23.3,23.3,0,0,1,1.839-5.312,1.1,1.1,0,0,0,.092-.358c.006-.117-.054-.18-.178-.186a1.036,1.036,0,0,0-.482.117,10.431,10.431,0,0,0-1.228.839" transform="translate(-1.006 -1.058)"/>
  <path id="패스_117" data-name="패스 117" class="cls-2" d="M13.737,4.677a.819.819,0,0,1,.638.16.866.866,0,0,1,.322.59,1.337,1.337,0,0,1-.235.968A1.089,1.089,0,0,1,13.7,6.9a.792.792,0,0,1-.626-.167.913.913,0,0,1-.327-.619,1.3,1.3,0,0,1,.22-.953,1.086,1.086,0,0,1,.766-.485" transform="translate(-2.209 0.085)"/>
  <path id="패스_118" data-name="패스 118" class="cls-3" d="M8.875,17.75A8.875,8.875,0,1,1,17.75,8.875,8.885,8.885,0,0,1,8.875,17.75m0-16.25A7.375,7.375,0,1,0,16.25,8.875,7.383,7.383,0,0,0,8.875,1.5" transform="translate(1.125 1.125)"/>
</svg>
