<svg id="ic_star" xmlns="http://www.w3.org/2000/svg" width="20" height="20" viewBox="0 0 20 20">
  <defs>
    <style>
      .cls-1 {
        fill: #333;
        opacity: 0;
      }

      .cls-2 {
        fill: none;
      }

      .cls-3, .cls-4 {
        stroke: none;
      }

      .cls-4 {
        fill: #8590a6;
      }
    </style>
  </defs>
  <rect id="area" class="cls-1" width="20" height="20"/>
  <g id="star" class="cls-2" transform="translate(2 2.3)">
    <path class="cls-3" d="M15.893,6.162l-3.69,3.6.871,5.079a.354.354,0,0,1-.513.373L8,12.812l-4.561,2.4a.354.354,0,0,1-.513-.373L3.8,9.759l-3.69-3.6a.354.354,0,0,1,.2-.6l5.1-.741L7.683.2a.354.354,0,0,1,.634,0L10.6,4.818l5.1.741A.354.354,0,0,1,15.893,6.162Z"/>
    <path class="cls-4" d="M 8.000001907348633 1.814262390136719 L 6.066530227661133 5.731904983520508 L 1.743143081665039 6.36012077331543 L 4.871569633483887 9.409584045410156 L 4.133052825927734 13.71549510955811 L 8 11.68251419067383 L 11.86694431304932 13.71549320220947 L 11.1284294128418 9.409584045410156 L 14.25684547424316 6.360125541687012 L 9.933469772338867 5.731904983520508 L 8.000001907348633 1.814262390136719 M 8 -2.86102294921875e-06 C 8.126094818115234 -2.86102294921875e-06 8.252189636230469 0.06569004058837891 8.31702995300293 0.1970748901367188 L 10.5975399017334 4.81789493560791 L 15.69692039489746 5.55887508392334 C 15.98688983917236 5.601015090942383 16.10268020629883 5.957365036010742 15.89284992218018 6.161894798278809 L 12.20290946960449 9.758705139160156 L 13.0739803314209 14.83747482299805 C 13.12351989746094 15.1262845993042 12.82038116455078 15.34652519226074 12.56101989746094 15.21016502380371 L 8 12.81229496002197 L 3.438980102539062 15.21016502380371 C 3.179622650146484 15.34652423858643 2.876479148864746 15.1262845993042 2.926019668579102 14.83747482299805 L 3.797089576721191 9.758705139160156 L 0.1071500778198242 6.161904335021973 C -0.1026802062988281 5.957365036010742 0.01311016082763672 5.601015090942383 0.3030796051025391 5.55887508392334 L 5.402460098266602 4.81789493560791 L 7.68297004699707 0.1970748901367188 C 7.747810363769531 0.06569004058837891 7.873905181884766 -2.86102294921875e-06 8 -2.86102294921875e-06 Z"/>
  </g>
</svg>
