<svg xmlns="http://www.w3.org/2000/svg" xmlns:xlink="http://www.w3.org/1999/xlink" width="140" height="140" viewBox="0 0 140 140">
  <defs>
    <style>
      .cls-1 {
        fill: none;
      }

      .cls-2 {
        fill: #fff;
        opacity: 0;
      }

      .cls-3 {
        clip-path: url(#clip-path);
      }

      .cls-4 {
        fill: #1a1a1a;
      }
    </style>
    <clipPath id="clip-path">
      <rect id="사각형_150996" data-name="사각형 150996" class="cls-1" width="120" height="118.949" transform="translate(0 0)"/>
    </clipPath>
  </defs>
  <g id="icon_눈_Big" transform="translate(-1060 -526)">
    <rect id="사각형_150989" data-name="사각형 150989" class="cls-2" width="140" height="140" transform="translate(1060 526)"/>
    <g id="그룹_124523" data-name="그룹 124523" transform="translate(1070 537)">
      <g id="그룹_124522" data-name="그룹 124522" class="cls-3">
        <path id="패스_203280" data-name="패스 203280" class="cls-4" d="M65.644,96.554l-5.427-2.612,2.734-5.082a2.025,2.025,0,0,0-3.559-1.932l0,.008-3.341,6.216-9.5,2.815V86.734l5.183-4.9a2.027,2.027,0,1,0-2.774-2.957l-4.434,4.192-4.434-4.192a2.027,2.027,0,0,0-2.774,2.957l5.183,4.9v9.233L33,93.051l-3.341-6.216a2.025,2.025,0,0,0-2.745-.815l-.009.005a2.024,2.024,0,0,0-.81,2.733l2.734,5.083-5.427,2.713a2.025,2.025,0,0,0,.871,3.847,1.908,1.908,0,0,0,.871-.2l6.621-3.179,9.375,2.875-5.71,7.431-7.33,1.093a2.026,2.026,0,0,0-1.7,2.3v0a2.025,2.025,0,0,0,2.025,1.721h.3l6.074-.911.972,5.73a2.025,2.025,0,0,0,2.025,1.681h.344a2.025,2.025,0,0,0,1.663-2.331l0-.018-1.134-6.824,5.852-7.735,5.832,7.593-1.134,6.824a2.025,2.025,0,0,0,1.619,2.362l.041.007h.344a2.024,2.024,0,0,0,2.025-1.681l.972-5.73,6.074.911h.426a1.962,1.962,0,0,0,.329-3.907h-.005l-7.33-1.093-5.811-7.532,9.374-2.876L63.9,100.1a1.9,1.9,0,0,0,.87.2,2.025,2.025,0,0,0,.871-3.847Z"/>
        <path id="패스_203281" data-name="패스 203281" class="cls-4" d="M118.885,78.572l-3.2-1.721,1.66-3.422a2.025,2.025,0,0,0-3.645-1.762l-2.024,4.414-5.791,2.025V71.445l3.341-3.5a2.027,2.027,0,0,0-2.936-2.795L103.76,67.7l-2.43-2.552a2.027,2.027,0,0,0-2.936,2.795l3.341,3.5v6.6l-5.791-2.025-2.025-4.414a2.025,2.025,0,0,0-3.645,1.761l1.661,3.422-3.2,1.721a2.025,2.025,0,0,0,1.659,3.695,2.136,2.136,0,0,0,.245-.131l4.049-2.207,5.913,2.025-3.726,5.386-4.6.769A2.031,2.031,0,0,0,92.6,92.1h.344l3.4-.567.567,3.685a2.024,2.024,0,0,0,2.025,1.721h.3a2.025,2.025,0,0,0,1.7-2.3v-.005l-.749-4.921,3.564-5.264,3.6,5.224-.749,4.92a2.024,2.024,0,0,0,1.672,2.324l.028,0h.3a2.025,2.025,0,0,0,2.025-1.721l.567-3.685,3.4.567h.344a2.031,2.031,0,0,0,.324-4.05l-4.6-.77-3.745-5.325,5.912-2.025,4.05,2.207a2.024,2.024,0,1,0,2.148-3.432,1.921,1.921,0,0,0-.245-.131Z"/>
        <path id="패스_203282" data-name="패스 203282" class="cls-4" d="M72.254,30.356,63.216,26l4.553-8.465a3.373,3.373,0,0,0-5.928-3.218l-.008.015L56.268,24.69,40.451,29.378V14l8.634-8.161A3.376,3.376,0,1,0,44.465.914L37.079,7.895,29.693.914a3.376,3.376,0,1,0-4.62,4.924L33.706,14V29.378L17.889,24.522,12.325,14.168a3.374,3.374,0,0,0-4.573-1.357l-.014.008a3.372,3.372,0,0,0-1.349,4.553l4.553,8.465L1.9,30.356a3.373,3.373,0,0,0,1.451,6.408,3.187,3.187,0,0,0,1.45-.337l11.028-5.295,15.615,4.789L21.936,48.3,9.728,50.119a3.374,3.374,0,0,0-2.835,3.836l0,.009a3.373,3.373,0,0,0,3.372,2.866h.506l10.118-1.517,1.619,9.544a3.372,3.372,0,0,0,3.372,2.8h.573a3.373,3.373,0,0,0,2.771-3.882l0-.03L27.332,52.378l9.747-12.883,9.713,12.647L44.9,63.508a3.373,3.373,0,0,0,2.7,3.934l.068.012h.574a3.373,3.373,0,0,0,3.372-2.8l1.619-9.544,10.118,1.518h.708a3.268,3.268,0,0,0,.548-6.508H64.6L52.39,48.3,42.711,35.752l15.615-4.789,11.028,5.3a3.171,3.171,0,0,0,1.45.337,3.373,3.373,0,0,0,1.45-6.408Z"/>
      </g>
    </g>
  </g>
</svg>
