<svg xmlns="http://www.w3.org/2000/svg" width="26" height="26" viewBox="0 0 26 26">
  <defs>
    <style>
      .cls-1, .cls-3 {
        fill: #fff;
      }

      .cls-1 {
        opacity: 0;
      }

      .cls-2 {
        fill: #b6b6b6;
      }

      .cls-3 {
        stroke: #9c9c9c;
      }

      .cls-4 {
        fill: #e8e8e8;
      }

      .cls-5 {
        stroke: none;
      }

      .cls-6 {
        fill: none;
      }
    </style>
  </defs>
  <g id="Img_default_02" transform="translate(-202 -52.913)">
    <rect id="사각형_150781" data-name="사각형 150781" class="cls-1" width="26" height="26" transform="translate(202 52.913)"/>
    <path id="패스_203195" data-name="패스 203195" class="cls-2" d="M2,0H5.621l.135-.224.965-1.6h4.515L12.481,0H16a2,2,0,0,1,2,2v8a2,2,0,0,1-2,2H2a2,2,0,0,1-2-2V2A2,2,0,0,1,2,0Z" transform="translate(206 60.826)"/>
    <g id="타원_2908" data-name="타원 2908" class="cls-3" transform="translate(211 63)">
      <circle class="cls-5" cx="4" cy="4" r="4"/>
      <circle class="cls-6" cx="4" cy="4" r="3.5"/>
    </g>
    <g id="타원_2909" data-name="타원 2909" class="cls-3" transform="translate(219 67)">
      <circle class="cls-5" cx="1.5" cy="1.5" r="1.5"/>
      <circle class="cls-6" cx="1.5" cy="1.5" r="1"/>
    </g>
    <path id="다각형_28" data-name="다각형 28" class="cls-4" d="M3,0l.735,2.265L6,3l-2.265.735L3,6,2.265,3.735,0,3l2.265-.735Z" transform="translate(221 53)"/>
  </g>
</svg>
