<svg xmlns="http://www.w3.org/2000/svg" width="20" height="20" viewBox="0 0 20 20">
  <defs>
    <style>
      .cls-1 {
        fill: red;
        opacity: 0;
      }

      .cls-2 {
        fill: #fff;
        stroke: #333;
      }

      .cls-3 {
        fill: #2565d6;
      }

      .cls-4 {
        fill: #333;
      }

      .cls-5 {
        fill: #ffeb3b;
        stroke: rgba(0,0,0,0);
        stroke-miterlimit: 10;
      }

      .cls-6 {
        stroke: none;
      }

      .cls-7 {
        fill: none;
      }
    </style>
  </defs>
  <g id="ic_결재진행" transform="translate(-422 -588)">
    <rect id="사각형_150909" data-name="사각형 150909" class="cls-1" width="20" height="20" transform="translate(422 588)"/>
    <g id="그룹_124502" data-name="그룹 124502" transform="translate(-2 2)">
      <g id="사각형_150930" data-name="사각형 150930" class="cls-2" transform="translate(439 589) rotate(90)">
        <rect class="cls-6" width="12" height="10" rx="1"/>
        <rect class="cls-7" x="0.5" y="0.5" width="11" height="9" rx="0.5"/>
      </g>
      <g id="사각형_150910" data-name="사각형 150910" class="cls-2" transform="translate(436.5 591.5) rotate(90)">
        <rect class="cls-6" width="12" height="10" rx="1"/>
        <rect class="cls-7" x="0.5" y="0.5" width="11" height="9" rx="0.5"/>
      </g>
      <rect id="사각형_150913" data-name="사각형 150913" class="cls-3" width="5" height="1" transform="translate(434.328 595.25) rotate(135)"/>
      <rect id="사각형_150915" data-name="사각형 150915" class="cls-4" width="3" height="1" transform="translate(429.379 595.957) rotate(45)"/>
      <rect id="사각형_150947" data-name="사각형 150947" class="cls-3" width="5" height="1" transform="translate(433.707 601.121) rotate(180)"/>
    </g>
    <g id="확인" transform="translate(-5704.957 5341.5) rotate(-90)">
      <g id="down" transform="translate(0.5)">
        <circle id="타원_2826" data-name="타원 2826" class="cls-4" cx="4" cy="4" r="4" transform="translate(4735 6136.457)"/>
        <g id="그룹_123997" data-name="그룹 123997" transform="translate(4736.171 6136.086)">
          <rect id="사각형_149854" data-name="사각형 149854" class="cls-5" width="1" height="4" transform="translate(2.316 2)"/>
          <rect id="사각형_149855" data-name="사각형 149855" class="cls-5" width="1" height="3.415" transform="translate(2.829 6.742) rotate(-135)"/>
          <rect id="사각형_149856" data-name="사각형 149856" class="cls-5" width="1" height="3.438" transform="translate(3.536 6.035) rotate(135)"/>
        </g>
      </g>
    </g>
  </g>
</svg>
