<svg id="ic_Option" xmlns="http://www.w3.org/2000/svg" width="16" height="16" viewBox="0 0 16 16">
  <defs>
    <style>
      .cls-1 {
        fill: #ff5964;
        opacity: 0;
      }

      .cls-2, .cls-3, .cls-6 {
        fill: none;
      }

      .cls-3 {
        stroke: #474747;
      }

      .cls-4, .cls-5 {
        stroke: none;
      }

      .cls-5 {
        fill: #474747;
      }
    </style>
  </defs>
  <rect id="area" class="cls-1" width="16" height="16"/>
  <g id="패스_2475" data-name="패스 2475" class="cls-2" transform="translate(2.998 3)">
    <path class="cls-4" d="M8.809,5.5A4.4,4.4,0,0,0,8.844,5a4.709,4.709,0,0,0-.035-.5L9.9,3.681a.254.254,0,0,0,.07-.325L8.95,1.627a.258.258,0,0,0-.317-.1l-1.286.5a4.309,4.309,0,0,0-.863-.5L6.29.205A.245.245,0,0,0,6.043,0H3.965a.245.245,0,0,0-.247.205L3.525,1.524a3.306,3.306,0,0,0-.863.5l-1.286-.5a.258.258,0,0,0-.317.1L.037,3.356a.243.243,0,0,0,.07.325L1.2,4.5a4.4,4.4,0,0,0-.035.5,4.7,4.7,0,0,0,.035.5L.107,6.318a.254.254,0,0,0-.07.325L1.059,8.373a.251.251,0,0,0,.317.1l1.286-.5a4.31,4.31,0,0,0,.863.5l.194,1.318A.245.245,0,0,0,3.965,10H6.026a.245.245,0,0,0,.247-.205l.194-1.318a3.305,3.305,0,0,0,.863-.5l1.286.5a.258.258,0,0,0,.317-.1L9.954,6.644a.262.262,0,0,0-.07-.325Z"/>
    <path class="cls-5" d="M 5.378489017486572 8.999983787536621 L 5.562373638153076 7.748643398284912 L 6.112613677978516 7.540633201599121 C 6.311693668365479 7.465373516082764 6.508863925933838 7.350703239440918 6.715413570404053 7.190073490142822 L 7.161913871765137 6.842813491821289 L 8.393842697143555 7.318569660186768 L 8.752090454101562 6.712119102478027 L 7.751063823699951 5.946383476257324 L 7.815393924713135 5.383103370666504 C 7.829303741455078 5.261263370513916 7.844153881072998 5.121133327484131 7.844153881072998 4.999993324279785 C 7.844153881072998 4.894973278045654 7.832933902740479 4.786753177642822 7.818733692169189 4.649743556976318 L 7.756443977355957 4.043993473052979 L 8.767037391662598 3.283390760421753 L 8.411440849304199 2.681430816650391 L 7.179513931274414 3.157163381576538 L 6.73301362991333 2.809923410415649 C 6.534063816070557 2.655193328857422 6.285133838653564 2.532743215560913 6.067873954772949 2.433373212814331 L 5.573483943939209 2.2072434425354 L 5.396088600158691 1.000003337860107 L 4.612361907958984 1.000003337860107 L 4.428473949432373 2.251363277435303 L 3.878233909606934 2.459373235702515 C 3.679163694381714 2.53463339805603 3.481973886489868 2.649303436279297 3.275403738021851 2.809943437576294 L 2.828913688659668 3.157153367996216 L 1.597015380859375 2.681434154510498 L 1.241428732872009 3.283389329910278 L 2.258063793182373 4.04853343963623 L 2.193063735961914 4.6170334815979 C 2.179143905639648 4.738753318786621 2.164293766021729 4.878773212432861 2.164293766021729 4.999993324279785 C 2.164293766021729 5.105123519897461 2.175533771514893 5.213443279266357 2.189763784408569 5.350573539733887 L 2.252083778381348 5.955973148345947 L 1.241426944732666 6.716610908508301 L 1.597015380859375 7.318565845489502 L 2.828933715820312 6.842813491821289 L 3.275433778762817 7.190073490142822 C 3.474313735961914 7.344743251800537 3.72330379486084 7.467243194580078 3.940643787384033 7.566663265228271 L 4.434963703155518 7.792813301086426 L 4.612360000610352 8.999983787536621 L 5.378489017486572 8.999983787536621 M 6.025863647460938 9.999983787536621 L 3.964993715286255 9.999983787536621 C 3.841693878173828 9.999983787536621 3.735983848571777 9.914382934570312 3.7183837890625 9.794513702392578 L 3.524623870849609 8.47602367401123 C 3.225183725357056 8.339033126831055 2.925743818283081 8.184933662414551 2.661523818969727 7.979443550109863 L 1.375673770904541 8.47602367401123 C 1.252373456954956 8.527393341064453 1.111453771591187 8.476022720336914 1.058613777160645 8.373283386230469 L 0.03699379414319992 6.643843173980713 C -0.01584620587527752 6.52397346496582 0.001753793796524405 6.386983394622803 0.1074537932872772 6.318483352661133 L 1.199533820152283 5.496573448181152 C 1.18191385269165 5.325343132019043 1.164293766021729 5.171243190765381 1.164293766021729 4.999993324279785 C 1.164293766021729 4.828763484954834 1.18191385269165 4.657533168792725 1.199533820152283 4.503433227539062 L 0.1074537932872772 3.681503295898438 C 0.001753793796524405 3.595893383026123 -0.03346620500087738 3.458903312683105 0.03699379414319992 3.356163263320923 L 1.058613777160645 1.626713275909424 C 1.129073858261108 1.523983359336853 1.252373814582825 1.472613096237183 1.375673770904541 1.523983359336853 L 2.661523818969727 2.020543336868286 C 2.925743818283081 1.815073370933533 3.207563877105713 1.643843293190002 3.524623870849609 1.523983359336853 L 3.7183837890625 0.2054933309555054 C 3.735983848571777 0.08562332391738892 3.841693878173828 3.324279759908677e-06 3.964993715286255 3.324279759908677e-06 L 6.043483734130859 3.324279759908677e-06 C 6.166783809661865 3.324279759908677e-06 6.272463798522949 0.08562332391738892 6.290083885192871 0.2054933309555054 L 6.483823776245117 1.523983359336853 C 6.783283710479736 1.660953283309937 7.082723617553711 1.815073370933533 7.346923828125 2.020543336868286 L 8.632773399353027 1.523983359336853 C 8.756075859069824 1.472613453865051 8.879373550415039 1.523982882499695 8.949833869934082 1.626713275909424 L 9.971473693847656 3.356163263320923 C 10.02432346343994 3.476033210754395 10.00670337677002 3.613023281097412 9.901013374328613 3.681503295898438 L 8.808934211730957 4.503433227539062 C 8.826533317565918 4.674663543701172 8.84415340423584 4.828763484954834 8.84415340423584 4.999993324279785 C 8.84415340423584 5.171243190765381 8.826533317565918 5.34247350692749 8.808934211730957 5.496573448181152 L 9.883403778076172 6.318483352661133 C 9.989073753356934 6.404113292694092 10.00670337677002 6.541103363037109 9.953864097595215 6.643843173980713 L 8.932233810424805 8.373283386230469 C 8.861774444580078 8.47602367401123 8.73847484588623 8.527393341064453 8.61517333984375 8.47602367401123 L 7.329323768615723 7.979443550109863 C 7.065104007720947 8.184933662414551 6.783283710479736 8.356163024902344 6.46622371673584 8.47602367401123 L 6.272463798522949 9.794513702392578 C 6.254843711853027 9.914382934570312 6.149163722991943 9.999983787536621 6.025863647460938 9.999983787536621 Z"/>
  </g>
  <g id="타원_2628" data-name="타원 2628" class="cls-3" transform="translate(6 6)">
    <circle class="cls-4" cx="2" cy="2" r="2"/>
    <circle class="cls-6" cx="2" cy="2" r="1.5"/>
  </g>
</svg>
