<svg id="Btn_Language" xmlns="http://www.w3.org/2000/svg" xmlns:xlink="http://www.w3.org/1999/xlink" width="36" height="36" viewBox="0 0 36 36">
  <defs>
    <style>
      .cls-1, .cls-4 {
        fill: #fff;
      }

      .cls-1 {
        opacity: 0;
      }

      .cls-2 {
        fill: #88a1be;
      }

      .cls-3 {
        fill: #002c5f;
        font-size: 8px;
        font-family: AppleSDGothicNeo-ExtraBold, Apple SD Gothic Neo;
      }

      .cls-3, .cls-5 {
        font-weight: 800;
        letter-spacing: 0.01em;
      }

      .cls-5 {
        fill: #a2bbd9;
        font-size: 10px;
        font-family: Pretendard-Black, Pretendard;
      }

      .cls-6 {
        filter: url(#A);
      }
    </style>
    <filter id="A" x="10.25" y="11.75" width="9.5" height="13.5" filterUnits="userSpaceOnUse">
      <feOffset dy="0.5" input="SourceAlpha"/>
      <feGaussianBlur stdDeviation="0.25" result="blur"/>
      <feFlood flood-opacity="0.161"/>
      <feComposite operator="in" in2="blur"/>
      <feComposite in="SourceGraphic"/>
    </filter>
  </defs>
  <rect id="Area_Btn" class="cls-1" width="36" height="36"/>
  <path id="합치기_5" data-name="합치기 5" class="cls-2" d="M-229.255-48.985a6.05,6.05,0,0,1-5.745-6A6.057,6.057,0,0,1-228.9-61a6.056,6.056,0,0,1,6.1,6.013,6.025,6.025,0,0,1-4.281,5.74l-2.322,1.486Z" transform="translate(252.45 68.07)"/>
  <text id="文" class="cls-3" transform="translate(23.45 16)"><tspan x="-3.46" y="0">文</tspan></text>
  <path id="합치기_6" data-name="합치기 6" class="cls-4" d="M8.1,1.686A8.424,8.424,0,0,0,0,9.955a8.446,8.446,0,0,0,8.6,8.284,8.446,8.446,0,0,0,8.6-8.284,8.328,8.328,0,0,0-6.035-7.908L7.891,0Z" transform="translate(23.55 28.93) rotate(180)"/>
  <g class="cls-6" transform="matrix(1, 0, 0, 1, 0, 0)">
    <text id="A-2" data-name="A" class="cls-5" transform="translate(15 22)"><tspan x="-3.83" y="0">A</tspan></text>
  </g>
</svg>
