<svg xmlns="http://www.w3.org/2000/svg" width="30" height="30" viewBox="0 0 30 30">
  <g id="Icon" transform="translate(4 3.619)">
    <rect id="bg_icon" width="30" height="30" transform="translate(-4 -3.619)" fill="#fff" opacity="0"/>
    <path id="패스_203421" data-name="패스 203421" d="M14.213,9A4.713,4.713,0,1,1,9.5,4.287,4.713,4.713,0,0,1,14.213,9" fill="#fff"/>
    <path id="패스_203422" data-name="패스 203422" d="M9.5,5.287A3.712,3.712,0,1,1,5.787,9,3.718,3.718,0,0,1,9.5,5.287m0-1A4.712,4.712,0,1,0,14.213,9,4.714,4.714,0,0,0,9.5,4.287"/>
    <path id="패스_203423" data-name="패스 203423" d="M12.446,6.037H6.555L7.548.952A1.177,1.177,0,0,1,8.7,0H10.3a1.178,1.178,0,0,1,1.157.952Z" fill="#333"/>
    <path id="패스_203424" data-name="패스 203424" d="M12.833,5.668a4.713,4.713,0,1,1-6.665,0,4.714,4.714,0,0,1,6.665,0" fill="#fff"/>
    <path id="패스_203425" data-name="패스 203425" d="M9.5,5.287A3.713,3.713,0,1,1,6.875,6.374,3.687,3.687,0,0,1,9.5,5.287m0-1a4.712,4.712,0,1,0,3.332,1.38A4.7,4.7,0,0,0,9.5,4.287"/>
    <path id="패스_203426" data-name="패스 203426" d="M9.488,4.822,5.323,8.987,2.429,4.69A1.177,1.177,0,0,1,2.573,3.2L3.7,2.072a1.178,1.178,0,0,1,1.491-.144Z" fill="#64acf4"/>
    <path id="패스_203427" data-name="패스 203427" d="M5.246,9.771l-3.233-4.8A1.683,1.683,0,0,1,2.22,2.845L3.346,1.719A1.682,1.682,0,0,1,5.47,1.513l4.8,3.234ZM4.533,2.228a.674.674,0,0,0-.479.2L2.927,3.552a.68.68,0,0,0-.083.859L5.4,8.2,8.7,4.9,4.912,2.343a.672.672,0,0,0-.379-.115" fill="#333"/>
    <path id="패스_203428" data-name="패스 203428" d="M9.5,4.287A4.712,4.712,0,1,1,4.787,9,4.713,4.713,0,0,1,9.5,4.287" fill="#fff"/>
    <path id="패스_203429" data-name="패스 203429" d="M9.5,5.287A3.712,3.712,0,1,1,5.787,9,3.718,3.718,0,0,1,9.5,5.287m0-1A4.712,4.712,0,1,0,14.213,9,4.714,4.714,0,0,0,9.5,4.287"/>
    <path id="패스_203430" data-name="패스 203430" d="M6.538,6.055v5.891l-5.085-.992A1.178,1.178,0,0,1,.5,9.8V8.2a1.178,1.178,0,0,1,.952-1.157Z" fill="#333"/>
    <path id="패스_203431" data-name="패스 203431" d="M6.168,5.668a4.713,4.713,0,1,1,0,6.665,4.714,4.714,0,0,1,0-6.665" fill="#fff"/>
    <path id="패스_203432" data-name="패스 203432" d="M9.5,5.287A3.713,3.713,0,1,1,6.875,6.374,3.687,3.687,0,0,1,9.5,5.287m0-1a4.712,4.712,0,1,0,3.332,1.38A4.7,4.7,0,0,0,9.5,4.287"/>
    <path id="패스_203433" data-name="패스 203433" d="M5.323,9.012l4.165,4.165-4.3,2.894A1.177,1.177,0,0,1,3.7,15.927L2.573,14.8a1.178,1.178,0,0,1-.144-1.491Z" fill="#64acf4"/>
    <path id="패스_203434" data-name="패스 203434" d="M4.534,16.772a1.671,1.671,0,0,1-1.188-.491L2.219,15.154a1.683,1.683,0,0,1-.206-2.124l3.233-4.8,5.025,5.023-4.8,3.233a1.669,1.669,0,0,1-.936.286M5.4,9.8,2.843,13.589a.681.681,0,0,0,.083.858l1.127,1.127a.676.676,0,0,0,.859.082L8.7,13.1Z" fill="#333"/>
    <path id="패스_203435" data-name="패스 203435" d="M4.788,9A4.713,4.713,0,1,1,9.5,13.713,4.713,4.713,0,0,1,4.788,9" fill="#fff"/>
    <path id="패스_203436" data-name="패스 203436" d="M9.5,5.287A3.712,3.712,0,1,1,5.787,9,3.718,3.718,0,0,1,9.5,5.287m0-1A4.712,4.712,0,1,0,14.213,9,4.714,4.714,0,0,0,9.5,4.287"/>
    <path id="패스_203437" data-name="패스 203437" d="M6.555,11.963h5.891l-.992,5.085A1.178,1.178,0,0,1,10.3,18H8.7a1.178,1.178,0,0,1-1.157-.952Z" fill="#333"/>
    <path id="패스_203438" data-name="패스 203438" d="M6.168,12.332a4.713,4.713,0,1,1,6.665,0,4.714,4.714,0,0,1-6.665,0" fill="#fff"/>
    <path id="패스_203439" data-name="패스 203439" d="M9.5,5.287A3.713,3.713,0,1,1,6.875,6.374,3.687,3.687,0,0,1,9.5,5.287m0-1a4.712,4.712,0,1,0,3.332,1.38A4.7,4.7,0,0,0,9.5,4.287"/>
    <path id="패스_203440" data-name="패스 203440" d="M9.513,13.178l4.165-4.165,2.894,4.3a1.177,1.177,0,0,1-.144,1.491L15.3,15.928a1.178,1.178,0,0,1-1.491.144Z" fill="#64acf4"/>
    <path id="패스_203441" data-name="패스 203441" d="M14.467,16.771a1.681,1.681,0,0,1-.937-.285l-4.8-3.234,5.025-5.023,3.232,4.8a1.681,1.681,0,0,1-.206,2.124l-1.127,1.127a1.678,1.678,0,0,1-1.187.49M10.3,13.1l3.793,2.554a.677.677,0,0,0,.858-.082l1.127-1.127a.68.68,0,0,0,.083-.859L13.6,9.794Z" fill="#333"/>
    <path id="패스_203442" data-name="패스 203442" d="M12.463,11.945V6.054l5.085.992A1.178,1.178,0,0,1,18.5,8.2V9.8a1.178,1.178,0,0,1-.952,1.157Z" fill="#333"/>
    <path id="패스_203443" data-name="패스 203443" d="M13.678,8.988,9.513,4.823l4.3-2.894a1.177,1.177,0,0,1,1.491.144L16.428,3.2a1.178,1.178,0,0,1,.144,1.491Z" fill="#64acf4"/>
    <path id="패스_203444" data-name="패스 203444" d="M13.755,9.771,8.73,4.747l4.8-3.234a1.68,1.68,0,0,1,2.124.206l1.127,1.126a1.681,1.681,0,0,1,.206,2.124ZM10.3,4.9,13.6,8.2l2.554-3.794a.68.68,0,0,0-.083-.859L14.947,2.426a.681.681,0,0,0-.858-.083Z" fill="#333"/>
    <path id="패스_203445" data-name="패스 203445" d="M9.5,13.713A4.713,4.713,0,1,1,14.213,9,4.714,4.714,0,0,1,9.5,13.713" fill="#ffbc00"/>
    <path id="패스_203446" data-name="패스 203446" d="M9.5,14.213A5.213,5.213,0,1,1,14.713,9,5.219,5.219,0,0,1,9.5,14.213m0-9.425A4.213,4.213,0,1,0,13.713,9,4.217,4.217,0,0,0,9.5,4.788" fill="#333"/>
    <path id="패스_203447" data-name="패스 203447" d="M9.513,7.834a1.178,1.178,0,1,0,1.178,1.178A1.177,1.177,0,0,0,9.513,7.834"/>
    <line id="선_2465" data-name="선 2465" x2="18" transform="translate(0.5 21.261)" fill="#64acf4"/>
    <rect id="사각형_150994" data-name="사각형 150994" width="18" height="1" transform="translate(0.5 20.762)" fill="#333"/>
    <line id="선_2466" data-name="선 2466" y1="3" transform="translate(0.501 19.761)" fill="#64acf4"/>
    <rect id="사각형_150995" data-name="사각형 150995" width="1" height="3" transform="translate(0 19.762)" fill="#333"/>
    <line id="선_2467" data-name="선 2467" y1="3" transform="translate(18.5 19.761)" fill="#64acf4"/>
    <rect id="사각형_150996" data-name="사각형 150996" width="1" height="3" transform="translate(18 19.762)" fill="#333"/>
    <line id="선_2468" data-name="선 2468" y2="5.129" transform="translate(21.522 11.758)" fill="#64acf4"/>
    <rect id="사각형_150997" data-name="사각형 150997" width="1" height="5.128" transform="translate(21.022 11.759)" fill="#333"/>
    <line id="선_2469" data-name="선 2469" x2="3" transform="translate(20.022 6.758)" fill="#64acf4"/>
    <rect id="사각형_150998" data-name="사각형 150998" width="3" height="1" transform="translate(20.022 6.259)" fill="#333"/>
    <line id="선_2470" data-name="선 2470" x2="3" transform="translate(20.022 11.758)" fill="#64acf4"/>
    <rect id="사각형_150999" data-name="사각형 150999" width="3" height="1" transform="translate(20.022 11.259)" fill="#333"/>
    <line id="선_2471" data-name="선 2471" y2="5.129" transform="translate(21.522 1.63)" fill="#64acf4"/>
    <rect id="사각형_151000" data-name="사각형 151000" width="1" height="5.129" transform="translate(21.022 1.63)" fill="#333"/>
  </g>
</svg>
