<svg id="Btn_Help" xmlns="http://www.w3.org/2000/svg" xmlns:xlink="http://www.w3.org/1999/xlink" width="36" height="36" viewBox="0 0 36 36">
  <defs>
    <style>
      .cls-1, .cls-2 {
        fill: #fff;
      }

      .cls-1 {
        opacity: 0;
      }

      .cls-3 {
        fill: #a2bbd9;
        font-size: 12px;
        font-family: Pretendard-ExtraBold, Pretendard;
        font-weight: 800;
        letter-spacing: 0.01em;
      }

      .cls-4 {
        fill: #88a1be;
      }

      .cls-5 {
        filter: url(#_);
      }
    </style>
    <filter id="_" x="9.25" y="8.75" width="9.5" height="16.5" filterUnits="userSpaceOnUse">
      <feOffset dy="0.5" input="SourceAlpha"/>
      <feGaussianBlur stdDeviation="0.25" result="blur"/>
      <feFlood flood-opacity="0.2"/>
      <feComposite operator="in" in2="blur"/>
      <feComposite in="SourceGraphic"/>
    </filter>
  </defs>
  <rect id="Area_Btn" class="cls-1" width="36" height="36"/>
  <path id="패스_203194" data-name="패스 203194" class="cls-2" d="M5,0H17a4.764,4.764,0,0,1,5,4.486V15.251a4.764,4.764,0,0,1-5,4.486H13.724L8.067,22V19.736H5a4.764,4.764,0,0,1-5-4.486V4.486A4.764,4.764,0,0,1,5,0Z" transform="translate(7 7)"/>
  <g class="cls-5" transform="matrix(1, 0, 0, 1, 0, 0)">
    <text id="_2" data-name="?" class="cls-3" transform="translate(14 21)"><tspan x="-3.348" y="0">?</tspan></text>
  </g>
  <rect id="사각형_150771" data-name="사각형 150771" class="cls-4" width="2" height="7" rx="1" transform="translate(25 13) rotate(90)"/>
  <rect id="사각형_150772" data-name="사각형 150772" class="cls-4" width="2" height="4" rx="1" transform="translate(22 16) rotate(90)"/>
  <rect id="사각형_150773" data-name="사각형 150773" class="cls-4" width="2" height="6" rx="1" transform="translate(24 19) rotate(90)"/>
</svg>
