<svg xmlns="http://www.w3.org/2000/svg" xmlns:xlink="http://www.w3.org/1999/xlink" width="24.099" height="24" viewBox="0 0 24.099 24">
  <defs>
    <style>
      .cls-1 {
        fill: none;
      }

      .cls-2 {
        fill: #fff;
        opacity: 0;
      }

      .cls-3 {
        clip-path: url(#clip-path);
      }

      .cls-4 {
        fill: #92d7ef;
      }

      .cls-5 {
        fill: #54c4e2;
      }

      .cls-6 {
        fill: #1a1a1a;
      }
    </style>
    <clipPath id="clip-path">
      <rect id="사각형_151000" data-name="사각형 151000" class="cls-1" width="24" height="14.959"/>
    </clipPath>
  </defs>
  <g id="Icon_Weather_Small_주간_흐림" transform="translate(-35.901 -1)">
    <rect id="사각형_150998" data-name="사각형 150998" class="cls-2" width="24" height="24" transform="translate(36 1)"/>
    <g id="그룹_124530" data-name="그룹 124530" transform="translate(35.901 7.994)">
      <g id="그룹_124529" data-name="그룹 124529" class="cls-3" transform="translate(0 0)">
        <path id="패스_203307" data-name="패스 203307" class="cls-4" d="M18.671,4.621h.3a5.279,5.279,0,0,1,0,10.558H7.093a6.163,6.163,0,0,1,.44-12.317,6.014,6.014,0,0,1,1.958.321,5.279,5.279,0,0,1,9.18,1.438" transform="translate(-0.691 -0.658)"/>
        <path id="패스_203308" data-name="패스 203308" class="cls-5" d="M21.91,16.22H10.033A6.159,6.159,0,0,1,5,7.233,6.158,6.158,0,0,0,7.394,18.859H19.271a5.278,5.278,0,0,0,4.808-3.11,5.243,5.243,0,0,1-2.169.471" transform="translate(-0.991 -4.34)"/>
        <path id="패스_203309" data-name="패스 203309" class="cls-6" d="M23.308,6.513a.445.445,0,0,0-.774.44,4.839,4.839,0,0,1-4.254,7.126H6.433A5.722,5.722,0,1,1,6.842,2.642a5.58,5.58,0,0,1,1.817.3.44.44,0,0,0,.493-.15,4.839,4.839,0,0,1,8.415,1.32.439.439,0,0,0,.44.295,4.927,4.927,0,0,1,3.519,1.245.44.44,0,1,0,.572-.669,5.683,5.683,0,0,0-3.818-1.46A5.718,5.718,0,0,0,8.646,2.013a6.487,6.487,0,0,0-1.8-.251,6.6,6.6,0,0,0-.48,13.2H18.28a5.718,5.718,0,0,0,5.028-8.446" transform="translate(0 0)"/>
      </g>
    </g>
  </g>
</svg>
