<svg xmlns="http://www.w3.org/2000/svg" xmlns:xlink="http://www.w3.org/1999/xlink" width="140" height="140" viewBox="0 0 140 140">
  <defs>
    <style>
      .cls-1 {
        fill: none;
      }

      .cls-2 {
        fill: #fff;
        opacity: 0;
      }

      .cls-3 {
        clip-path: url(#clip-path);
      }

      .cls-4 {
        fill: #92d7ef;
      }

      .cls-5 {
        fill: #54c4e2;
      }

      .cls-6 {
        fill: #1a1a1a;
      }
    </style>
    <clipPath id="clip-path">
      <rect id="사각형_150997" data-name="사각형 150997" class="cls-1" width="120" height="104.518" transform="translate(0 0)"/>
    </clipPath>
  </defs>
  <g id="icon_바람_Big" transform="translate(-1060 -526)">
    <rect id="사각형_150989" data-name="사각형 150989" class="cls-2" width="140" height="140" transform="translate(1060 526)"/>
    <g id="그룹_124525" data-name="그룹 124525" transform="translate(1070 544)">
      <g id="그룹_124524" data-name="그룹 124524" class="cls-3">
        <path id="패스_203283" data-name="패스 203283" class="cls-4" d="M81,30.153h1.348a23.78,23.78,0,1,1,0,47.56h-53.5a27.761,27.761,0,1,1,1.981-55.487,27.1,27.1,0,0,1,8.819,1.447A23.78,23.78,0,0,1,81,30.153"/>
        <path id="패스_203284" data-name="패스 203284" class="cls-5" d="M94.238,65.823h-53.5a27.743,27.743,0,0,1-22.65-40.485,27.743,27.743,0,0,0,10.76,52.375h53.5a23.781,23.781,0,0,0,21.66-14.01,23.637,23.637,0,0,1-9.77,2.12"/>
        <path id="패스_203285" data-name="패스 203285" class="cls-6" d="M104.365,44.877a1.981,1.981,0,0,0-1.209,2.517,5.681,5.681,0,0,0,.278,1.03,1.981,1.981,0,0,0,1.981,1.546h.436a1.982,1.982,0,0,0,1.51-2.361l0-.017a11.381,11.381,0,0,0-.436-1.467,1.982,1.982,0,0,0-2.5-1.268l-.057.02"/>
        <path id="패스_203286" data-name="패스 203286" class="cls-6" d="M80.367,77.713a1.982,1.982,0,0,0-1.982-1.982h-49.4a25.778,25.778,0,0,1,1.843-51.523,25.127,25.127,0,0,1,8.185,1.348,1.982,1.982,0,0,0,2.219-.674,21.8,21.8,0,0,1,37.909,5.945,1.981,1.981,0,0,0,1.982,1.327,22.259,22.259,0,0,1,13.119,3.488,1.989,1.989,0,1,0,2.179-3.329,25.6,25.6,0,0,0-14.069-4.142,25.762,25.762,0,0,0-43.4-6.8,29.262,29.262,0,0,0-8.125-1.129,29.745,29.745,0,1,0-2.16,59.45h49.72a1.982,1.982,0,0,0,1.982-1.982"/>
        <path id="패스_203287" data-name="패스 203287" class="cls-6" d="M104.82,62.038a1.981,1.981,0,0,0-2.632.963l0,.008a21.79,21.79,0,0,1-9.155,9.908,1.982,1.982,0,0,0-.855,2.669c.025.05.053.1.082.145a1.969,1.969,0,0,0,2.695.753,25.918,25.918,0,0,0,10.82-11.711,1.982,1.982,0,0,0-.831-2.677c-.039-.021-.079-.04-.12-.058"/>
        <path id="패스_203288" data-name="패스 203288" class="cls-6" d="M106.128,53.933H54.6a1.982,1.982,0,1,0,0,3.963h51.523a9.908,9.908,0,0,1,0,19.817h-3.963a1.982,1.982,0,1,0,0,3.963h3.963a13.872,13.872,0,1,0,0-27.743"/>
        <path id="패스_203289" data-name="패스 203289" class="cls-6" d="M90.275,20.245h3.963a9.908,9.908,0,1,1,0,19.817H42.715a1.982,1.982,0,1,0,0,3.963H94.238a13.872,13.872,0,1,0,0-27.743H90.275a1.982,1.982,0,1,0,0,3.963"/>
        <path id="패스_203290" data-name="패스 203290" class="cls-6" d="M14.865,102.536a1.982,1.982,0,0,0-1.982-1.982H4.957a1.982,1.982,0,1,0,0,3.964h7.926a1.982,1.982,0,0,0,1.982-1.982"/>
        <path id="패스_203291" data-name="패스 203291" class="cls-6" d="M30.825,57.9h11.89a1.982,1.982,0,1,0,0-3.963H30.825a1.982,1.982,0,1,0,0,3.963"/>
        <path id="패스_203292" data-name="패스 203292" class="cls-6" d="M74.422,63.841H34.789a1.982,1.982,0,1,0,0,3.963H74.422a9.909,9.909,0,0,1,0,19.817H70.459a1.981,1.981,0,1,0,0,3.963h3.963a13.872,13.872,0,1,0,0-27.743"/>
        <path id="패스_203293" data-name="패스 203293" class="cls-6" d="M21.862,3.964h21.89a1.982,1.982,0,1,0,0-3.963H21.862a1.982,1.982,0,1,0,0,3.963"/>
      </g>
    </g>
  </g>
</svg>
