<svg id="ic_caution" xmlns="http://www.w3.org/2000/svg" width="16" height="16" viewBox="0 0 16 16">
  <defs>
    <style>
      .cls-1, .cls-2, .cls-4 {
        fill: #fff;
      }

      .cls-1 {
        opacity: 0;
      }

      .cls-3 {
        fill: #333;
      }

      .cls-4 {
        stroke: #333;
      }

      .cls-5, .cls-6 {
        stroke: none;
      }

      .cls-6 {
        fill: #333;
      }

      .cls-7 {
        fill: none;
      }
    </style>
  </defs>
  <rect id="사각형_150808" data-name="사각형 150808" class="cls-1" width="16" height="16"/>
  <g id="패스_203197" data-name="패스 203197" class="cls-2" transform="translate(3 2.479)">
    <path class="cls-5" d="M 5.644483089447021 10.41811847686768 C 5.642080307006836 10.40085506439209 5.639839172363281 10.3844518661499 5.637790203094482 10.36945343017578 C 5.593949794769287 10.04845333099365 5.520559787750244 9.51119327545166 5.010859966278076 9.500123977661133 L 5.005430221557617 9.500003814697266 L 5 9.500003814697266 C 2.51869010925293 9.500003814697266 0.5 7.481313705444336 0.5 5.000003814697266 C 0.5 2.518693685531616 2.51869010925293 0.5000036358833313 5 0.5000036358833313 C 7.48130989074707 0.5000036358833313 9.5 2.518693685531616 9.5 5.000003814697266 C 9.5 6.628696441650391 8.300562858581543 9.313464164733887 5.644483089447021 10.41811847686768 Z"/>
    <path class="cls-6" d="M 5 1.000003814697266 C 2.794390201568604 1.000003814697266 1 2.794393539428711 1 5.000003814697266 C 1 7.205613613128662 2.794390201568604 9.000003814697266 5 9.000003814697266 L 5.02170991897583 9.000244140625 C 5.372370719909668 9.007850646972656 5.792896747589111 9.198060989379883 5.996628284454346 9.69572639465332 C 8.060887336730957 8.566913604736328 9 6.371914386749268 9 5.000003814697266 C 9 2.794393539428711 7.205610275268555 1.000003814697266 5 1.000003814697266 M 5 3.814697265625e-06 C 7.761420249938965 3.814697265625e-06 10 2.238574028015137 10 5.000003814697266 C 10 6.96061372756958 8.539059638977051 9.95068359375 5.467770099639893 11.02050399780273 C 5.079206943511963 11.2251615524292 5.202149868011475 10.00439357757568 5 10.00000381469727 C 2.238580226898193 10.00000381469727 0 7.761423587799072 0 5.000003814697266 C 0 2.238574028015137 2.238580226898193 3.814697265625e-06 5 3.814697265625e-06 Z"/>
  </g>
  <path id="패스_203198" data-name="패스 203198" class="cls-3" d="M0,0H2L1.469,2.522h-1Z" transform="translate(7 5.479)"/>
  <g id="사각형_150807" data-name="사각형 150807" class="cls-4" transform="translate(7.5 8.479)">
    <rect class="cls-5" width="1" height="1"/>
    <rect class="cls-7" x="0.5" y="0.5"/>
  </g>
</svg>
