<svg xmlns="http://www.w3.org/2000/svg" xmlns:xlink="http://www.w3.org/1999/xlink" width="24" height="24" viewBox="0 0 24 24">
  <defs>
    <style>
      .cls-1 {
        fill: none;
      }

      .cls-2 {
        fill: #fff;
        opacity: 0;
      }

      .cls-3 {
        clip-path: url(#clip-path);
      }

      .cls-4 {
        fill: #92d7ef;
      }

      .cls-5 {
        fill: #54c4e2;
      }

      .cls-6 {
        fill: #1a1a1a;
      }
    </style>
    <clipPath id="clip-path">
      <rect id="사각형_151006" data-name="사각형 151006" class="cls-1" width="22" height="19.162" transform="translate(0 0)"/>
    </clipPath>
  </defs>
  <g id="Icon_Weather_Small_바람" transform="translate(-36 -1)">
    <rect id="사각형_150998" data-name="사각형 150998" class="cls-2" width="24" height="24" transform="translate(36 1)"/>
    <g id="그룹_124542" data-name="그룹 124542" transform="translate(37 4)">
      <g id="그룹_124541" data-name="그룹 124541" class="cls-3">
        <path id="패스_203338" data-name="패스 203338" class="cls-4" d="M14.85,5.528H15.1a4.359,4.359,0,1,1,0,8.719H5.288A5.089,5.089,0,1,1,5.651,4.075a4.969,4.969,0,0,1,1.617.265A4.359,4.359,0,0,1,14.85,5.528"/>
        <path id="패스_203339" data-name="패스 203339" class="cls-5" d="M17.277,12.068H7.468A5.086,5.086,0,0,1,3.315,4.646a5.086,5.086,0,0,0,1.973,9.6H15.1a4.361,4.361,0,0,0,3.971-2.569,4.322,4.322,0,0,1-1.791.389"/>
        <path id="패스_203340" data-name="패스 203340" class="cls-6" d="M19.133,8.227a.364.364,0,0,0-.222.461,1.069,1.069,0,0,0,.051.189.364.364,0,0,0,.364.284h.079a.364.364,0,0,0,.277-.433v0a2.249,2.249,0,0,0-.08-.269.365.365,0,0,0-.459-.233l-.01,0"/>
        <path id="패스_203341" data-name="패스 203341" class="cls-6" d="M14.734,14.247a.363.363,0,0,0-.363-.363H5.313a4.726,4.726,0,1,1,.338-9.446,4.587,4.587,0,0,1,1.5.247.363.363,0,0,0,.407-.124,4,4,0,0,1,6.95,1.09.363.363,0,0,0,.363.244,4.077,4.077,0,0,1,2.405.639.365.365,0,0,0,.4-.61,4.7,4.7,0,0,0-2.58-.76A4.724,4.724,0,0,0,7.141,3.918a5.4,5.4,0,0,0-1.49-.207,5.453,5.453,0,0,0-.4,10.9h9.116a.363.363,0,0,0,.363-.363"/>
        <path id="패스_203342" data-name="패스 203342" class="cls-6" d="M19.217,11.374a.365.365,0,0,0-.483.177h0a4,4,0,0,1-1.679,1.817.364.364,0,0,0-.157.489.226.226,0,0,0,.016.026.359.359,0,0,0,.494.138,4.746,4.746,0,0,0,1.983-2.147.362.362,0,0,0-.152-.49l-.022-.011"/>
        <path id="패스_203343" data-name="패스 203343" class="cls-6" d="M19.457,9.888H10.011a.364.364,0,0,0,0,.727h9.446a1.817,1.817,0,1,1,0,3.633H18.73a.363.363,0,0,0,0,.726h.727a2.543,2.543,0,0,0,0-5.086"/>
        <path id="패스_203344" data-name="패스 203344" class="cls-6" d="M16.55,3.712h.727a1.817,1.817,0,0,1,0,3.633H7.831a.364.364,0,1,0,0,.727h9.446a2.543,2.543,0,0,0,0-5.087H16.55a.364.364,0,0,0,0,.727"/>
        <path id="패스_203345" data-name="패스 203345" class="cls-6" d="M2.725,18.8a.363.363,0,0,0-.363-.363H.908a.363.363,0,1,0,0,.726H2.362a.363.363,0,0,0,.363-.363"/>
        <path id="패스_203346" data-name="패스 203346" class="cls-6" d="M5.651,10.614h2.18a.364.364,0,0,0,0-.727H5.651a.364.364,0,0,0,0,.727"/>
        <path id="패스_203347" data-name="패스 203347" class="cls-6" d="M13.644,11.7H6.378a.363.363,0,0,0,0,.727h7.266a1.816,1.816,0,1,1,0,3.633h-.727a.363.363,0,0,0,0,.726h.727a2.543,2.543,0,1,0,0-5.086"/>
        <path id="패스_203348" data-name="패스 203348" class="cls-6" d="M4.008.727H8.021a.364.364,0,0,0,0-.727H4.008a.364.364,0,0,0,0,.727"/>
      </g>
    </g>
  </g>
</svg>
