<svg xmlns="http://www.w3.org/2000/svg" width="20" height="20" viewBox="0 0 20 20">
  <defs>
    <style>
      .cls-1 {
        fill: red;
        opacity: 0;
      }

      .cls-2 {
        fill: #2565d6;
      }

      .cls-2, .cls-3, .cls-4 {
        stroke: #333;
      }

      .cls-3, .cls-6 {
        fill: #fff;
      }

      .cls-4, .cls-8 {
        fill: none;
      }

      .cls-5 {
        fill: #ff5252;
      }

      .cls-7 {
        stroke: none;
      }
    </style>
  </defs>
  <g id="ic_공정삭제" transform="translate(-422 -588)">
    <rect id="사각형_150909" data-name="사각형 150909" class="cls-1" width="20" height="20" transform="translate(422 588)"/>
    <g id="사각형_150939" data-name="사각형 150939" class="cls-2" transform="translate(424 601)">
      <rect class="cls-7" width="5" height="5" rx="1"/>
      <rect class="cls-8" x="0.5" y="0.5" width="4" height="4" rx="0.5"/>
    </g>
    <g id="사각형_150940" data-name="사각형 150940" class="cls-3" transform="translate(429 596)">
      <rect class="cls-7" width="5" height="5" rx="1"/>
      <rect class="cls-8" x="0.5" y="0.5" width="4" height="4" rx="0.5"/>
    </g>
    <g id="사각형_150941" data-name="사각형 150941" class="cls-2" transform="translate(435 601)">
      <rect class="cls-7" width="5" height="5" rx="1"/>
      <rect class="cls-8" x="0.5" y="0.5" width="4" height="4" rx="0.5"/>
    </g>
    <path id="패스_203212" data-name="패스 203212" class="cls-4" d="M426.5,600.5v-1.441a1.376,1.376,0,0,1,1.438-1.438h1.674" transform="translate(0 1)"/>
    <g id="그룹_124505" data-name="그룹 124505" transform="translate(1 4)">
      <rect id="사각형_150935" data-name="사각형 150935" class="cls-5" width="9" height="9" rx="4.5" transform="translate(432 587)"/>
      <rect id="사각형_150942" data-name="사각형 150942" class="cls-6" width="5" height="1" transform="translate(434 591)"/>
    </g>
    <path id="패스_203213" data-name="패스 203213" class="cls-4" d="M426.5,600.477v-1.418a1.376,1.376,0,0,1,1.438-1.438h2.018" transform="translate(-165.002 1030) rotate(-90)"/>
  </g>
</svg>
