<svg id="ic_move_layer" data-name="ic_move layer" xmlns="http://www.w3.org/2000/svg" xmlns:xlink="http://www.w3.org/1999/xlink" width="16" height="16" viewBox="0 0 16 16">
  <defs>
    <style>
      .cls-1 {
        fill: none;
      }

      .cls-2 {
        fill: rgba(255,255,255,0);
      }

      .cls-3 {
        clip-path: url(#clip-path);
      }

      .cls-4 {
        fill: #fff;
      }

      .cls-5 {
        fill: #333;
      }
    </style>
    <clipPath id="clip-path">
      <rect id="사각형_150721" data-name="사각형 150721" class="cls-1" width="10" height="8"/>
    </clipPath>
  </defs>
  <rect id="area" class="cls-2" width="16" height="16"/>
  <g id="그룹_124449" data-name="그룹 124449" transform="translate(3 4)">
    <g id="그룹_124448" data-name="그룹 124448" class="cls-3">
      <rect id="사각형_150716" data-name="사각형 150716" class="cls-4" width="9" height="7" rx="1.5" transform="translate(0.5 0.5)"/>
      <path id="패스_203181" data-name="패스 203181" class="cls-5" d="M8,1A1,1,0,0,1,9,2V6A1,1,0,0,1,8,7H2A1,1,0,0,1,1,6V2A1,1,0,0,1,2,1ZM8,0H2A2,2,0,0,0,0,2V6A2,2,0,0,0,2,8H8a2,2,0,0,0,2-2V2A2,2,0,0,0,8,0"/>
      <rect id="사각형_150717" data-name="사각형 150717" class="cls-4" width="5" height="1" transform="translate(2.5 2.5)"/>
      <rect id="사각형_150718" data-name="사각형 150718" class="cls-5" width="5" height="1" transform="translate(2.5 2.5)"/>
      <rect id="사각형_150719" data-name="사각형 150719" class="cls-4" width="5" height="1" transform="translate(2.5 4.5)"/>
      <rect id="사각형_150720" data-name="사각형 150720" class="cls-5" width="5" height="1" transform="translate(2.5 4.5)"/>
    </g>
  </g>
</svg>
