<svg xmlns="http://www.w3.org/2000/svg" width="20" height="20" viewBox="0 0 20 20">
  <defs>
    <style>
      .cls-1 {
        fill: red;
        opacity: 0.003;
      }

      .cls-2 {
        fill: #2d73d3;
      }

      .cls-3, .cls-4 {
        stroke: none;
      }

      .cls-4 {
        fill: #333;
      }
    </style>
  </defs>
  <g id="ic_default" transform="translate(-401 -499)">
    <rect id="사각형_150931" data-name="사각형 150931" class="cls-1" width="20" height="20" transform="translate(401 499)"/>
    <g id="다각형_35" data-name="다각형 35" class="cls-2" transform="translate(418.5 502) rotate(90)">
      <path class="cls-3" d="M 10.51793003082275 11.24999904632568 L 3.482070446014404 11.24999904632568 C 3.029000520706177 11.24999904632568 2.62380051612854 11.01544857025146 2.398150444030762 10.62257862091064 C 2.172490358352661 10.22969913482666 2.174070358276367 9.761508941650391 2.402350425720215 9.370168685913086 L 5.920270442962646 3.339428663253784 C 6.146800518035889 2.951108694076538 6.550430297851562 2.719268798828125 7.000000476837158 2.719268798828125 C 7.449570655822754 2.719268798828125 7.853200435638428 2.951108694076538 8.079730033874512 3.339428663253784 L 11.5976505279541 9.370159149169922 C 11.82593059539795 9.761508941650391 11.82751083374023 10.22969913482666 11.60185050964355 10.62257862091064 C 11.37620067596436 11.01544857025146 10.97100067138672 11.24999904632568 10.51793003082275 11.24999904632568 Z"/>
      <path class="cls-4" d="M 7.000000476837158 3.469268798828125 C 6.892740249633789 3.469268798828125 6.694010257720947 3.501498222351074 6.568110466003418 3.717338562011719 L 3.050180435180664 9.748058319091797 C 2.923300743103027 9.965579032897949 2.994670867919922 10.15529823303223 3.048500061035156 10.2490291595459 C 3.102340698242188 10.34275817871094 3.230250358581543 10.49999904632568 3.482070922851562 10.49999904632568 L 10.51793098449707 10.49999904632568 C 10.76975059509277 10.49999904632568 10.89766025543213 10.34275817871094 10.95149993896484 10.2490291595459 C 11.00533103942871 10.15529823303223 11.07670021057129 9.965588569641113 10.94981002807617 9.748068809509277 L 7.431890487670898 3.717338562011719 C 7.305990695953369 3.501498222351074 7.107260704040527 3.469268798828125 7.000000476837158 3.469268798828125 M 7.000000476837158 1.969271659851074 C 7.670840263366699 1.969271659851074 8.341680526733398 2.300024032592773 8.727560043334961 2.961528778076172 L 12.24548053741455 8.992258071899414 C 13.02325057983398 10.32556915283203 12.06151008605957 11.99999904632568 10.51793098449707 11.99999904632568 L 3.482070922851562 11.99999904632568 C 1.938490867614746 11.99999904632568 0.976750373840332 10.32556915283203 1.754510879516602 8.992258071899414 L 5.272440910339355 2.961528778076172 C 5.658320426940918 2.300024032592773 6.329160690307617 1.969271659851074 7.000000476837158 1.969271659851074 Z"/>
    </g>
  </g>
</svg>
