<svg xmlns="http://www.w3.org/2000/svg" width="20" height="20" viewBox="0 0 20 20">
  <defs>
    <style>
      .cls-1 {
        fill: #fff;
        opacity: 0;
      }

      .cls-2 {
        fill: #89a6d9;
      }

      .cls-3, .cls-4 {
        stroke: none;
      }

      .cls-4 {
        fill: #112e60;
      }
    </style>
  </defs>
  <g id="Icon_Star" transform="translate(-16 -4)">
    <rect id="BG_Icon_Star" class="cls-1" width="20" height="20" transform="translate(16 4)"/>
    <g id="star" class="cls-2" transform="translate(18 6.3)">
      <path class="cls-3" d="M 12.53101539611816 14.62950801849365 L 8.232669830322266 12.36972427368164 L 8 12.24740505218506 L 7.767330169677734 12.36972427368164 L 3.468988656997681 14.62949657440186 L 4.289889812469482 9.84322452545166 L 4.334330081939697 9.584144592285156 L 4.146100044250488 9.400664329528809 L 0.6686610579490662 6.011002063751221 L 5.47435998916626 5.312694549560547 L 5.734489917755127 5.274894714355469 L 5.850830078125 5.039174556732178 L 8 0.684478759765625 L 10.149169921875 5.039174556732178 L 10.26550960540771 5.274894714355469 L 10.52563953399658 5.312694549560547 L 15.33133125305176 6.01099967956543 L 11.85389995574951 9.400664329528809 L 11.66567039489746 9.584144592285156 L 11.71010971069336 9.84322452545166 L 12.53101539611816 14.62950801849365 Z"/>
      <path class="cls-4" d="M 8.000001907348633 1.814262390136719 L 6.066530227661133 5.731904983520508 L 1.743143081665039 6.36012077331543 L 4.871569633483887 9.409584045410156 L 4.133052825927734 13.71549510955811 L 8 11.68251419067383 L 11.86694431304932 13.71549320220947 L 11.1284294128418 9.409584045410156 L 14.25684547424316 6.360125541687012 L 9.933469772338867 5.731904983520508 L 8.000001907348633 1.814262390136719 M 8 -2.86102294921875e-06 C 8.126094818115234 -2.86102294921875e-06 8.252189636230469 0.06569004058837891 8.31702995300293 0.1970748901367188 L 10.5975399017334 4.81789493560791 L 15.69692039489746 5.55887508392334 C 15.98688983917236 5.601015090942383 16.10268020629883 5.957365036010742 15.89284992218018 6.161894798278809 L 12.20290946960449 9.758705139160156 L 13.0739803314209 14.83747482299805 C 13.12351989746094 15.1262845993042 12.82038116455078 15.34652519226074 12.56101989746094 15.21016502380371 L 8 12.81229496002197 L 3.438980102539062 15.21016502380371 C 3.179622650146484 15.34652423858643 2.876479148864746 15.1262845993042 2.926019668579102 14.83747482299805 L 3.797089576721191 9.758705139160156 L 0.1071500778198242 6.161904335021973 C -0.1026802062988281 5.957365036010742 0.01311016082763672 5.601015090942383 0.3030796051025391 5.55887508392334 L 5.402460098266602 4.81789493560791 L 7.68297004699707 0.1970748901367188 C 7.747810363769531 0.06569004058837891 7.873905181884766 -2.86102294921875e-06 8 -2.86102294921875e-06 Z"/>
    </g>
  </g>
</svg>
