<svg xmlns="http://www.w3.org/2000/svg" xmlns:xlink="http://www.w3.org/1999/xlink" width="140" height="140" viewBox="0 0 140 140">
  <defs>
    <style>
      .cls-1 {
        fill: none;
      }

      .cls-2 {
        fill: #fff;
        opacity: 0;
      }

      .cls-3 {
        clip-path: url(#clip-path);
      }

      .cls-4 {
        fill: #fbb03b;
      }

      .cls-5 {
        fill: #f7931e;
      }

      .cls-6 {
        fill: #1a1a1a;
      }
    </style>
    <clipPath id="clip-path">
      <rect id="사각형_150988" data-name="사각형 150988" class="cls-1" width="120" height="120"/>
    </clipPath>
  </defs>
  <g id="icon_맑음_Big" transform="translate(-1060 -526)">
    <rect id="사각형_150989" data-name="사각형 150989" class="cls-2" width="140" height="140" transform="translate(1060 526)"/>
    <g id="그룹_124509" data-name="그룹 124509" transform="translate(1070 536)">
      <g id="그룹_124509-2" data-name="그룹 124509" class="cls-3">
        <path id="패스_203224" data-name="패스 203224" class="cls-4" d="M60,20A40,40,0,1,1,20,60,40,40,0,0,1,60,20"/>
        <path id="패스_203225" data-name="패스 203225" class="cls-5" d="M77.143,82.857A40,40,0,0,1,41.629,24.486,40,40,0,1,0,95.514,78.371a39.761,39.761,0,0,1-18.371,4.486"/>
        <path id="패스_203226" data-name="패스 203226" class="cls-6" d="M60,17.143A42.857,42.857,0,1,0,102.857,60,42.857,42.857,0,0,0,60,17.143m0,80A37.143,37.143,0,1,1,97.143,60,37.143,37.143,0,0,1,60,97.143"/>
        <path id="패스_203227" data-name="패스 203227" class="cls-6" d="M60,11.429a2.857,2.857,0,0,0,2.857-2.857V2.858a2.857,2.857,0,1,0-5.714,0V8.572A2.857,2.857,0,0,0,60,11.429"/>
        <path id="패스_203228" data-name="패스 203228" class="cls-6" d="M31.8,16.886a2.867,2.867,0,1,0,4.971-2.857L33.914,9.086a2.867,2.867,0,1,0-4.971,2.857Z"/>
        <path id="패스_203229" data-name="패스 203229" class="cls-6" d="M9.086,33.914l4.943,2.857A2.867,2.867,0,1,0,16.886,31.8l-4.943-2.857a2.867,2.867,0,1,0-2.857,4.971"/>
        <path id="패스_203230" data-name="패스 203230" class="cls-6" d="M2.857,62.857H8.571a2.857,2.857,0,1,0,0-5.714H2.857a2.857,2.857,0,1,0,0,5.714"/>
        <path id="패스_203231" data-name="패스 203231" class="cls-6" d="M14.029,83.229,9.086,86.086a2.867,2.867,0,0,0,2.857,4.972L16.886,88.2a2.867,2.867,0,0,0-2.857-4.971"/>
        <path id="패스_203232" data-name="패스 203232" class="cls-6" d="M31.8,103.114l-2.857,4.943a2.867,2.867,0,1,0,4.971,2.857l2.857-4.943a2.867,2.867,0,1,0-4.971-2.857"/>
        <path id="패스_203233" data-name="패스 203233" class="cls-6" d="M57.143,111.429v5.714a2.857,2.857,0,1,0,5.714,0v-5.714a2.857,2.857,0,1,0-5.714,0"/>
        <path id="패스_203234" data-name="패스 203234" class="cls-6" d="M84.286,102.057a2.856,2.856,0,0,0-1.067,3.9l.01.017,2.857,4.943a2.867,2.867,0,0,0,4.971-2.857L88.2,103.114a2.857,2.857,0,0,0-3.9-1.067l-.017.01"/>
        <path id="패스_203235" data-name="패스 203235" class="cls-6" d="M110.914,86.086l-4.943-2.857a2.867,2.867,0,0,0-2.857,4.971l4.943,2.857a2.867,2.867,0,0,0,2.857-4.971"/>
        <path id="패스_203236" data-name="패스 203236" class="cls-6" d="M117.143,57.143h-5.714a2.857,2.857,0,1,0,0,5.714h5.714a2.857,2.857,0,1,0,0-5.714"/>
        <path id="패스_203237" data-name="패스 203237" class="cls-6" d="M104.543,37.143a2.872,2.872,0,0,0,1.429-.371l4.942-2.858a2.867,2.867,0,1,0-2.857-4.971L103.114,31.8a2.857,2.857,0,0,0,1.429,5.343"/>
        <path id="패스_203238" data-name="패스 203238" class="cls-6" d="M84.286,17.943a2.857,2.857,0,0,0,3.9-1.04l.01-.017,2.857-4.943a2.867,2.867,0,1,0-4.971-2.857l-2.857,4.943a2.857,2.857,0,0,0,1.04,3.9l.017.01"/>
      </g>
    </g>
  </g>
</svg>
