<svg xmlns="http://www.w3.org/2000/svg" xmlns:xlink="http://www.w3.org/1999/xlink" width="140" height="140" viewBox="0 0 140 140">
  <defs>
    <style>
      .cls-1, .cls-7 {
        fill: none;
      }

      .cls-2 {
        fill: #fff;
        opacity: 0;
      }

      .cls-3 {
        clip-path: url(#clip-path);
      }

      .cls-4 {
        fill: #f9d53d;
      }

      .cls-5 {
        fill: #f7b43e;
      }

      .cls-6 {
        fill: #1a1a1a;
      }

      .cls-7 {
        stroke: #000;
        stroke-linecap: round;
        stroke-linejoin: round;
        stroke-width: 6px;
      }
    </style>
    <clipPath id="clip-path">
      <rect id="사각형_150992" data-name="사각형 150992" class="cls-1" width="110" height="109.543"/>
    </clipPath>
  </defs>
  <g id="icon_맑음_Big" transform="translate(-1060 -526)">
    <rect id="사각형_150989" data-name="사각형 150989" class="cls-2" width="140" height="140" transform="translate(1060 526)"/>
    <g id="그룹_124515" data-name="그룹 124515" transform="translate(1075 541.229)">
      <g id="그룹_124514" data-name="그룹 124514" class="cls-3">
        <path id="패스_203255" data-name="패스 203255" class="cls-4" d="M95.752,63.756A52.534,52.534,0,0,1,43.218,11.222,51.734,51.734,0,0,1,44.44.074a52.534,52.534,0,1,0,62.46,62.46,51.733,51.733,0,0,1-11.148,1.222"/>
        <path id="패스_203256" data-name="패스 203256" class="cls-5" d="M73.914,85.594A52.474,52.474,0,0,1,28.771,6.182,52.5,52.5,0,1,0,100.792,78.2a52.148,52.148,0,0,1-26.878,7.391"/>
        <path id="패스_203257" data-name="패스 203257" class="cls-6" d="M109.069,63.42a3.054,3.054,0,0,0-2.84-.825,48.458,48.458,0,0,1-10.477,1.161,49.54,49.54,0,0,1-49.479-49.48,48.857,48.857,0,0,1,1.16-10.507A3.053,3.053,0,0,0,43.8.074,55.251,55.251,0,0,0,0,53.463a3.054,3.054,0,0,0,6.108,0A49.114,49.114,0,0,1,40.622,7.282a53.632,53.632,0,0,0-.458,6.994A55.619,55.619,0,0,0,95.752,69.865a53.35,53.35,0,0,0,6.964-.459,49.775,49.775,0,0,1-15,22.633,3.054,3.054,0,0,0,3.91,4.642,56.076,56.076,0,0,0,18.326-30.543,3.055,3.055,0,0,0-.886-2.718"/>
        <path id="패스_203258" data-name="패스 203258" class="cls-7" d="M7.252,76.245A52.546,52.546,0,0,0,81.808,99.074"/>
      </g>
    </g>
  </g>
</svg>
