<svg xmlns="http://www.w3.org/2000/svg" xmlns:xlink="http://www.w3.org/1999/xlink" width="24" height="24" viewBox="0 0 24 24">
  <defs>
    <style>
      .cls-1 {
        fill: none;
      }

      .cls-2 {
        fill: #fff;
        opacity: 0;
      }

      .cls-3 {
        clip-path: url(#clip-path);
      }

      .cls-4 {
        fill: #ea4450;
      }

      .cls-5 {
        fill: #ce293d;
      }

      .cls-6 {
        fill: #1a1a1a;
      }

      .cls-7 {
        fill: #92d7ef;
      }

      .cls-8 {
        fill: #54c4e2;
      }
    </style>
    <clipPath id="clip-path">
      <rect id="사각형_151004" data-name="사각형 151004" class="cls-1" width="22" height="21.895" transform="translate(0 0)"/>
    </clipPath>
  </defs>
  <g id="Icon_Weather_Small_눈" transform="translate(-36 -1)">
    <rect id="사각형_150998" data-name="사각형 150998" class="cls-2" width="24" height="24" transform="translate(36 1)"/>
    <g id="그룹_124538" data-name="그룹 124538" transform="translate(37 2)">
      <g id="그룹_124537" data-name="그룹 124537" class="cls-3">
        <path id="패스_203323" data-name="패스 203323" class="cls-4" d="M1.426,13.152a2.876,2.876,0,0,1,4.981-.326,2.877,2.877,0,0,1,4.795,0,2.877,2.877,0,0,1,4.981.326,7.539,7.539,0,0,0,.293-2.1,7.671,7.671,0,1,0-15.342,0,7.538,7.538,0,0,0,.292,2.1"/>
        <path id="패스_203324" data-name="패스 203324" class="cls-5" d="M15.517,9.618a2.876,2.876,0,0,0-2.4,1.29,2.877,2.877,0,0,0-4.8,0,2.876,2.876,0,0,0-4.981.326A7.672,7.672,0,0,1,4.427,4.761a7.669,7.669,0,0,0-3.293,6.295,7.545,7.545,0,0,0,.292,2.1,2.877,2.877,0,0,1,4.982-.327,2.876,2.876,0,0,1,4.794,0,2.876,2.876,0,0,1,4.981.327,7.546,7.546,0,0,0,.293-2.1,7.81,7.81,0,0,0-.12-1.313,2.81,2.81,0,0,0-.839-.125"/>
        <path id="패스_203325" data-name="패스 203325" class="cls-6" d="M16.644,13.286a8.149,8.149,0,0,0-1.51-7.369.481.481,0,0,0-.748.6A7.192,7.192,0,0,1,16,11.057a6.975,6.975,0,0,1-.063.958,3.342,3.342,0,0,0-4.732.048,3.356,3.356,0,0,0-4.746-.048l-.048.048a3.342,3.342,0,0,0-4.732-.048,6.975,6.975,0,0,1-.063-.958A7.193,7.193,0,0,1,13.091,5.274a.479.479,0,1,0,.65-.705.521.521,0,0,0-.084-.062,8.061,8.061,0,0,0-4.372-1.6V1.468a.48.48,0,1,0-.959,0V2.93A8.15,8.15,0,0,0,.966,13.286a.483.483,0,0,0,.9.077,2.4,2.4,0,0,1,4.152-.274.479.479,0,0,0,.8,0,2.4,2.4,0,0,1,1.515-1.021v7.669a2.157,2.157,0,1,0,4.315,0v-.719a.48.48,0,0,0-.959,0v.719a1.2,1.2,0,1,1-2.4,0V12.068A2.4,2.4,0,0,1,10.8,13.089a.478.478,0,0,0,.8,0,2.4,2.4,0,0,1,4.152.274.479.479,0,0,0,.432.268h.043a.48.48,0,0,0,.417-.345"/>
        <path id="패스_203326" data-name="패스 203326" class="cls-7" d="M15.2,4.267a2.329,2.329,0,0,1-4.657,0c0-1.284,2.329-3.88,2.329-3.88s2.328,2.6,2.328,3.88"/>
        <path id="패스_203327" data-name="패스 203327" class="cls-8" d="M14.428,5.043A2.328,2.328,0,0,1,12.1,2.715,4.642,4.642,0,0,1,13.054.592L12.876.386s-2.328,2.6-2.328,3.881a2.328,2.328,0,0,0,4.555.675,2.24,2.24,0,0,1-.675.1"/>
        <path id="패스_203328" data-name="패스 203328" class="cls-6" d="M12.588.127c-.249.28-2.429,2.748-2.429,4.141a2.716,2.716,0,1,0,5.432,0c0-1.393-2.18-3.881-2.429-4.141A.388.388,0,0,0,12.614.1C12.6.11,12.6.118,12.588.127m.287,6.081a1.94,1.94,0,0,1-1.94-1.94c0-.741,1.094-2.282,1.94-3.291.846,1,1.94,2.55,1.94,3.291a1.94,1.94,0,0,1-1.94,1.94"/>
        <path id="패스_203329" data-name="패스 203329" class="cls-7" d="M5.275,18.391a2.435,2.435,0,0,1-4.87,0c0-1.343,2.435-4.058,2.435-4.058s2.435,2.715,2.435,4.058"/>
        <path id="패스_203330" data-name="패스 203330" class="cls-8" d="M4.464,19.2a2.435,2.435,0,0,1-2.435-2.435,4.861,4.861,0,0,1,1-2.22l-.186-.215S.406,17.048.406,18.391A2.435,2.435,0,0,0,5.17,19.1a2.351,2.351,0,0,1-.706.106"/>
        <path id="패스_203331" data-name="패스 203331" class="cls-6" d="M2.541,14.061C2.281,14.353,0,16.934,0,18.391a2.841,2.841,0,0,0,5.682,0c0-1.457-2.281-4.058-2.541-4.33a.405.405,0,0,0-.573-.027.229.229,0,0,0-.027.027m.3,6.359A2.028,2.028,0,0,1,.812,18.391c0-.775,1.144-2.386,2.029-3.441C3.726,16,4.87,17.616,4.87,18.391A2.028,2.028,0,0,1,2.841,20.42"/>
        <path id="패스_203332" data-name="패스 203332" class="cls-7" d="M21.612,14.518a2.328,2.328,0,0,1-4.657,0c0-1.284,2.329-3.88,2.329-3.88s2.328,2.6,2.328,3.88"/>
        <path id="패스_203333" data-name="패스 203333" class="cls-8" d="M20.836,15.294a2.328,2.328,0,0,1-2.328-2.328,4.642,4.642,0,0,1,.954-2.123l-.178-.206s-2.328,2.6-2.328,3.881a2.328,2.328,0,0,0,4.555.675,2.24,2.24,0,0,1-.675.1"/>
        <path id="패스_203334" data-name="패스 203334" class="cls-6" d="M19,10.377c-.249.28-2.429,2.748-2.429,4.141a2.716,2.716,0,0,0,5.432,0c0-1.393-2.18-3.881-2.429-4.141a.388.388,0,0,0-.548-.026.319.319,0,0,0-.026.026m.287,6.081a1.94,1.94,0,0,1-1.94-1.94c0-.741,1.094-2.282,1.94-3.291.846,1.005,1.94,2.55,1.94,3.291a1.94,1.94,0,0,1-1.94,1.94"/>
      </g>
    </g>
  </g>
</svg>
