<svg xmlns="http://www.w3.org/2000/svg" xmlns:xlink="http://www.w3.org/1999/xlink" width="140" height="140" viewBox="0 0 140 140">
  <defs>
    <style>
      .cls-1 {
        fill: none;
      }

      .cls-2 {
        fill: #fff;
        opacity: 0;
      }

      .cls-3 {
        clip-path: url(#clip-path);
      }

      .cls-4 {
        fill: gray;
      }

      .cls-5 {
        fill: #666;
      }

      .cls-6 {
        fill: #1a1a1a;
      }
    </style>
    <clipPath id="clip-path">
      <rect id="사각형_150994" data-name="사각형 150994" class="cls-1" width="120" height="74.806" transform="translate(0 0)"/>
    </clipPath>
  </defs>
  <g id="icon_흐림_Big" transform="translate(-1060 -526)">
    <rect id="사각형_150989" data-name="사각형 150989" class="cls-2" width="140" height="140" transform="translate(1060 526)"/>
    <g id="그룹_124519" data-name="그룹 124519" transform="translate(1070 558.597)">
      <g id="그룹_124518" data-name="그룹 124518" class="cls-3">
        <path id="패스_203265" data-name="패스 203265" class="cls-4" d="M89.909,17.616h1.5a26.4,26.4,0,0,1,0,52.791H32.015a30.814,30.814,0,1,1,2.2-61.589A30.006,30.006,0,0,1,44,10.424a26.4,26.4,0,0,1,45.906,7.192"/>
        <path id="패스_203266" data-name="패스 203266" class="cls-5" d="M104.6,57.209H45.213A30.795,30.795,0,0,1,20.072,12.271,30.795,30.795,0,0,0,32.016,70.407H91.4a26.4,26.4,0,0,0,24.042-15.552A26.208,26.208,0,0,1,104.6,57.209"/>
        <path id="패스_203267" data-name="패스 203267" class="cls-6" d="M91.4,17.616a28.594,28.594,0,0,0-48.171-7.545,32.521,32.521,0,0,0-9.019-1.253,33.016,33.016,0,1,0-2.4,65.988h9a2.2,2.2,0,1,0,0-4.4H32.169a28.613,28.613,0,1,1,2.046-57.19,27.874,27.874,0,0,1,9.084,1.5,2.2,2.2,0,0,0,2.442-.748,24.2,24.2,0,0,1,42.1,6.6,2.2,2.2,0,0,0,2.2,1.474l1.364-.022a24.2,24.2,0,1,1,0,48.392H49.612a2.2,2.2,0,0,0,0,4.4H91.4a28.6,28.6,0,1,0,0-57.19"/>
      </g>
    </g>
  </g>
</svg>
