<svg xmlns="http://www.w3.org/2000/svg" xmlns:xlink="http://www.w3.org/1999/xlink" width="140" height="140" viewBox="0 0 140 140">
  <defs>
    <style>
      .cls-1 {
        fill: none;
      }

      .cls-2 {
        fill: #fff;
        opacity: 0;
      }

      .cls-3 {
        clip-path: url(#clip-path);
      }

      .cls-4 {
        fill: #fbb03b;
      }

      .cls-5 {
        fill: #f7931e;
      }

      .cls-6 {
        fill: #92d7ef;
      }

      .cls-7 {
        fill: #54c4e2;
      }

      .cls-8 {
        fill: #1a1a1a;
      }
    </style>
    <clipPath id="clip-path">
      <rect id="사각형_150990" data-name="사각형 150990" class="cls-1" width="120" height="99.083" transform="translate(0 0)"/>
    </clipPath>
  </defs>
  <g id="icon_구름조금_Big" transform="translate(-1060 -526)">
    <rect id="사각형_150989" data-name="사각형 150989" class="cls-2" width="140" height="140" transform="translate(1060 526)"/>
    <g id="그룹_124511" data-name="그룹 124511" transform="translate(1070 546.458)">
      <g id="그룹_124510" data-name="그룹 124510" class="cls-3">
        <path id="패스_203239" data-name="패스 203239" class="cls-4" d="M78.385,13.872A27.744,27.744,0,1,1,50.642,41.615,27.743,27.743,0,0,1,78.385,13.872"/>
        <path id="패스_203240" data-name="패스 203240" class="cls-5" d="M90.275,57.468A27.743,27.743,0,0,1,65.643,16.983a27.743,27.743,0,1,0,37.374,37.374,27.582,27.582,0,0,1-12.742,3.111"/>
        <path id="패스_203241" data-name="패스 203241" class="cls-6" d="M81,49.542h1.348a23.78,23.78,0,1,1,0,47.56h-53.5a27.761,27.761,0,1,1,1.981-55.487,27.1,27.1,0,0,1,8.819,1.447A23.78,23.78,0,0,1,81,49.542"/>
        <path id="패스_203242" data-name="패스 203242" class="cls-7" d="M94.238,85.212h-53.5a27.743,27.743,0,0,1-22.65-40.485A27.743,27.743,0,0,0,28.843,97.1h53.5a23.781,23.781,0,0,0,21.66-14.01,23.637,23.637,0,0,1-9.77,2.12"/>
        <path id="패스_203243" data-name="패스 203243" class="cls-8" d="M78.385,11.89A29.727,29.727,0,0,0,53.911,24.771,1.982,1.982,0,0,0,57.044,27.2a1.955,1.955,0,0,0,.117-.169,25.762,25.762,0,0,1,46.986,14.585A25.411,25.411,0,0,1,102.72,50.1a1.974,1.974,0,1,0,3.725,1.307,28.933,28.933,0,0,0,1.665-9.789A29.725,29.725,0,0,0,78.385,11.89"/>
        <path id="패스_203244" data-name="패스 203244" class="cls-8" d="M78.385,7.927a1.982,1.982,0,0,0,1.982-1.982V1.982a1.982,1.982,0,1,0-3.964,0V5.945a1.982,1.982,0,0,0,1.982,1.982"/>
        <path id="패스_203245" data-name="패스 203245" class="cls-8" d="M58.826,11.712A1.989,1.989,0,1,0,62.274,9.73L60.292,6.3a1.989,1.989,0,0,0-3.448,1.982Z"/>
        <path id="패스_203246" data-name="패스 203246" class="cls-8" d="M43.072,23.522,46.5,25.5a1.989,1.989,0,0,0,1.982-3.448l-3.428-1.982a1.989,1.989,0,0,0-1.982,3.448"/>
        <path id="패스_203247" data-name="패스 203247" class="cls-8" d="M113.7,59.708l-1.268-.733a1.989,1.989,0,1,0-1.982,3.448l1.268.733a1.989,1.989,0,1,0,1.982-3.448"/>
        <path id="패스_203248" data-name="패스 203248" class="cls-8" d="M118.018,39.633h-3.963a1.982,1.982,0,1,0,0,3.963h3.963a1.982,1.982,0,1,0,0-3.963"/>
        <path id="패스_203249" data-name="패스 203249" class="cls-8" d="M113.7,23.522a1.989,1.989,0,1,0-1.982-3.448l-3.428,1.982A1.989,1.989,0,0,0,110.27,25.5Z"/>
        <path id="패스_203250" data-name="패스 203250" class="cls-8" d="M95.229,12.445a1.981,1.981,0,0,0,2.708-.721l.007-.012,1.982-3.428A1.989,1.989,0,0,0,96.477,6.3L94.5,9.73a1.981,1.981,0,0,0,.721,2.708l.012.007"/>
        <path id="패스_203251" data-name="패스 203251" class="cls-8" d="M82.348,47.56a25.762,25.762,0,0,0-43.4-6.8,29.251,29.251,0,0,0-8.124-1.13,29.745,29.745,0,1,0-2.16,59.45h4.141a1.981,1.981,0,1,0,0-3.963H28.982A25.778,25.778,0,0,1,30.825,43.6a25.12,25.12,0,0,1,8.184,1.347,1.98,1.98,0,0,0,2.219-.674,21.8,21.8,0,0,1,37.91,5.945,1.98,1.98,0,0,0,1.981,1.328l1.229-.02a21.8,21.8,0,0,1,0,43.6H40.733a1.981,1.981,0,1,0,0,3.963H82.348a25.761,25.761,0,1,0,0-51.523"/>
      </g>
    </g>
  </g>
</svg>
