<svg xmlns="http://www.w3.org/2000/svg" width="30" height="30" viewBox="0 0 30 30">
  <g id="Icon" transform="translate(2.601 6)">
    <rect id="bg_icon" width="30" height="30" transform="translate(-2.601 -6)" fill="#fff" opacity="0"/>
    <path id="패스_203448" data-name="패스 203448" d="M22.2,15.2H2.2a1,1,0,0,1-1-1V2.2a1,1,0,0,1,1-1h20a1,1,0,0,1,1,1v12a1,1,0,0,1-1,1" fill="#cbebf4"/>
    <path id="패스_203449" data-name="패스 203449" d="M22.2,1.2a1,1,0,0,1,1,1v12a1,1,0,0,1-1,1H2.2a1,1,0,0,1-1-1V2.2a1,1,0,0,1,1-1Zm0-1.2H2.2A2.2,2.2,0,0,0,0,2.2v12a2.2,2.2,0,0,0,2.2,2.2h20a2.2,2.2,0,0,0,2.2-2.2V2.2A2.2,2.2,0,0,0,22.2,0" fill="#333"/>
    <line id="선_2472" data-name="선 2472" y2="3" transform="translate(12.2 15.691)" fill="#64acf4"/>
    <rect id="사각형_151001" data-name="사각형 151001" width="1.199" height="3" transform="translate(11.6 15.691)" fill="#333"/>
    <line id="선_2473" data-name="선 2473" x2="12" transform="translate(6.2 18.691)" fill="#64acf4"/>
    <rect id="사각형_151002" data-name="사각형 151002" width="12" height="1.199" transform="translate(6.2 18.092)" fill="#333"/>
    <path id="패스_203450" data-name="패스 203450" d="M21.7,18.682h0a2.5,2.5,0,0,1-2.5-2.5v-2a2.5,2.5,0,1,1,5,0v2a2.5,2.5,0,0,1-2.5,2.5" fill="#fcfcfc"/>
    <path id="패스_203451" data-name="패스 203451" d="M21.7,19.281a3.1,3.1,0,0,1-3.1-3.1v-2a3.1,3.1,0,0,1,6.2,0v2a3.1,3.1,0,0,1-3.1,3.1m0-7a1.9,1.9,0,0,0-1.9,1.9v2a1.9,1.9,0,1,0,3.8,0v-2a1.9,1.9,0,0,0-1.9-1.9" fill="#333"/>
    <path id="패스_203452" data-name="패스 203452" d="M21.579,11.992V14.2H19.373a2.268,2.268,0,0,1,2.206-2.206" fill="#ffbc00"/>
    <path id="패스_203453" data-name="패스 203453" d="M21.579,14.7H19.372a.5.5,0,0,1-.5-.527,2.707,2.707,0,0,1,2.706-2.679.5.5,0,0,1,.5.5V14.2a.5.5,0,0,1-.5.5m-1.6-1h1.1V12.554a1.62,1.62,0,0,0-1.1,1.144" fill="#333"/>
    <rect id="사각형_151003" data-name="사각형 151003" width="2" height="3" transform="translate(7.2 7.7)" fill="#64acf4"/>
    <path id="패스_203454" data-name="패스 203454" d="M9.7,11.2h-3v-4h3Zm-2-1h1v-2h-1Z" fill="#333"/>
    <rect id="사각형_151004" data-name="사각형 151004" width="2" height="5" transform="translate(11.2 5.7)" fill="#64acf4"/>
    <path id="패스_203455" data-name="패스 203455" d="M13.7,11.2h-3v-6h3Zm-2-1h1v-4h-1Z" fill="#333"/>
    <rect id="사각형_151005" data-name="사각형 151005" width="2" height="2" transform="translate(15.2 8.7)" fill="#64acf4"/>
    <path id="패스_203456" data-name="패스 203456" d="M17.7,11.2h-3v-3h3Zm-2-1h1v-1h-1Z" fill="#333"/>
  </g>
</svg>
