<svg xmlns="http://www.w3.org/2000/svg" xmlns:xlink="http://www.w3.org/1999/xlink" width="140" height="140" viewBox="0 0 140 140">
  <defs>
    <style>
      .cls-1 {
        fill: none;
      }

      .cls-2 {
        fill: #fff;
        opacity: 0;
      }

      .cls-3 {
        clip-path: url(#clip-path);
      }

      .cls-4 {
        fill: #92d7ef;
      }

      .cls-5 {
        fill: #54c4e2;
      }

      .cls-6 {
        fill: #1a1a1a;
      }
    </style>
    <clipPath id="clip-path">
      <rect id="사각형_150991" data-name="사각형 150991" class="cls-1" width="120" height="74.796" transform="translate(0 0)"/>
    </clipPath>
  </defs>
  <g id="icon_흐림_Big" transform="translate(-1060 -526)">
    <rect id="사각형_150989" data-name="사각형 150989" class="cls-2" width="140" height="140" transform="translate(1060 526)"/>
    <g id="그룹_124513" data-name="그룹 124513" transform="translate(1070 558.602)">
      <g id="그룹_124512" data-name="그룹 124512" class="cls-3">
        <path id="패스_203252" data-name="패스 203252" class="cls-4" d="M89.9,19.809h1.5a26.394,26.394,0,0,1,0,52.787H32.013a30.812,30.812,0,1,1,2.2-61.585A30.027,30.027,0,0,1,44,12.617a26.394,26.394,0,0,1,45.9,7.192"/>
        <path id="패스_203253" data-name="패스 203253" class="cls-5" d="M104.6,59.4H45.211a30.791,30.791,0,0,1-25.14-44.934A30.792,30.792,0,0,0,32.014,72.6H91.4a26.392,26.392,0,0,0,24.04-15.55A26.2,26.2,0,0,1,104.6,59.4"/>
        <path id="패스_203254" data-name="패스 203254" class="cls-6" d="M116.539,32.566a2.226,2.226,0,1,0-3.871,2.2A24.195,24.195,0,0,1,91.4,70.4H32.168a28.611,28.611,0,1,1,2.045-57.186A27.9,27.9,0,0,1,43.3,14.706a2.2,2.2,0,0,0,2.463-.747,24.194,24.194,0,0,1,42.076,6.6,2.2,2.2,0,0,0,2.2,1.474,24.634,24.634,0,0,1,17.6,6.224,2.2,2.2,0,1,0,2.859-3.343A28.414,28.414,0,0,0,91.4,17.61a28.592,28.592,0,0,0-48.168-7.544,32.435,32.435,0,0,0-9.018-1.254,33.014,33.014,0,0,0-2.4,65.984H91.4a28.594,28.594,0,0,0,25.14-42.23"/>
      </g>
    </g>
  </g>
</svg>
