<svg xmlns="http://www.w3.org/2000/svg" xmlns:xlink="http://www.w3.org/1999/xlink" width="66" height="71.416" viewBox="0 0 66 71.416">
  <defs>
    <style>
      .cls-1, .cls-2 {
        fill: #f4f6fa;
      }

      .cls-1, .cls-4 {
        stroke-linejoin: round;
      }

      .cls-3 {
        fill: #fff;
      }

      .cls-4 {
        fill: none;
      }

      .cls-5, .cls-6 {
        stroke: none;
      }

      .cls-6 {
        fill: #1a1a1a;
      }

      .cls-7 {
        filter: url(#합치기_8);
      }

      .cls-8 {
        filter: url(#합치기_9-2);
      }

      .cls-9 {
        filter: url(#합치기_9);
      }
    </style>
    <filter id="합치기_9" x="0" y="0" width="66" height="71.416" filterUnits="userSpaceOnUse">
      <feOffset dx="2" dy="3" input="SourceAlpha"/>
      <feGaussianBlur result="blur"/>
      <feFlood flood-opacity="0.102"/>
      <feComposite operator="in" in2="blur"/>
    </filter>
    <filter id="합치기_9-2" x="0" y="0" width="66" height="71.416" filterUnits="userSpaceOnUse">
      <feOffset dx="5" dy="7" input="SourceAlpha"/>
      <feGaussianBlur result="blur-2"/>
      <feFlood flood-color="#c7dee8" flood-opacity="0.4" result="color"/>
      <feComposite operator="out" in="SourceGraphic" in2="blur-2"/>
      <feComposite operator="in" in="color"/>
      <feComposite operator="in" in2="SourceGraphic"/>
    </filter>
    <filter id="합치기_8" x="28.999" y="19.998" width="8" height="22.001" filterUnits="userSpaceOnUse">
      <feOffset dx="2" dy="2" input="SourceAlpha"/>
      <feGaussianBlur result="blur-3"/>
      <feFlood flood-opacity="0.102"/>
      <feComposite operator="in" in2="blur-3"/>
      <feComposite in="SourceGraphic"/>
    </filter>
  </defs>
  <g id="Icon_상황표현" transform="translate(-845 -312.001)">
    <g data-type="innerShadowGroup">
      <g class="cls-9" transform="matrix(1, 0, 0, 1, 845, 312)">
        <g id="합치기_9-3" data-name="합치기 9" class="cls-1" transform="translate(-7052 -14164)">
          <path class="cls-5" d="M 7079.68701171875 14230.07421875 L 7078.16943359375 14222.90625 L 7077.96875 14221.9580078125 L 7077.0224609375 14221.7509765625 C 7073.6904296875 14221.0224609375 7070.533203125 14219.779296875 7067.6376953125 14218.0556640625 C 7064.79833984375 14216.3642578125 7062.28955078125 14214.2607421875 7060.181640625 14211.8017578125 C 7058.0595703125 14209.3251953125 7056.4072265625 14206.5634765625 7055.2705078125 14203.5908203125 C 7054.09619140625 14200.51953125 7053.50048828125 14197.2939453125 7053.50048828125 14194.0009765625 C 7053.50048828125 14190.1650390625 7054.3017578125 14186.443359375 7055.88232421875 14182.9404296875 C 7057.41259765625 14179.548828125 7059.60498046875 14176.5009765625 7062.39892578125 14173.8818359375 C 7065.19970703125 14171.255859375 7068.462890625 14169.1943359375 7072.09765625 14167.7529296875 C 7075.8662109375 14166.2587890625 7079.87109375 14165.5009765625 7084.0009765625 14165.5009765625 C 7088.130859375 14165.5009765625 7092.1357421875 14166.2587890625 7095.90380859375 14167.7529296875 C 7099.53857421875 14169.1943359375 7102.8017578125 14171.255859375 7105.6025390625 14173.8818359375 C 7108.396484375 14176.5009765625 7110.5888671875 14179.548828125 7112.119140625 14182.9404296875 C 7113.69970703125 14186.443359375 7114.5009765625 14190.1650390625 7114.5009765625 14194.0009765625 C 7114.5009765625 14199.2080078125 7112.98388671875 14204.302734375 7110.11376953125 14208.7333984375 C 7107.314453125 14213.0556640625 7103.3291015625 14216.6181640625 7098.587890625 14219.0361328125 L 7098.5498046875 14219.0556640625 L 7098.51318359375 14219.0771484375 L 7079.68701171875 14230.07421875 Z"/>
          <path class="cls-6" d="M 7080.72412109375 14227.73046875 L 7097.75634765625 14217.78125 C 7097.8056640625 14217.7529296875 7097.85595703125 14217.7255859375 7097.90673828125 14217.69921875 C 7102.4130859375 14215.4013671875 7106.19873046875 14212.01953125 7108.85498046875 14207.91796875 C 7111.5673828125 14203.73046875 7113.0009765625 14198.91796875 7113.0009765625 14194.0009765625 C 7113.0009765625 14190.37890625 7112.244140625 14186.865234375 7110.75146484375 14183.556640625 C 7109.30322265625 14180.3466796875 7107.2255859375 14177.4599609375 7104.57666015625 14174.9765625 C 7101.9140625 14172.4794921875 7098.81005859375 14170.5185546875 7095.35107421875 14169.1474609375 C 7091.75927734375 14167.72265625 7087.94091796875 14167.0009765625 7084.0009765625 14167.0009765625 C 7080.06103515625 14167.0009765625 7076.2421875 14167.72265625 7072.650390625 14169.1474609375 C 7069.19140625 14170.5185546875 7066.087890625 14172.4794921875 7063.4248046875 14174.9765625 C 7060.77587890625 14177.4599609375 7058.6982421875 14180.3466796875 7057.25 14183.556640625 C 7055.75732421875 14186.865234375 7055.00048828125 14190.37890625 7055.00048828125 14194.0009765625 C 7055.00048828125 14197.109375 7055.5625 14200.15625 7056.67138671875 14203.0546875 C 7057.74658203125 14205.8662109375 7059.31103515625 14208.48046875 7061.3203125 14210.8251953125 C 7063.322265625 14213.16015625 7065.70556640625 14215.1591796875 7068.40478515625 14216.7666015625 C 7071.16162109375 14218.4072265625 7074.1689453125 14219.591796875 7077.34326171875 14220.2861328125 C 7078.4951171875 14220.5380859375 7079.39306640625 14221.44140625 7079.63720703125 14222.595703125 L 7080.72412109375 14227.73046875 M 7078.64990234375 14232.4169921875 L 7076.7021484375 14223.216796875 C 7062.5458984375 14220.1201171875 7052.00048828125 14208.2138671875 7052.00048828125 14194.0009765625 C 7052.00048828125 14177.431640625 7066.3271484375 14164.0009765625 7084.0009765625 14164.0009765625 C 7101.67431640625 14164.0009765625 7116.0009765625 14177.431640625 7116.0009765625 14194.0009765625 C 7116.0009765625 14205.384765625 7109.236328125 14215.2890625 7099.26953125 14220.3720703125 L 7078.64990234375 14232.4169921875 Z"/>
        </g>
      </g>
      <g id="합치기_9-4" data-name="합치기 9" class="cls-2" transform="translate(-6207 -13852)">
        <path class="cls-5" d="M 7079.68701171875 14230.07421875 L 7078.16943359375 14222.90625 L 7077.96875 14221.9580078125 L 7077.0224609375 14221.7509765625 C 7073.6904296875 14221.0224609375 7070.533203125 14219.779296875 7067.6376953125 14218.0556640625 C 7064.79833984375 14216.3642578125 7062.28955078125 14214.2607421875 7060.181640625 14211.8017578125 C 7058.0595703125 14209.3251953125 7056.4072265625 14206.5634765625 7055.2705078125 14203.5908203125 C 7054.09619140625 14200.51953125 7053.50048828125 14197.2939453125 7053.50048828125 14194.0009765625 C 7053.50048828125 14190.1650390625 7054.3017578125 14186.443359375 7055.88232421875 14182.9404296875 C 7057.41259765625 14179.548828125 7059.60498046875 14176.5009765625 7062.39892578125 14173.8818359375 C 7065.19970703125 14171.255859375 7068.462890625 14169.1943359375 7072.09765625 14167.7529296875 C 7075.8662109375 14166.2587890625 7079.87109375 14165.5009765625 7084.0009765625 14165.5009765625 C 7088.130859375 14165.5009765625 7092.1357421875 14166.2587890625 7095.90380859375 14167.7529296875 C 7099.53857421875 14169.1943359375 7102.8017578125 14171.255859375 7105.6025390625 14173.8818359375 C 7108.396484375 14176.5009765625 7110.5888671875 14179.548828125 7112.119140625 14182.9404296875 C 7113.69970703125 14186.443359375 7114.5009765625 14190.1650390625 7114.5009765625 14194.0009765625 C 7114.5009765625 14199.2080078125 7112.98388671875 14204.302734375 7110.11376953125 14208.7333984375 C 7107.314453125 14213.0556640625 7103.3291015625 14216.6181640625 7098.587890625 14219.0361328125 L 7098.5498046875 14219.0556640625 L 7098.51318359375 14219.0771484375 L 7079.68701171875 14230.07421875 Z"/>
        <path class="cls-5" d="M 7080.72412109375 14227.73046875 L 7097.75634765625 14217.78125 C 7097.8056640625 14217.7529296875 7097.85595703125 14217.7255859375 7097.90673828125 14217.69921875 C 7102.4130859375 14215.4013671875 7106.19873046875 14212.01953125 7108.85498046875 14207.91796875 C 7111.5673828125 14203.73046875 7113.0009765625 14198.91796875 7113.0009765625 14194.0009765625 C 7113.0009765625 14190.37890625 7112.244140625 14186.865234375 7110.75146484375 14183.556640625 C 7109.30322265625 14180.3466796875 7107.2255859375 14177.4599609375 7104.57666015625 14174.9765625 C 7101.9140625 14172.4794921875 7098.81005859375 14170.5185546875 7095.35107421875 14169.1474609375 C 7091.75927734375 14167.72265625 7087.94091796875 14167.0009765625 7084.0009765625 14167.0009765625 C 7080.06103515625 14167.0009765625 7076.2421875 14167.72265625 7072.650390625 14169.1474609375 C 7069.19140625 14170.5185546875 7066.087890625 14172.4794921875 7063.4248046875 14174.9765625 C 7060.77587890625 14177.4599609375 7058.6982421875 14180.3466796875 7057.25 14183.556640625 C 7055.75732421875 14186.865234375 7055.00048828125 14190.37890625 7055.00048828125 14194.0009765625 C 7055.00048828125 14197.109375 7055.5625 14200.15625 7056.67138671875 14203.0546875 C 7057.74658203125 14205.8662109375 7059.31103515625 14208.48046875 7061.3203125 14210.8251953125 C 7063.322265625 14213.16015625 7065.70556640625 14215.1591796875 7068.40478515625 14216.7666015625 C 7071.16162109375 14218.4072265625 7074.1689453125 14219.591796875 7077.34326171875 14220.2861328125 C 7078.4951171875 14220.5380859375 7079.39306640625 14221.44140625 7079.63720703125 14222.595703125 L 7080.72412109375 14227.73046875 M 7078.64990234375 14232.4169921875 L 7076.7021484375 14223.216796875 C 7062.5458984375 14220.1201171875 7052.00048828125 14208.2138671875 7052.00048828125 14194.0009765625 C 7052.00048828125 14177.431640625 7066.3271484375 14164.0009765625 7084.0009765625 14164.0009765625 C 7101.67431640625 14164.0009765625 7116.0009765625 14177.431640625 7116.0009765625 14194.0009765625 C 7116.0009765625 14205.384765625 7109.236328125 14215.2890625 7099.26953125 14220.3720703125 L 7078.64990234375 14232.4169921875 Z"/>
      </g>
      <g class="cls-8" transform="matrix(1, 0, 0, 1, 845, 312)">
        <g id="합치기_9-5" data-name="합치기 9" class="cls-3" transform="translate(-7052 -14164)">
          <path class="cls-5" d="M 7079.68701171875 14230.07421875 L 7078.16943359375 14222.90625 L 7077.96875 14221.9580078125 L 7077.0224609375 14221.7509765625 C 7073.6904296875 14221.0224609375 7070.533203125 14219.779296875 7067.6376953125 14218.0556640625 C 7064.79833984375 14216.3642578125 7062.28955078125 14214.2607421875 7060.181640625 14211.8017578125 C 7058.0595703125 14209.3251953125 7056.4072265625 14206.5634765625 7055.2705078125 14203.5908203125 C 7054.09619140625 14200.51953125 7053.50048828125 14197.2939453125 7053.50048828125 14194.0009765625 C 7053.50048828125 14190.1650390625 7054.3017578125 14186.443359375 7055.88232421875 14182.9404296875 C 7057.41259765625 14179.548828125 7059.60498046875 14176.5009765625 7062.39892578125 14173.8818359375 C 7065.19970703125 14171.255859375 7068.462890625 14169.1943359375 7072.09765625 14167.7529296875 C 7075.8662109375 14166.2587890625 7079.87109375 14165.5009765625 7084.0009765625 14165.5009765625 C 7088.130859375 14165.5009765625 7092.1357421875 14166.2587890625 7095.90380859375 14167.7529296875 C 7099.53857421875 14169.1943359375 7102.8017578125 14171.255859375 7105.6025390625 14173.8818359375 C 7108.396484375 14176.5009765625 7110.5888671875 14179.548828125 7112.119140625 14182.9404296875 C 7113.69970703125 14186.443359375 7114.5009765625 14190.1650390625 7114.5009765625 14194.0009765625 C 7114.5009765625 14199.2080078125 7112.98388671875 14204.302734375 7110.11376953125 14208.7333984375 C 7107.314453125 14213.0556640625 7103.3291015625 14216.6181640625 7098.587890625 14219.0361328125 L 7098.5498046875 14219.0556640625 L 7098.51318359375 14219.0771484375 L 7079.68701171875 14230.07421875 Z"/>
          <path class="cls-5" d="M 7080.72412109375 14227.73046875 L 7097.75634765625 14217.78125 C 7097.8056640625 14217.7529296875 7097.85595703125 14217.7255859375 7097.90673828125 14217.69921875 C 7102.4130859375 14215.4013671875 7106.19873046875 14212.01953125 7108.85498046875 14207.91796875 C 7111.5673828125 14203.73046875 7113.0009765625 14198.91796875 7113.0009765625 14194.0009765625 C 7113.0009765625 14190.37890625 7112.244140625 14186.865234375 7110.75146484375 14183.556640625 C 7109.30322265625 14180.3466796875 7107.2255859375 14177.4599609375 7104.57666015625 14174.9765625 C 7101.9140625 14172.4794921875 7098.81005859375 14170.5185546875 7095.35107421875 14169.1474609375 C 7091.75927734375 14167.72265625 7087.94091796875 14167.0009765625 7084.0009765625 14167.0009765625 C 7080.06103515625 14167.0009765625 7076.2421875 14167.72265625 7072.650390625 14169.1474609375 C 7069.19140625 14170.5185546875 7066.087890625 14172.4794921875 7063.4248046875 14174.9765625 C 7060.77587890625 14177.4599609375 7058.6982421875 14180.3466796875 7057.25 14183.556640625 C 7055.75732421875 14186.865234375 7055.00048828125 14190.37890625 7055.00048828125 14194.0009765625 C 7055.00048828125 14197.109375 7055.5625 14200.15625 7056.67138671875 14203.0546875 C 7057.74658203125 14205.8662109375 7059.31103515625 14208.48046875 7061.3203125 14210.8251953125 C 7063.322265625 14213.16015625 7065.70556640625 14215.1591796875 7068.40478515625 14216.7666015625 C 7071.16162109375 14218.4072265625 7074.1689453125 14219.591796875 7077.34326171875 14220.2861328125 C 7078.4951171875 14220.5380859375 7079.39306640625 14221.44140625 7079.63720703125 14222.595703125 L 7080.72412109375 14227.73046875 M 7078.64990234375 14232.4169921875 L 7076.7021484375 14223.216796875 C 7062.5458984375 14220.1201171875 7052.00048828125 14208.2138671875 7052.00048828125 14194.0009765625 C 7052.00048828125 14177.431640625 7066.3271484375 14164.0009765625 7084.0009765625 14164.0009765625 C 7101.67431640625 14164.0009765625 7116.0009765625 14177.431640625 7116.0009765625 14194.0009765625 C 7116.0009765625 14205.384765625 7109.236328125 14215.2890625 7099.26953125 14220.3720703125 L 7078.64990234375 14232.4169921875 Z"/>
        </g>
      </g>
      <g id="합치기_9-6" data-name="합치기 9" class="cls-4" transform="translate(-6207 -13852)">
        <path class="cls-5" d="M 7079.68701171875 14230.07421875 L 7078.16943359375 14222.90625 L 7077.96875 14221.9580078125 L 7077.0224609375 14221.7509765625 C 7073.6904296875 14221.0224609375 7070.533203125 14219.779296875 7067.6376953125 14218.0556640625 C 7064.79833984375 14216.3642578125 7062.28955078125 14214.2607421875 7060.181640625 14211.8017578125 C 7058.0595703125 14209.3251953125 7056.4072265625 14206.5634765625 7055.2705078125 14203.5908203125 C 7054.09619140625 14200.51953125 7053.50048828125 14197.2939453125 7053.50048828125 14194.0009765625 C 7053.50048828125 14190.1650390625 7054.3017578125 14186.443359375 7055.88232421875 14182.9404296875 C 7057.41259765625 14179.548828125 7059.60498046875 14176.5009765625 7062.39892578125 14173.8818359375 C 7065.19970703125 14171.255859375 7068.462890625 14169.1943359375 7072.09765625 14167.7529296875 C 7075.8662109375 14166.2587890625 7079.87109375 14165.5009765625 7084.0009765625 14165.5009765625 C 7088.130859375 14165.5009765625 7092.1357421875 14166.2587890625 7095.90380859375 14167.7529296875 C 7099.53857421875 14169.1943359375 7102.8017578125 14171.255859375 7105.6025390625 14173.8818359375 C 7108.396484375 14176.5009765625 7110.5888671875 14179.548828125 7112.119140625 14182.9404296875 C 7113.69970703125 14186.443359375 7114.5009765625 14190.1650390625 7114.5009765625 14194.0009765625 C 7114.5009765625 14199.2080078125 7112.98388671875 14204.302734375 7110.11376953125 14208.7333984375 C 7107.314453125 14213.0556640625 7103.3291015625 14216.6181640625 7098.587890625 14219.0361328125 L 7098.5498046875 14219.0556640625 L 7098.51318359375 14219.0771484375 L 7079.68701171875 14230.07421875 Z"/>
        <path class="cls-6" d="M 7080.72412109375 14227.73046875 L 7097.75634765625 14217.78125 C 7097.8056640625 14217.7529296875 7097.85595703125 14217.7255859375 7097.90673828125 14217.69921875 C 7102.4130859375 14215.4013671875 7106.19873046875 14212.01953125 7108.85498046875 14207.91796875 C 7111.5673828125 14203.73046875 7113.0009765625 14198.91796875 7113.0009765625 14194.0009765625 C 7113.0009765625 14190.37890625 7112.244140625 14186.865234375 7110.75146484375 14183.556640625 C 7109.30322265625 14180.3466796875 7107.2255859375 14177.4599609375 7104.57666015625 14174.9765625 C 7101.9140625 14172.4794921875 7098.81005859375 14170.5185546875 7095.35107421875 14169.1474609375 C 7091.75927734375 14167.72265625 7087.94091796875 14167.0009765625 7084.0009765625 14167.0009765625 C 7080.06103515625 14167.0009765625 7076.2421875 14167.72265625 7072.650390625 14169.1474609375 C 7069.19140625 14170.5185546875 7066.087890625 14172.4794921875 7063.4248046875 14174.9765625 C 7060.77587890625 14177.4599609375 7058.6982421875 14180.3466796875 7057.25 14183.556640625 C 7055.75732421875 14186.865234375 7055.00048828125 14190.37890625 7055.00048828125 14194.0009765625 C 7055.00048828125 14197.109375 7055.5625 14200.15625 7056.67138671875 14203.0546875 C 7057.74658203125 14205.8662109375 7059.31103515625 14208.48046875 7061.3203125 14210.8251953125 C 7063.322265625 14213.16015625 7065.70556640625 14215.1591796875 7068.40478515625 14216.7666015625 C 7071.16162109375 14218.4072265625 7074.1689453125 14219.591796875 7077.34326171875 14220.2861328125 C 7078.4951171875 14220.5380859375 7079.39306640625 14221.44140625 7079.63720703125 14222.595703125 L 7080.72412109375 14227.73046875 M 7078.64990234375 14232.4169921875 L 7076.7021484375 14223.216796875 C 7062.5458984375 14220.1201171875 7052.00048828125 14208.2138671875 7052.00048828125 14194.0009765625 C 7052.00048828125 14177.431640625 7066.3271484375 14164.0009765625 7084.0009765625 14164.0009765625 C 7101.67431640625 14164.0009765625 7116.0009765625 14177.431640625 7116.0009765625 14194.0009765625 C 7116.0009765625 14205.384765625 7109.236328125 14215.2890625 7099.26953125 14220.3720703125 L 7078.64990234375 14232.4169921875 Z"/>
      </g>
    </g>
    <g class="cls-7" transform="matrix(1, 0, 0, 1, 845, 312)">
      <path id="합치기_8-2" data-name="합치기 8" d="M7054,14181v-4h4v4Zm0-6-1-14h6l-1,14Z" transform="translate(-7024 -14141)"/>
    </g>
  </g>
</svg>
