<svg xmlns="http://www.w3.org/2000/svg" width="30" height="30" viewBox="0 0 30 30">
  <g id="Icon" transform="translate(2.4 2.46)">
    <rect id="bg_icon" width="30" height="30" transform="translate(-2.4 -2.46)" fill="#fff" opacity="0"/>
    <path id="패스_203373" data-name="패스 203373" d="M24.6,5.5l-2.447,8.49a3,3,0,0,1-2.883,2.169H6.757L4.522,5.5Z" fill="#d2f2f7"/>
    <path id="패스_203374" data-name="패스 203374" d="M19.3,16.7H7a.6.6,0,0,1,0-1.2H19.3a2.388,2.388,0,0,0,2.3-1.7l2.426-7.98a.6.6,0,0,1,1.148.35l-2.426,7.979A3.577,3.577,0,0,1,19.3,16.7" fill="#333"/>
    <path id="패스_203375" data-name="패스 203375" d="M21.391,19.193H7.6a.6.6,0,0,1-.585-.464l-3.01-13A2.388,2.388,0,0,0,1.67,3.871H.6a.6.6,0,1,1,0-1.2H1.67A3.583,3.583,0,0,1,5.178,5.46l2.9,12.534H21.391a.6.6,0,1,1,0,1.2" fill="#333"/>
    <path id="패스_203376" data-name="패스 203376" d="M11.038,22.48a2,2,0,1,1-2-2,2,2,0,0,1,2,2" fill="#64acf4"/>
    <path id="패스_203377" data-name="패스 203377" d="M9.038,25.08a2.6,2.6,0,1,1,2.6-2.6,2.6,2.6,0,0,1-2.6,2.6m0-4a1.4,1.4,0,1,0,1.4,1.4,1.4,1.4,0,0,0-1.4-1.4" fill="#333"/>
    <path id="패스_203378" data-name="패스 203378" d="M21.428,22.48a2,2,0,1,1-2-2,2,2,0,0,1,2,2" fill="#64acf4"/>
    <path id="패스_203379" data-name="패스 203379" d="M19.428,25.08a2.6,2.6,0,1,1,2.6-2.6,2.6,2.6,0,0,1-2.6,2.6m0-4a1.4,1.4,0,1,0,1.4,1.4,1.4,1.4,0,0,0-1.4-1.4" fill="#333"/>
    <path id="패스_203380" data-name="패스 203380" d="M20,8.759A6.044,6.044,0,0,1,15,12.243c-.383.033-2.335,1.394-2.723,1.353,0,0,.384-1.574-.186-1.816A5.738,5.738,0,0,1,9.038,4.1a6.1,6.1,0,0,1,7.916-3.021A5.738,5.738,0,0,1,20,8.759" fill="#ffbc00"/>
    <path id="패스_203381" data-name="패스 203381" d="M12.291,14.2a.7.7,0,0,1-.08,0,.6.6,0,0,1-.52-.739,3.1,3.1,0,0,0,.084-1.157A6.39,6.39,0,0,1,8.35,8.749a6.247,6.247,0,0,1,.142-4.892,6.714,6.714,0,0,1,8.7-3.326,6.4,6.4,0,0,1,3.5,3.584,6.245,6.245,0,0,1-.142,4.893,6.647,6.647,0,0,1-5.5,3.834c-.1.034-.617.339-.963.54a4.536,4.536,0,0,1-1.794.815m2.277-13A5.468,5.468,0,0,0,9.584,4.353a5.061,5.061,0,0,0-.116,3.961,5.214,5.214,0,0,0,2.854,2.914,1.377,1.377,0,0,1,.684,1.393l.476-.277a4.373,4.373,0,0,1,1.465-.7,5.449,5.449,0,0,0,4.511-3.135,5.061,5.061,0,0,0,.116-3.961A5.208,5.208,0,0,0,16.72,1.637,5.48,5.48,0,0,0,14.568,1.2M20,8.76h0Z" fill="#333"/>
    <path id="패스_203382" data-name="패스 203382" d="M14.036,8.872a.6.6,0,0,1-.375-.131L11.407,6.936A.6.6,0,1,1,12.157,6L13.993,7.47l2.923-2.9a.6.6,0,1,1,.846.852L14.459,8.7a.6.6,0,0,1-.423.174" fill="#333"/>
  </g>
</svg>
