<svg xmlns="http://www.w3.org/2000/svg" xmlns:xlink="http://www.w3.org/1999/xlink" width="140" height="140" viewBox="0 0 140 140">
  <defs>
    <style>
      .cls-1 {
        fill: none;
      }

      .cls-2 {
        fill: #fff;
        opacity: 0;
      }

      .cls-3 {
        clip-path: url(#clip-path);
      }

      .cls-4 {
        fill: #f9d53d;
      }

      .cls-5 {
        fill: #f7b43e;
      }

      .cls-6 {
        fill: #1a1a1a;
      }

      .cls-7 {
        fill: gray;
      }

      .cls-8 {
        fill: #666;
      }
    </style>
    <clipPath id="clip-path">
      <rect id="사각형_150993" data-name="사각형 150993" class="cls-1" width="120" height="107.031" transform="translate(0 0)"/>
    </clipPath>
  </defs>
  <g id="icon_구름조금_Big" transform="translate(-1060 -526)">
    <rect id="사각형_150989" data-name="사각형 150989" class="cls-2" width="140" height="140" transform="translate(1060 526)"/>
    <g id="그룹_124517" data-name="그룹 124517" transform="translate(1070 542.484)">
      <g id="그룹_124516" data-name="그룹 124516" class="cls-3">
        <path id="패스_203259" data-name="패스 203259" class="cls-4" d="M110.758,41.355A34.076,34.076,0,0,1,76.682,7.279,33.571,33.571,0,0,1,77.474.047a34.077,34.077,0,1,0,40.515,40.516,33.555,33.555,0,0,1-7.231.792"/>
        <path id="패스_203260" data-name="패스 203260" class="cls-5" d="M96.593,55.52A34.037,34.037,0,0,1,67.311,4.009a34.057,34.057,0,1,0,46.716,46.717A33.822,33.822,0,0,1,96.593,55.52"/>
        <path id="패스_203261" data-name="패스 203261" class="cls-6" d="M119.4,41.137a1.979,1.979,0,0,0-1.842-.535,31.453,31.453,0,0,1-6.8.753A32.135,32.135,0,0,1,78.663,9.26a31.692,31.692,0,0,1,.753-6.816,1.982,1.982,0,0,0-2.358-2.4,35.839,35.839,0,0,0-28.41,34.631,1.981,1.981,0,1,0,3.962,0A31.857,31.857,0,0,1,75,4.723a34.765,34.765,0,0,0-.3,4.537,36.077,36.077,0,0,0,36.057,36.057,34.45,34.45,0,0,0,4.517-.3A32.3,32.3,0,0,1,105.548,59.7a1.981,1.981,0,0,0,2.535,3.011A36.37,36.37,0,0,0,119.971,42.9a1.982,1.982,0,0,0-.575-1.763"/>
        <path id="패스_203262" data-name="패스 203262" class="cls-7" d="M80.981,55.52h1.347a23.774,23.774,0,0,1,0,47.548H28.836A27.754,27.754,0,1,1,30.817,47.6a27.065,27.065,0,0,1,8.817,1.447A23.773,23.773,0,0,1,80.981,55.52"/>
        <path id="패스_203263" data-name="패스 203263" class="cls-8" d="M94.215,91.182H40.723A27.737,27.737,0,0,1,18.078,50.706a27.737,27.737,0,0,0,10.758,52.363H82.328a23.772,23.772,0,0,0,21.654-14.007,23.608,23.608,0,0,1-9.767,2.12"/>
        <path id="패스_203264" data-name="패스 203264" class="cls-6" d="M82.328,55.52a25.754,25.754,0,0,0-43.388-6.8,29.212,29.212,0,0,0-8.123-1.13,29.738,29.738,0,0,0-2.159,59.436h8.1a1.981,1.981,0,0,0,0-3.963H28.975a25.771,25.771,0,0,1,1.842-51.51A25.114,25.114,0,0,1,39,52.9a1.982,1.982,0,0,0,2.2-.674,21.792,21.792,0,0,1,37.919,5.944A1.982,1.982,0,0,0,81.1,59.5l1.228-.02a21.793,21.793,0,0,1,0,43.586H44.686a1.981,1.981,0,1,0,0,3.963H82.328a25.755,25.755,0,0,0,0-51.511"/>
      </g>
    </g>
  </g>
</svg>
