<svg xmlns="http://www.w3.org/2000/svg" width="30" height="30" viewBox="0 0 30 30">
  <g id="Icon" transform="translate(3 3)">
    <rect id="bg_icon" width="30" height="30" transform="translate(-3 -3)" fill="#fff" opacity="0"/>
    <path id="패스_203398" data-name="패스 203398" d="M20.815,10.026H5.992v11h17V18.645Z" fill="#fcfcfc"/>
    <path id="패스_203399" data-name="패스 203399" d="M23.591,21.625H5.392V9.426h15.89l2.309,9.22Zm-17-1.2h15.8V18.72l-2.045-8.095H6.591Z" fill="#333"/>
    <path id="패스_203400" data-name="패스 203400" d="M8.572,12.526h13.1L20.353,6.85H8.572Z" fill="#ffbc00"/>
    <path id="패스_203401" data-name="패스 203401" d="M21.673,13.126H8.571a.6.6,0,0,1-.6-.6V6.851a.6.6,0,0,1,.6-.6H20.353a.6.6,0,0,1,.584.464l1.32,5.676a.6.6,0,0,1-.584.735m-12.5-1.2H20.917L19.876,7.45H9.171Z" fill="#333"/>
    <path id="패스_203402" data-name="패스 203402" d="M24.129,5.817,3.868,10.725,2.129,2.308H23.458Z" fill="#64acf4"/>
    <path id="패스_203403" data-name="패스 203403" d="M3.406,11.454,1.393,1.708H23.954l.872,4.557Zm-.54-8.547L4.33,9.995l19.1-4.626-.471-2.462Z" fill="#333"/>
    <path id="패스_203404" data-name="패스 203404" d="M7.242,7.722H1.9l-.656-3h6Z" fill="#cbebf4"/>
    <path id="패스_203405" data-name="패스 203405" d="M7.242,4.722v3H1.9l-.656-3Zm1-1H0L.265,4.936l.656,3,.172.786H8.242v-5Z" fill="#333"/>
    <path id="패스_203406" data-name="패스 203406" d="M19.8,2.608h0v0Z" fill="#fcfcfc"/>
    <rect id="사각형_150990" data-name="사각형 150990" width="1" height="2.607" transform="translate(19.304)" fill="#333"/>
    <path id="패스_203407" data-name="패스 203407" d="M9.21,5.027A1.49,1.49,0,1,1,7.721,3.538,1.489,1.489,0,0,1,9.21,5.027" fill="#fcfcfc"/>
    <path id="패스_203408" data-name="패스 203408" d="M7.72,7.016A1.989,1.989,0,1,1,9.71,5.027,1.991,1.991,0,0,1,7.72,7.016m0-2.979a.989.989,0,1,0,.99.99.99.99,0,0,0-.99-.99" fill="#333"/>
    <path id="패스_203409" data-name="패스 203409" d="M18.022,2.608h0v0Z" fill="#fcfcfc"/>
    <rect id="사각형_150991" data-name="사각형 150991" width="1" height="2.607" transform="translate(17.522)" fill="#333"/>
    <rect id="사각형_150992" data-name="사각형 150992" width="0.5" height="1" transform="translate(18.366 17.96)" fill="#333"/>
    <rect id="사각형_150993" data-name="사각형 150993" width="17" height="3" transform="translate(5.992 20.026)" fill="#565656"/>
    <path id="패스_203410" data-name="패스 203410" d="M23.591,23.625H5.392v-4.2h18.2Zm-17-1.2h15.8v-1.8H6.591Z" fill="#333"/>
    <path id="패스_203411" data-name="패스 203411" d="M16.865,23.026h-6v-5a1,1,0,0,1,1-1h4a1,1,0,0,1,1,1Z" fill="#333"/>
  </g>
</svg>
