<svg xmlns="http://www.w3.org/2000/svg" width="20" height="20" viewBox="0 0 20 20">
  <defs>
    <style>
      .cls-1 {
        fill: red;
        opacity: 0;
      }

      .cls-2 {
        fill: #2d73d3;
      }

      .cls-2, .cls-3, .cls-5, .cls-6 {
        stroke: #333;
      }

      .cls-3, .cls-4 {
        fill: #fff;
      }

      .cls-5 {
        fill: rgba(255,227,45,0.7);
      }

      .cls-6, .cls-8 {
        fill: none;
      }

      .cls-7 {
        stroke: none;
      }
    </style>
  </defs>
  <g id="ic_현황" transform="translate(-453 -588)">
    <rect id="사각형_150919" data-name="사각형 150919" class="cls-1" width="20" height="20" transform="translate(453 588)"/>
    <g id="사각형_150920" data-name="사각형 150920" class="cls-2" transform="translate(455 592)">
      <rect class="cls-7" width="16" height="11" rx="2"/>
      <rect class="cls-8" x="0.5" y="0.5" width="15" height="10" rx="1.5"/>
    </g>
    <g id="사각형_150921" data-name="사각형 150921" class="cls-3" transform="translate(457 605)">
      <rect class="cls-7" width="12" height="1"/>
      <rect class="cls-8" x="0.5" y="0.5" width="11"/>
    </g>
    <g id="사각형_150922" data-name="사각형 150922" class="cls-3" transform="translate(462.5 603)">
      <rect class="cls-7" width="1" height="3"/>
      <rect class="cls-8" x="0.5" y="0.5" height="2"/>
    </g>
    <rect id="사각형_150924" data-name="사각형 150924" class="cls-4" width="2" height="1" transform="translate(460.207 598) rotate(90)"/>
    <rect id="사각형_150928" data-name="사각형 150928" class="cls-4" width="5" height="1" transform="translate(462.5 600) rotate(-90)"/>
    <rect id="사각형_150929" data-name="사각형 150929" class="cls-4" width="4" height="1" transform="translate(465.8 600) rotate(-90)"/>
    <g id="down" transform="translate(-5671.457 5333.5) rotate(-90)">
      <g id="타원_2826" data-name="타원 2826" class="cls-5" transform="translate(4729 6135.457)">
        <circle class="cls-7" cx="3.5" cy="3.5" r="3.5"/>
        <circle class="cls-8" cx="3.5" cy="3.5" r="3"/>
      </g>
      <path id="패스_203405" data-name="패스 203405" class="cls-6" d="M2.277-.312,0,2" transform="translate(4728 6141.457)"/>
    </g>
  </g>
</svg>
