<svg xmlns="http://www.w3.org/2000/svg" width="30" height="30" viewBox="0 0 30 30">
  <g id="Icon" transform="translate(2.214 2.65)">
    <rect id="bg_icon" width="30" height="30" transform="translate(-2.214 -2.65)" fill="#fff" opacity="0"/>
    <path id="패스_203412" data-name="패스 203412" d="M12.6,24.1H3.465A2.911,2.911,0,0,1,.6,21.146V5.485A2.911,2.911,0,0,1,3.465,2.53H12.6Z" fill="#cbebf4"/>
    <path id="패스_203413" data-name="패스 203413" d="M13.2,24.7H3.465A3.514,3.514,0,0,1,0,21.146V5.484A3.515,3.515,0,0,1,3.465,1.93H13.2ZM3.465,3.129A2.315,2.315,0,0,0,1.2,5.484V21.146A2.315,2.315,0,0,0,3.465,23.5H12V3.129Z" fill="#333"/>
    <path id="패스_203414" data-name="패스 203414" d="M9.063,10.36H4.136a.493.493,0,0,1,0-.985H9.063a.493.493,0,1,1,0,.985" fill="#333"/>
    <path id="패스_203415" data-name="패스 203415" d="M6.107,13.315H4.137a.493.493,0,1,1,0-.985h1.97a.493.493,0,1,1,0,.985" fill="#333"/>
    <path id="패스_203416" data-name="패스 203416" d="M7.585,16.271H4.137a.493.493,0,0,1,0-.985H7.585a.493.493,0,1,1,0,.985" fill="#333"/>
    <path id="패스_203417" data-name="패스 203417" d="M12.972,24.1H23a1.985,1.985,0,0,0,1.971-2V4.53A1.985,1.985,0,0,0,23,2.53H12.972Z" fill="#64acf4"/>
    <path id="패스_203418" data-name="패스 203418" d="M23,24.7H12.372V1.93H23a2.587,2.587,0,0,1,2.57,2.6V22.1A2.587,2.587,0,0,1,23,24.7m-9.43-1.2H23a1.388,1.388,0,0,0,1.371-1.4V4.529A1.388,1.388,0,0,0,23,3.129h-9.43Z" fill="#333"/>
    <path id="패스_203419" data-name="패스 203419" d="M16.791.864l-4,1.749V23.6l5.82-2.546c2.855-1.455,3.18-2.8,3.18-5.7V4.24c0-2.9-2.542-4.259-5-3.376" fill="#ffbc00"/>
    <path id="패스_203420" data-name="패스 203420" d="M12.793,24.2a.6.6,0,0,1-.6-.6V2.612a.6.6,0,0,1,.359-.549l4-1.748L16.588.3A4.5,4.5,0,0,1,20.7.738a4.125,4.125,0,0,1,1.69,3.5V15.356c0,3.02-.346,4.62-3.508,6.23l-5.851,2.562a.615.615,0,0,1-.241.049m.6-21.192V22.681L18.372,20.5c2.587-1.319,2.822-2.4,2.822-5.146V4.239A2.96,2.96,0,0,0,20.012,1.72a3.305,3.305,0,0,0-3-.3Z" fill="#333"/>
  </g>
</svg>
