<svg id="ic_사람수" xmlns="http://www.w3.org/2000/svg" width="16" height="16" viewBox="0 0 16 16">
  <defs>
    <style>
      .cls-1 {
        fill: red;
      }

      .cls-1, .cls-2 {
        opacity: 0;
      }

      .cls-2, .cls-3, .cls-4 {
        fill: #fff;
      }

      .cls-3 {
        stroke: #333;
      }

      .cls-5, .cls-7 {
        stroke: none;
      }

      .cls-6 {
        fill: none;
      }

      .cls-7 {
        fill: #333;
      }
    </style>
  </defs>
  <rect id="사각형_150763" data-name="사각형 150763" class="cls-1" width="14" height="14" transform="translate(1 1)"/>
  <rect id="사각형_150762" data-name="사각형 150762" class="cls-2" width="16" height="16"/>
  <g id="타원_2907" data-name="타원 2907" class="cls-3" transform="translate(5.424 3.949)">
    <circle class="cls-5" cx="2.5" cy="2.5" r="2.5"/>
    <circle class="cls-6" cx="2.5" cy="2.5" r="2"/>
  </g>
  <g id="패스_203187" data-name="패스 203187" class="cls-4" transform="translate(4.424 7.949)">
    <path class="cls-5" d="M 6.447629928588867 3.602781534194946 L 0.6819232106208801 3.602781534194946 C 0.7693066596984863 3.237265110015869 0.9174568057060242 2.738628387451172 1.155491828918457 2.247201681137085 C 1.717061877250671 1.087841629981995 2.505871772766113 0.5000016093254089 3.500001907348633 0.5000016093254089 C 5.352480888366699 0.5000016093254089 6.159347534179688 2.565612077713013 6.447629928588867 3.602781534194946 Z"/>
    <path class="cls-7" d="M 3.500001907348633 1.000001668930054 C 3.208921909332275 1.000001668930054 2.323132038116455 1.000001668930054 1.614821910858154 2.446001529693604 C 1.506279945373535 2.66758918762207 1.417605400085449 2.891721248626709 1.345700263977051 3.102781772613525 L 5.756861209869385 3.102781772613525 C 5.683504581451416 2.911525249481201 5.59607982635498 2.710202932357788 5.492801666259766 2.510191440582275 C 5.248641967773438 2.037351608276367 4.967411994934082 1.669281482696533 4.656911849975586 1.416211605072021 C 4.313291549682617 1.136141538619995 3.934861898422241 1.000001668930054 3.500001907348633 1.000001668930054 M 3.500001907348633 1.430511474609375e-06 C 6.415341854095459 1.430511474609375e-06 7.076171875 4.102781772613525 7.076171875 4.102781772613525 L 0.076171875 4.102781772613525 C 0.076171875 4.102781772613525 0.5846519470214844 1.430511474609375e-06 3.500001907348633 1.430511474609375e-06 Z"/>
  </g>
</svg>
