<svg id="ic_star" xmlns="http://www.w3.org/2000/svg" width="24" height="24" viewBox="0 0 24 24">
  <defs>
    <style>
      .cls-1 {
        fill: #333;
        opacity: 0;
      }

      .cls-2 {
        fill: #ffe32d;
      }
    </style>
  </defs>
  <rect id="area" class="cls-1" width="24" height="24"/>
  <path id="star" class="cls-2" d="M19.866,7.7l-4.612,4.5,1.089,6.348a.442.442,0,0,1-.641.466l-5.7-3-5.7,3a.442.442,0,0,1-.641-.466L4.746,12.2.134,7.7a.442.442,0,0,1,.245-.754l6.374-.926L9.6.246a.442.442,0,0,1,.793,0l2.851,5.776,6.374.926A.442.442,0,0,1,19.866,7.7Z" transform="translate(2 2)"/>
</svg>
