<svg xmlns="http://www.w3.org/2000/svg" width="20" height="20" viewBox="0 0 20 20">
  <defs>
    <style>
      .cls-1 {
        fill: red;
        opacity: 0;
      }

      .cls-2 {
        fill: #2d73d3;
      }

      .cls-2, .cls-3 {
        stroke: #333;
      }

      .cls-3 {
        fill: #fff;
      }

      .cls-4 {
        fill: #333;
      }

      .cls-5 {
        fill: #ffeb3b;
        stroke: rgba(0,0,0,0);
        stroke-miterlimit: 10;
      }

      .cls-6 {
        stroke: none;
      }

      .cls-7 {
        fill: none;
      }
    </style>
  </defs>
  <g id="ic_저장" transform="translate(-422 -588)">
    <rect id="사각형_150909" data-name="사각형 150909" class="cls-1" width="20" height="20" transform="translate(422 588)"/>
    <g id="그룹_124502" data-name="그룹 124502" transform="translate(-2 2.5)">
      <g id="사각형_150910" data-name="사각형 150910" class="cls-2" transform="translate(439 589.5) rotate(90)">
        <rect class="cls-6" width="12" height="12" rx="1"/>
        <rect class="cls-7" x="0.5" y="0.5" width="11" height="11" rx="0.5"/>
      </g>
      <g id="사각형_150932" data-name="사각형 150932" class="cls-3" transform="translate(429 589.5)">
        <path class="cls-6" d="M0,0H8A0,0,0,0,1,8,0V4A1,1,0,0,1,7,5H1A1,1,0,0,1,0,4V0A0,0,0,0,1,0,0Z"/>
        <path class="cls-7" d="M.5.5h7a0,0,0,0,1,0,0V4a.5.5,0,0,1-.5.5H1A.5.5,0,0,1,.5,4V.5A0,0,0,0,1,.5.5Z"/>
      </g>
      <g id="사각형_150933" data-name="사각형 150933" class="cls-3" transform="translate(429 596.5)">
        <path class="cls-6" d="M0,0H8A0,0,0,0,1,8,0V4A1,1,0,0,1,7,5H1A1,1,0,0,1,0,4V0A0,0,0,0,1,0,0Z"/>
        <path class="cls-7" d="M.5.5h7a0,0,0,0,1,0,0V4a.5.5,0,0,1-.5.5H1A.5.5,0,0,1,.5,4V.5A0,0,0,0,1,.5.5Z"/>
      </g>
    </g>
    <g id="확인" transform="translate(-5704.957 5341.5) rotate(-90)">
      <circle id="타원_2826" data-name="타원 2826" class="cls-4" cx="4" cy="4" r="4" transform="translate(4735.5 6136.457)"/>
      <g id="그룹_123997" data-name="그룹 123997" transform="translate(4736.009 6136.086)">
        <rect id="사각형_149855" data-name="사각형 149855" class="cls-5" width="1" height="2.6" transform="translate(2.571 5.024) rotate(-135)"/>
        <rect id="사각형_149856" data-name="사각형 149856" class="cls-5" width="1" height="3.6" transform="translate(5.117 6.156) rotate(135)"/>
      </g>
    </g>
  </g>
</svg>
