<svg xmlns="http://www.w3.org/2000/svg" xmlns:xlink="http://www.w3.org/1999/xlink" width="140" height="140" viewBox="0 0 140 140">
  <defs>
    <style>
      .cls-1 {
        fill: none;
      }

      .cls-2 {
        fill: #fff;
        opacity: 0;
      }

      .cls-3 {
        clip-path: url(#clip-path);
      }

      .cls-4 {
        fill: #ea4450;
      }

      .cls-5 {
        fill: #ce293d;
      }

      .cls-6 {
        fill: #1a1a1a;
      }

      .cls-7 {
        fill: #92d7ef;
      }

      .cls-8 {
        fill: #54c4e2;
      }
    </style>
    <clipPath id="clip-path">
      <rect id="사각형_150995" data-name="사각형 150995" class="cls-1" width="120" height="119.426" transform="translate(0 0)"/>
    </clipPath>
  </defs>
  <g id="icon_비_Big" transform="translate(-1060 -526)">
    <rect id="사각형_150989" data-name="사각형 150989" class="cls-2" width="140" height="140" transform="translate(1060 526)"/>
    <g id="그룹_124521" data-name="그룹 124521" transform="translate(1070 536.287)">
      <g id="그룹_124520" data-name="그룹 124520" class="cls-3">
        <path id="패스_203268" data-name="패스 203268" class="cls-4" d="M7.779,71.737A15.69,15.69,0,0,1,34.95,69.959a15.69,15.69,0,0,1,26.152,0,15.69,15.69,0,0,1,27.171,1.778,41.173,41.173,0,0,0,1.6-11.428,41.843,41.843,0,1,0-83.685,0A41.209,41.209,0,0,0,7.779,71.737"/>
        <path id="패스_203269" data-name="패스 203269" class="cls-5" d="M84.639,52.463A15.693,15.693,0,0,0,71.563,59.5a15.689,15.689,0,0,0-26.151,0A15.691,15.691,0,0,0,18.24,61.276a41.846,41.846,0,0,1,5.91-35.305A41.845,41.845,0,0,0,6.184,60.308a41.174,41.174,0,0,0,1.6,11.429,15.691,15.691,0,0,1,27.171-1.779,15.692,15.692,0,0,1,26.152,0,15.691,15.691,0,0,1,27.171,1.779,41.211,41.211,0,0,0,1.6-11.429,42.933,42.933,0,0,0-.653-7.165,15.534,15.534,0,0,0-4.577-.68"/>
        <path id="패스_203270" data-name="패스 203270" class="cls-6" d="M90.784,72.469a44.463,44.463,0,0,0-8.238-40.2,2.622,2.622,0,1,0-4.079,3.3,39.235,39.235,0,0,1,8.787,24.74,37.808,37.808,0,0,1-.34,5.23A18.22,18.22,0,0,0,61.1,65.8a18.307,18.307,0,0,0-25.887-.264c-.089.087-.177.175-.265.264a18.218,18.218,0,0,0-25.811-.261,37.654,37.654,0,0,1-.34-5.23A39.227,39.227,0,0,1,71.406,28.77a2.615,2.615,0,1,0,3.086-4.185,44.011,44.011,0,0,0-23.851-8.734V8.005a2.615,2.615,0,1,0-5.23,0v7.977A44.459,44.459,0,0,0,5.268,72.469a2.631,2.631,0,0,0,4.891.418A13.076,13.076,0,0,1,32.806,71.4a2.615,2.615,0,0,0,4.341,0,13.079,13.079,0,0,1,8.264-5.571v41.832a11.768,11.768,0,1,0,23.536,0v-3.923a2.615,2.615,0,0,0-5.23,0v3.923a6.538,6.538,0,1,1-13.076,0V65.826a13.074,13.074,0,0,1,8.29,5.571,2.616,2.616,0,0,0,4.342,0,13.076,13.076,0,0,1,22.647,1.49,2.615,2.615,0,0,0,2.353,1.465h.236a2.615,2.615,0,0,0,2.275-1.883"/>
        <path id="패스_203271" data-name="패스 203271" class="cls-7" d="M82.929,23.277a12.7,12.7,0,1,1-25.4,0c0-7.006,12.7-21.166,12.7-21.166s12.7,14.16,12.7,21.166"/>
        <path id="패스_203272" data-name="패스 203272" class="cls-8" d="M78.7,27.511A12.7,12.7,0,0,1,66,14.811c0-3.09,2.456-7.556,5.207-11.577L70.23,2.112s-12.7,14.16-12.7,21.166a12.7,12.7,0,0,0,24.849,3.683,12.427,12.427,0,0,1-3.683.55"/>
        <path id="패스_203273" data-name="패스 203273" class="cls-6" d="M68.663.693c-1.355,1.524-13.25,14.985-13.25,22.584a14.816,14.816,0,0,0,29.632,0c0-7.6-11.895-21.166-13.25-22.584A2.117,2.117,0,0,0,68.805.55c-.049.045-.1.093-.142.143M70.229,33.86A10.583,10.583,0,0,1,59.646,23.277c0-4.043,5.969-12.446,10.583-17.949,4.614,5.482,10.583,13.906,10.583,17.949A10.583,10.583,0,0,1,70.229,33.86"/>
        <path id="패스_203274" data-name="패스 203274" class="cls-7" d="M28.775,100.318a13.281,13.281,0,0,1-26.562,0c0-7.327,13.281-22.135,13.281-22.135s13.281,14.808,13.281,22.135"/>
        <path id="패스_203275" data-name="패스 203275" class="cls-8" d="M24.348,104.745A13.281,13.281,0,0,1,11.067,91.464c0-3.232,2.568-7.9,5.445-12.108l-1.018-1.173S2.213,92.991,2.213,100.318A13.281,13.281,0,0,0,28.2,104.169a12.956,12.956,0,0,1-3.851.576"/>
        <path id="패스_203276" data-name="패스 203276" class="cls-6" d="M13.856,76.7C12.439,78.293,0,92.371,0,100.318a15.494,15.494,0,0,0,30.988,0c0-7.947-12.439-22.135-13.856-23.618a2.213,2.213,0,0,0-3.127-.149,2.1,2.1,0,0,0-.149.149m1.638,34.685A11.067,11.067,0,0,1,4.427,100.318c0-4.228,6.242-13.016,11.067-18.771,4.825,5.733,11.067,14.543,11.067,18.771a11.067,11.067,0,0,1-11.067,11.067"/>
        <path id="패스_203277" data-name="패스 203277" class="cls-7" d="M117.883,79.188a12.7,12.7,0,1,1-25.4,0c0-7.006,12.7-21.166,12.7-21.166s12.7,14.16,12.7,21.166"/>
        <path id="패스_203278" data-name="패스 203278" class="cls-8" d="M113.65,83.421a12.7,12.7,0,0,1-12.7-12.7c0-3.09,2.456-7.556,5.207-11.577l-.973-1.122s-12.7,14.16-12.7,21.166a12.7,12.7,0,0,0,24.849,3.683,12.427,12.427,0,0,1-3.683.55"/>
        <path id="패스_203279" data-name="패스 203279" class="cls-6" d="M103.618,56.6c-1.355,1.524-13.25,14.985-13.25,22.584a14.816,14.816,0,0,0,29.632,0c0-7.6-11.895-21.166-13.25-22.584a2.117,2.117,0,0,0-2.99-.143c-.049.045-.1.093-.142.143m1.566,33.167A10.583,10.583,0,0,1,94.6,79.188c0-4.043,5.969-12.446,10.583-17.949,4.614,5.482,10.583,13.906,10.583,17.949a10.583,10.583,0,0,1-10.583,10.583"/>
      </g>
    </g>
  </g>
</svg>
