<svg xmlns="http://www.w3.org/2000/svg" width="30" height="30" viewBox="0 0 30 30">
  <g id="icon" transform="translate(3 3)">
    <rect id="bg_icon" width="30" height="30" transform="translate(-3 -3)" fill="#fff" opacity="0"/>
    <path id="패스_203383" data-name="패스 203383" d="M22.6,21.209H1.6a1,1,0,0,1-1-1v-4a2,2,0,0,1,2-2h20a1,1,0,0,1,1,1v5a1,1,0,0,1-1,1" fill="#333"/>
    <path id="패스_203384" data-name="패스 203384" d="M20.408,14.209H6.474l1.391-3.743A1.864,1.864,0,0,1,9.59,9.209h9.955a.967.967,0,0,1,.929,1Z" fill="#cbebf4"/>
    <path id="패스_203385" data-name="패스 203385" d="M19.546,9.209a.967.967,0,0,1,.929,1l-.066,4H6.475l1.391-3.743A1.864,1.864,0,0,1,9.59,9.209Zm0-1.2H9.59a3.043,3.043,0,0,0-2.849,2.039L5.35,13.791l-.6,1.618h16.84l.019-1.18.067-4a2.173,2.173,0,0,0-2.129-2.22" fill="#333"/>
    <path id="패스_203386" data-name="패스 203386" d="M9.993,20.709a2.5,2.5,0,1,1-2.5-2.5,2.5,2.5,0,0,1,2.5,2.5" fill="#64acf4"/>
    <path id="패스_203387" data-name="패스 203387" d="M7.493,23.809a3.1,3.1,0,1,1,3.1-3.1,3.1,3.1,0,0,1-3.1,3.1m0-5a1.9,1.9,0,1,0,1.9,1.9,1.9,1.9,0,0,0-1.9-1.9" fill="#333"/>
    <path id="패스_203388" data-name="패스 203388" d="M21.1,20.709a2.5,2.5,0,1,1-2.5-2.5,2.5,2.5,0,0,1,2.5,2.5" fill="#64acf4"/>
    <path id="패스_203389" data-name="패스 203389" d="M18.6,23.809a3.1,3.1,0,1,1,3.1-3.1,3.1,3.1,0,0,1-3.1,3.1m0-5a1.9,1.9,0,1,0,1.9,1.9,1.9,1.9,0,0,0-1.9-1.9" fill="#333"/>
    <path id="패스_203390" data-name="패스 203390" d="M19.455,3.6h-14a1,1,0,0,1-1-1V.6h16v2a1,1,0,0,1-1,1" fill="#ffbc00"/>
    <path id="패스_203391" data-name="패스 203391" d="M19.455,4.2h-14a1.6,1.6,0,0,1-1.6-1.6V.6a.6.6,0,0,1,.6-.6h16a.6.6,0,0,1,.6.6v2a1.6,1.6,0,0,1-1.6,1.6m-14.4-3V2.6a.4.4,0,0,0,.4.4h14a.4.4,0,0,0,.4-.4V1.2Z" fill="#333"/>
    <line id="선_2462" data-name="선 2462" y2="2.459" transform="translate(12.455 4.863)" fill="#64acf4"/>
    <rect id="사각형_150987" data-name="사각형 150987" width="1" height="2.458" transform="translate(11.955 4.864)" fill="#333"/>
    <line id="선_2463" data-name="선 2463" x1="1.344" y2="1.344" transform="translate(4.607 4.863)" fill="#64acf4"/>
    <rect id="사각형_150988" data-name="사각형 150988" width="1.9" height="1" transform="matrix(0.707, -0.707, 0.707, 0.707, 4.254, 5.853)" fill="#333"/>
    <line id="선_2464" data-name="선 2464" x2="1.344" y2="1.344" transform="translate(18.958 4.863)" fill="#64acf4"/>
    <rect id="사각형_150989" data-name="사각형 150989" width="1" height="1.9" transform="matrix(0.707, -0.707, 0.707, 0.707, 18.604, 5.217)" fill="#333"/>
    <path id="패스_203392" data-name="패스 203392" d="M2.6,20.709H1.1a.5.5,0,0,1-.5-.5v-1a.5.5,0,0,1,.5-.5H2.6Z" fill="#fff"/>
    <path id="패스_203393" data-name="패스 203393" d="M3.2,21.309H1.1a1.1,1.1,0,0,1-1.1-1.1v-1a1.1,1.1,0,0,1,1.1-1.1H3.2Zm-2-1.2H2v-.8H1.2Z" fill="#333"/>
    <path id="패스_203394" data-name="패스 203394" d="M23.1,20.709H21.6v-2h1.5a.5.5,0,0,1,.5.5v1a.5.5,0,0,1-.5.5" fill="#fff"/>
    <path id="패스_203395" data-name="패스 203395" d="M23.1,21.309H21v-3.2h2.1a1.1,1.1,0,0,1,1.1,1.1v1a1.1,1.1,0,0,1-1.1,1.1m-.9-1.2H23v-.8h-.8Z" fill="#333"/>
    <path id="패스_203396" data-name="패스 203396" d="M3.1,16.709h-2v-.4a1.6,1.6,0,0,1,1.6-1.6H4.1v1a1,1,0,0,1-1,1" fill="#fff"/>
    <path id="패스_203397" data-name="패스 203397" d="M3.105,17.308H.5v-1a2.2,2.2,0,0,1,2.2-2.2h2v1.6a1.6,1.6,0,0,1-1.6,1.6m-1.38-1.2h1.38a.4.4,0,0,0,.4-.4v-.4H2.7a1,1,0,0,0-.979.8" fill="#333"/>
  </g>
</svg>
