<svg xmlns="http://www.w3.org/2000/svg" width="24" height="24" viewBox="0 0 24 24">
  <defs>
    <style>
      .cls-1 {
        fill: #fff;
        opacity: 0;
      }

      .cls-2 {
        fill: #fbb03b;
      }

      .cls-3 {
        fill: #f7931e;
      }

      .cls-4 {
        fill: #1a1a1a;
      }
    </style>
  </defs>
  <g id="Icon_Weather_Small_주간_맑음" transform="translate(-36 -1)">
    <rect id="사각형_150998" data-name="사각형 150998" class="cls-1" width="24" height="24" transform="translate(36 1)"/>
    <g id="그룹_124526" data-name="그룹 124526" transform="translate(35.992 0.615)">
      <path id="패스_203136" data-name="패스 203136" class="cls-2" d="M14.669,7A7.669,7.669,0,1,1,7,14.669,7.669,7.669,0,0,1,14.669,7" transform="translate(-2.661 -2.285)"/>
      <path id="패스_203137" data-name="패스 203137" class="cls-3" d="M17.949,19.761A7.669,7.669,0,0,1,11.14,8.57,7.669,7.669,0,1,0,21.471,18.9a7.626,7.626,0,0,1-3.522.86" transform="translate(-2.654 -2.995)"/>
      <path id="패스_203138" data-name="패스 203138" class="cls-4" d="M14.217,6a8.217,8.217,0,1,0,8.217,8.217A8.217,8.217,0,0,0,14.217,6m0,15.338a7.121,7.121,0,1,1,7.121-7.121,7.121,7.121,0,0,1-7.121,7.121" transform="translate(-2.209 -1.832)"/>
      <path id="패스_203139" data-name="패스 203139" class="cls-4" d="M20.548,2.191a.548.548,0,0,0,.548-.548V.548a.548.548,0,1,0-1.1,0v1.1a.548.548,0,0,0,.548.548" transform="translate(-8.54 0.881)"/>
      <path id="패스_203140" data-name="패스 203140" class="cls-4" d="M10.617,4.448a.55.55,0,1,0,.953-.548l-.548-.948a.55.55,0,0,0-.953.548Z" transform="translate(-4.016 -0.329)"/>
      <path id="패스_203141" data-name="패스 203141" class="cls-4" d="M2.952,11.023l.948.548a.55.55,0,1,0,.548-.953L3.5,10.07a.55.55,0,0,0-.548.953" transform="translate(-0.706 -3.64)"/>
      <path id="패스_203142" data-name="패스 203142" class="cls-4" d="M.548,21.1h1.1a.548.548,0,1,0,0-1.1H.548a.548.548,0,1,0,0,1.1" transform="translate(0.505 -8.163)"/>
      <path id="패스_203143" data-name="패스 203143" class="cls-4" d="M3.9,29.07l-.948.548a.55.55,0,1,0,.548.953l.948-.548A.55.55,0,1,0,3.9,29.07" transform="translate(-0.706 -12.232)"/>
      <path id="패스_203144" data-name="패스 203144" class="cls-4" d="M10.617,35.862l-.548.948a.55.55,0,0,0,.953.548l.548-.948a.55.55,0,0,0-.953-.548" transform="translate(-4.016 -15.212)"/>
      <path id="패스_203145" data-name="패스 203145" class="cls-4" d="M20,38.548v1.1a.548.548,0,0,0,1.1,0v-1.1a.548.548,0,1,0-1.1,0" transform="translate(-8.54 -16.303)"/>
      <path id="패스_203146" data-name="패스 203146" class="cls-4" d="M29.272,35.659a.547.547,0,0,0-.2.747l0,0,.548.948a.55.55,0,1,0,.953-.548l-.548-.948a.547.547,0,0,0-.747-.2l0,0" transform="translate(-12.608 -15.211)"/>
      <path id="패스_203147" data-name="패스 203147" class="cls-4" d="M37.358,29.617l-.948-.548a.55.55,0,0,0-.548.953l.948.548a.55.55,0,1,0,.548-.953" transform="translate(-15.588 -12.232)"/>
      <path id="패스_203148" data-name="패스 203148" class="cls-4" d="M39.643,20h-1.1a.548.548,0,1,0,0,1.1h1.1a.548.548,0,0,0,0-1.1" transform="translate(-16.68 -8.163)"/>
      <path id="패스_203149" data-name="패스 203149" class="cls-4" d="M36.135,11.642a.551.551,0,0,0,.274-.071l.948-.548a.55.55,0,1,0-.548-.953l-.948.548a.548.548,0,0,0,.274,1.024" transform="translate(-15.587 -3.64)"/>
      <path id="패스_203150" data-name="패스 203150" class="cls-4" d="M29.272,4.65a.548.548,0,0,0,.749-.2l0,0L30.57,3.5a.55.55,0,0,0-.953-.548l-.548.948a.548.548,0,0,0,.2.749l0,0" transform="translate(-12.608 -0.329)"/>
    </g>
  </g>
</svg>
