<svg id="Btn_Language" xmlns="http://www.w3.org/2000/svg" xmlns:xlink="http://www.w3.org/1999/xlink" width="36" height="36" viewBox="0 0 36 36">
  <defs>
    <style>
      .cls-1, .cls-4 {
        fill: #fff;
      }

      .cls-1 {
        opacity: 0;
      }

      .cls-2, .cls-5 {
        fill: #f3c300;
      }

      .cls-3 {
        fill: #002c5f;
        font-size: 8px;
        font-family: AppleSDGothicNeo-ExtraBold, Apple SD Gothic Neo;
      }

      .cls-3, .cls-5 {
        font-weight: 800;
        letter-spacing: 0.01em;
      }

      .cls-5 {
        font-size: 10px;
        font-family: Pretendard-Black, Pretendard;
      }

      .cls-6, .cls-7 {
        stroke: none;
      }

      .cls-7 {
        fill: #f3c300;
      }

      .cls-8 {
        filter: url(#A);
      }

      .cls-9 {
        filter: url(#합치기_6);
      }

      .cls-10 {
        filter: url(#합치기_5);
      }
    </style>
    <filter id="합치기_5" x="16.7" y="7.07" width="13.699" height="15.589" filterUnits="userSpaceOnUse">
      <feOffset dy="1.6" input="SourceAlpha"/>
      <feGaussianBlur stdDeviation="0.25" result="blur"/>
      <feFlood flood-color="#f7bf05" flood-opacity="0.502"/>
      <feComposite operator="in" in2="blur"/>
      <feComposite in="SourceGraphic"/>
    </filter>
    <filter id="합치기_6" x="5.6" y="10.69" width="18.7" height="20.589" filterUnits="userSpaceOnUse">
      <feOffset dy="1.6" input="SourceAlpha"/>
      <feGaussianBlur stdDeviation="0.25" result="blur-2"/>
      <feFlood flood-color="#f7bf05" flood-opacity="0.502"/>
      <feComposite operator="in" in2="blur-2"/>
      <feComposite in="SourceGraphic"/>
    </filter>
    <filter id="A" x="10.25" y="11.75" width="9.5" height="13.5" filterUnits="userSpaceOnUse">
      <feOffset dy="0.5" input="SourceAlpha"/>
      <feGaussianBlur stdDeviation="0.25" result="blur-3"/>
      <feFlood flood-opacity="0.161"/>
      <feComposite operator="in" in2="blur-3"/>
      <feComposite in="SourceGraphic"/>
    </filter>
  </defs>
  <rect id="Area_Btn" class="cls-1" width="36" height="36"/>
  <g class="cls-10" transform="matrix(1, 0, 0, 1, 0, 0)">
    <path id="합치기_5-2" data-name="합치기 5" class="cls-2" d="M-229.255-48.985a6.05,6.05,0,0,1-5.745-6A6.057,6.057,0,0,1-228.9-61a6.056,6.056,0,0,1,6.1,6.013,6.025,6.025,0,0,1-4.281,5.74l-2.322,1.486Z" transform="translate(252.45 68.07)"/>
  </g>
  <text id="文" class="cls-3" transform="translate(23.45 16)"><tspan x="-3.46" y="0">文</tspan></text>
  <g class="cls-9" transform="matrix(1, 0, 0, 1, 0, 0)">
    <g id="합치기_6-2" data-name="합치기 6" class="cls-4" transform="translate(23.55 28.93) rotate(180)">
      <path class="cls-6" d="M 8.600503921508789 17.73925971984863 C 4.133873462677002 17.73925971984863 0.5000035166740417 14.24739933013916 0.5000035166740417 9.955328941345215 C 0.5000035166740417 5.834659099578857 3.850463628768921 2.421818971633911 8.127653121948242 2.185678958892822 L 8.662103652954102 2.156168937683105 L 8.596303939819336 1.624968886375427 L 8.516507148742676 0.9808058142662048 L 10.89924335479736 2.470978975296021 L 10.95618343353271 2.506588935852051 L 11.02050304412842 2.525918960571289 C 12.63408374786377 3.010668992996216 14.08232307434082 3.998998880386353 15.09844398498535 5.308838844299316 C 16.14599418640137 6.65920877456665 16.69970321655273 8.265938758850098 16.69970321655273 9.955328941345215 C 16.69970321655273 14.24739933013916 13.06641387939453 17.73925971984863 8.600503921508789 17.73925971984863 Z"/>
      <path class="cls-7" d="M 9.141822814941406 1.961614608764648 L 9.224113464355469 2.625899314880371 L 8.155223846435547 2.684908866882324 C 4.142953872680664 2.906429290771484 1.000003814697266 6.099978446960449 1.000003814697266 9.955328941345215 C 1.000003814697266 13.97169876098633 4.409573554992676 17.23925971984863 8.600503921508789 17.23925971984863 C 12.7907133102417 17.23925971984863 16.19970321655273 13.97169876098633 16.19970321655273 9.955328941345215 C 16.19970321655273 8.377939224243164 15.68228340148926 6.877179145812988 14.70337295532227 5.61530876159668 C 13.75047302246094 4.386959075927734 12.39145374298096 3.459858894348145 10.87664413452148 3.004778861999512 L 10.74800300598145 2.966129302978516 L 9.141822814941406 1.961614608764648 M 7.891183853149414 -1.9073486328125e-06 L 11.16436386108398 2.04705810546875 C 14.66161346435547 3.097708702087402 17.19970321655273 6.241138458251953 17.19970321655273 9.955328941345215 C 17.19970321655273 14.53064918518066 13.34990310668945 18.23925971984863 8.600503921508789 18.23925971984863 C 3.849793434143066 18.23925971984863 3.814697265625e-06 14.53064918518066 3.814697265625e-06 9.955328941345215 C 3.814697265625e-06 5.542908668518066 3.582273483276367 1.935859680175781 8.100093841552734 1.686428070068359 L 7.891183853149414 -1.9073486328125e-06 Z"/>
    </g>
  </g>
  <g class="cls-8" transform="matrix(1, 0, 0, 1, 0, 0)">
    <text id="A-2" data-name="A" class="cls-5" transform="translate(15 22)"><tspan x="-3.83" y="0">A</tspan></text>
  </g>
</svg>
