<svg xmlns="http://www.w3.org/2000/svg" xmlns:xlink="http://www.w3.org/1999/xlink" width="24" height="24" viewBox="0 0 24 24">
  <defs>
    <style>
      .cls-1 {
        fill: none;
      }

      .cls-2 {
        fill: #fff;
        opacity: 0;
      }

      .cls-3 {
        clip-path: url(#clip-path);
      }

      .cls-4 {
        fill: gray;
      }

      .cls-5 {
        fill: #666;
      }

      .cls-6 {
        fill: #1a1a1a;
      }
    </style>
    <clipPath id="clip-path">
      <rect id="사각형_151003" data-name="사각형 151003" class="cls-1" width="24" height="14.961"/>
    </clipPath>
  </defs>
  <g id="Icon_Weather_Small_야간_흐림" transform="translate(-36 -1)">
    <rect id="사각형_150998" data-name="사각형 150998" class="cls-2" width="24" height="24" transform="translate(36 1)"/>
    <g id="그룹_124536" data-name="그룹 124536" transform="translate(36 7.992)">
      <g id="그룹_124535" data-name="그룹 124535" class="cls-3" transform="translate(0 0)">
        <path id="패스_203320" data-name="패스 203320" class="cls-4" d="M18.673,3.523h.3a5.279,5.279,0,1,1,0,10.558H7.094a6.163,6.163,0,0,1,.44-12.318,6,6,0,0,1,1.958.321,5.279,5.279,0,0,1,9.181,1.438" transform="translate(-0.691 0)"/>
        <path id="패스_203321" data-name="패스 203321" class="cls-5" d="M21.911,15.124H10.033A6.159,6.159,0,0,1,5,6.136,6.159,6.159,0,0,0,7.393,17.763H19.271a5.279,5.279,0,0,0,4.808-3.11,5.242,5.242,0,0,1-2.169.471" transform="translate(-0.991 -3.682)"/>
        <path id="패스_203322" data-name="패스 203322" class="cls-6" d="M18.281,3.525A5.719,5.719,0,0,0,8.646,2.016a6.486,6.486,0,0,0-1.8-.251,6.6,6.6,0,1,0-.48,13.2h1.8a.44.44,0,1,0,0-.88H6.434a5.723,5.723,0,0,1,.41-11.438,5.576,5.576,0,0,1,1.816.3.439.439,0,0,0,.488-.15,4.839,4.839,0,0,1,8.42,1.32.441.441,0,0,0,.44.295l.272,0a4.839,4.839,0,1,1,0,9.678H9.922a.44.44,0,1,0,0,.88h8.358a5.719,5.719,0,1,0,0-11.438" transform="translate(0 -0.002)"/>
      </g>
    </g>
  </g>
</svg>
