<svg id="ic_move" xmlns="http://www.w3.org/2000/svg" width="16" height="16" viewBox="0 0 16 16">
  <defs>
    <style>
      .cls-1 {
        fill: #ff5964;
        opacity: 0;
      }

      .cls-2 {
        fill: rgba(51,51,51,0.9);
      }

      .cls-3 {
        fill: #474747;
      }
    </style>
  </defs>
  <rect id="area" class="cls-1" width="16" height="16"/>
  <path id="Vector_Stroke_" data-name="Vector (Stroke)" class="cls-2" d="M0,1.554.919.635,2.653,2.369,5.022,0l.919.919L3.572,3.288,5.234,4.95l-.919.919L2.653,4.207.991,5.869.072,4.95,1.734,3.288Z" transform="translate(8.444 3.794) rotate(45)"/>
  <path id="다각형_20" data-name="다각형 20" class="cls-3" d="M2,0,4,2H0Z" transform="translate(3 10) rotate(-90)"/>
  <path id="다각형_21" data-name="다각형 21" class="cls-3" d="M2,0,4,2H0Z" transform="translate(13 6) rotate(90)"/>
  <path id="다각형_22" data-name="다각형 22" class="cls-3" d="M2,0,4,2H0Z" transform="translate(6 3)"/>
  <path id="다각형_23" data-name="다각형 23" class="cls-3" d="M2,0,4,2H0Z" transform="translate(10 13) rotate(180)"/>
</svg>
