<svg xmlns="http://www.w3.org/2000/svg" width="20" height="20" viewBox="0 0 20 20">
  <defs>
    <style>
      .cls-1 {
        fill: red;
        opacity: 0;
      }

      .cls-2 {
        fill: #fff;
      }

      .cls-3 {
        fill: #2565d6;
      }

      .cls-4 {
        fill: #333;
      }

      .cls-5 {
        fill: #ffeb3b;
      }

      .cls-6, .cls-7 {
        stroke: none;
      }

      .cls-7 {
        fill: #333;
      }
    </style>
  </defs>
  <g id="ic_파트관리" transform="translate(-422 -588)">
    <rect id="사각형_150909" data-name="사각형 150909" class="cls-1" width="20" height="20" transform="translate(422 588)"/>
    <g id="패스_203209" data-name="패스 203209" class="cls-2" transform="translate(425 596)">
      <path class="cls-6" d="M 11.5 4.5 L 9.309015274047852 4.5 L 8.447210311889648 2.776390075683594 L 8.309020042419434 2.5 L 8 2.5 L 4 2.5 L 3.690979957580566 2.5 L 3.552789926528931 2.776390075683594 L 2.690984964370728 4.5 L 0.5 4.5 L 0.5 -0.5 L 11.5 -0.5 L 11.5 4.5 Z"/>
      <path class="cls-7" d="M 1 0 L 1 4 L 2.381964683532715 4 L 3.381970405578613 2 L 8.618030548095703 2 L 9.618035316467285 4 L 11 4 L 11 0 L 1 0 M 0 -1 L 12 -1 L 12 5 L 9 5 L 8 3 L 4 3 L 3 5 L 0 5 L 0 -1 Z"/>
    </g>
    <g id="합치기_63" data-name="합치기 63" class="cls-3" transform="translate(-2940 -10341.297)">
      <path class="cls-6" d="M 3376.5009765625 10946.796875 L 3365.50048828125 10946.796875 L 3365.50048828125 10943.796875 L 3368.590087890625 10943.796875 L 3368.902099609375 10943.796875 L 3369.039306640625 10943.5166015625 L 3369.78515625 10941.9921875 C 3369.938232421875 10941.9921875 3370.136962890625 10941.9921875 3370.358154296875 10941.9921875 C 3371.41552734375 10941.9921875 3371.959716796875 10941.9931640625 3372.2392578125 10941.9951171875 C 3372.291259765625 10942.1064453125 3372.355224609375 10942.244140625 3372.424560546875 10942.392578125 C 3372.60009765625 10942.767578125 3372.810791015625 10943.2158203125 3372.94921875 10943.509765625 L 3373.084228515625 10943.796875 L 3373.401611328125 10943.796875 L 3376.5009765625 10943.796875 L 3376.5009765625 10946.796875 Z"/>
      <path class="cls-7" d="M 3376.0009765625 10946.296875 L 3376.0009765625 10944.296875 L 3372.766845703125 10944.296875 L 3372.496826171875 10943.72265625 C 3372.358154296875 10943.427734375 3372.1474609375 10942.9794921875 3371.9716796875 10942.6044921875 C 3371.9541015625 10942.56640625 3371.936767578125 10942.529296875 3371.919921875 10942.4931640625 C 3371.6005859375 10942.4921875 3371.1103515625 10942.4921875 3370.358154296875 10942.4921875 C 3370.266845703125 10942.4921875 3370.179443359375 10942.4921875 3370.097412109375 10942.4921875 L 3369.214111328125 10944.296875 L 3366.00048828125 10944.296875 L 3366.00048828125 10946.296875 L 3376.0009765625 10946.296875 M 3377.0009765625 10947.296875 L 3365.00048828125 10947.296875 L 3365.00048828125 10943.296875 L 3368.590087890625 10943.296875 L 3369.47314453125 10941.4921875 C 3369.473388671875 10941.4921875 3372.569580078125 10941.4892578125 3372.56396484375 10941.5 C 3372.559814453125 10941.5068359375 3373.125 10942.708984375 3373.401611328125 10943.296875 L 3377.0009765625 10943.296875 L 3377.0009765625 10947.296875 Z"/>
    </g>
    <g id="그룹_124505" data-name="그룹 124505" transform="translate(1 4)">
      <rect id="사각형_150935" data-name="사각형 150935" class="cls-4" width="10" height="8" rx="2" transform="translate(430 587)"/>
      <rect id="사각형_150936" data-name="사각형 150936" class="cls-5" width="4" height="1" transform="translate(434.5 593) rotate(-90)"/>
      <rect id="사각형_150937" data-name="사각형 150937" class="cls-5" width="2" height="1" transform="translate(432.5 593) rotate(-90)"/>
      <rect id="사각형_150938" data-name="사각형 150938" class="cls-5" width="3" height="1" transform="translate(436.5 593) rotate(-90)"/>
    </g>
  </g>
</svg>
